%TF.GenerationSoftware,KiCad,Pcbnew,(5.0.2-5)-5*%
%TF.CreationDate,2022-10-07T21:03:46+07:00*%
%TF.ProjectId,gosanke,676f7361-6e6b-4652-9e6b-696361645f70,rev?*%
%TF.SameCoordinates,Original*%
%TF.FileFunction,Legend,Top*%
%TF.FilePolarity,Positive*%
%FSLAX46Y46*%
G04 Gerber Fmt 4.6, Leading zero omitted, Abs format (unit mm)*
G04 Created by KiCad (PCBNEW (5.0.2-5)-5) date 2022 October 07, Friday 21:03:46*
%MOMM*%
%LPD*%
G01*
G04 APERTURE LIST*
%ADD10C,0.300000*%
%ADD11C,0.127000*%
%ADD12C,0.120000*%
%ADD13C,0.152400*%
%ADD14C,0.150000*%
%ADD15C,0.254000*%
G04 APERTURE END LIST*
D10*
X163356028Y-56006171D02*
X162141742Y-56006171D01*
X161998885Y-56077600D01*
X161927457Y-56149028D01*
X161856028Y-56291885D01*
X161856028Y-56577600D01*
X161927457Y-56720457D01*
X161998885Y-56791885D01*
X162141742Y-56863314D01*
X163356028Y-56863314D01*
X161856028Y-58434742D02*
X162570314Y-57934742D01*
X161856028Y-57577600D02*
X163356028Y-57577600D01*
X163356028Y-58149028D01*
X163284600Y-58291885D01*
X163213171Y-58363314D01*
X163070314Y-58434742D01*
X162856028Y-58434742D01*
X162713171Y-58363314D01*
X162641742Y-58291885D01*
X162570314Y-58149028D01*
X162570314Y-57577600D01*
X163356028Y-59363314D02*
X163356028Y-59649028D01*
X163284600Y-59791885D01*
X163141742Y-59934742D01*
X162856028Y-60006171D01*
X162356028Y-60006171D01*
X162070314Y-59934742D01*
X161927457Y-59791885D01*
X161856028Y-59649028D01*
X161856028Y-59363314D01*
X161927457Y-59220457D01*
X162070314Y-59077600D01*
X162356028Y-59006171D01*
X162856028Y-59006171D01*
X163141742Y-59077600D01*
X163284600Y-59220457D01*
X163356028Y-59363314D01*
X161927457Y-60577600D02*
X161856028Y-60791885D01*
X161856028Y-61149028D01*
X161927457Y-61291885D01*
X161998885Y-61363314D01*
X162141742Y-61434742D01*
X162284600Y-61434742D01*
X162427457Y-61363314D01*
X162498885Y-61291885D01*
X162570314Y-61149028D01*
X162641742Y-60863314D01*
X162713171Y-60720457D01*
X162784600Y-60649028D01*
X162927457Y-60577600D01*
X163070314Y-60577600D01*
X163213171Y-60649028D01*
X163284600Y-60720457D01*
X163356028Y-60863314D01*
X163356028Y-61220457D01*
X163284600Y-61434742D01*
X161998885Y-64077600D02*
X161927457Y-64006171D01*
X161856028Y-63791885D01*
X161856028Y-63649028D01*
X161927457Y-63434742D01*
X162070314Y-63291885D01*
X162213171Y-63220457D01*
X162498885Y-63149028D01*
X162713171Y-63149028D01*
X162998885Y-63220457D01*
X163141742Y-63291885D01*
X163284600Y-63434742D01*
X163356028Y-63649028D01*
X163356028Y-63791885D01*
X163284600Y-64006171D01*
X163213171Y-64077600D01*
X163356028Y-65006171D02*
X163356028Y-65291885D01*
X163284600Y-65434742D01*
X163141742Y-65577600D01*
X162856028Y-65649028D01*
X162356028Y-65649028D01*
X162070314Y-65577600D01*
X161927457Y-65434742D01*
X161856028Y-65291885D01*
X161856028Y-65006171D01*
X161927457Y-64863314D01*
X162070314Y-64720457D01*
X162356028Y-64649028D01*
X162856028Y-64649028D01*
X163141742Y-64720457D01*
X163284600Y-64863314D01*
X163356028Y-65006171D01*
X163213171Y-66220457D02*
X163284600Y-66291885D01*
X163356028Y-66434742D01*
X163356028Y-66791885D01*
X163284600Y-66934742D01*
X163213171Y-67006171D01*
X163070314Y-67077600D01*
X162927457Y-67077600D01*
X162713171Y-67006171D01*
X161856028Y-66149028D01*
X161856028Y-67077600D01*
X182287123Y-85049502D02*
X182305384Y-84890831D01*
X182207664Y-84622347D01*
X182091683Y-84512535D01*
X181933011Y-84494274D01*
X181865890Y-84518704D01*
X181756078Y-84634685D01*
X181737818Y-84793357D01*
X181811108Y-84994720D01*
X181792847Y-85153392D01*
X181683035Y-85269372D01*
X181615914Y-85293802D01*
X181457242Y-85275542D01*
X181341261Y-85165730D01*
X181267971Y-84964367D01*
X181286232Y-84805695D01*
X180754941Y-83554828D02*
X182164480Y-83041798D01*
X181627513Y-83237238D02*
X181743494Y-83347050D01*
X181841214Y-83615533D01*
X181822953Y-83774205D01*
X181780262Y-83865756D01*
X181670450Y-83981737D01*
X181267725Y-84128317D01*
X181109053Y-84110056D01*
X181017502Y-84067365D01*
X180901521Y-83957554D01*
X180803801Y-83689070D01*
X180822062Y-83530398D01*
X180290771Y-82279531D02*
X181230463Y-81937511D01*
X180510641Y-82883619D02*
X181248971Y-82614889D01*
X181358783Y-82498908D01*
X181377044Y-82340236D01*
X181303754Y-82138874D01*
X181187773Y-82029062D01*
X181096222Y-81986371D01*
X180766293Y-80662214D02*
X180027963Y-80930944D01*
X179918152Y-81046925D01*
X179899891Y-81205597D01*
X179997611Y-81474080D01*
X180113592Y-81583892D01*
X180699172Y-80686644D02*
X180815153Y-80796456D01*
X180937303Y-81132060D01*
X180919042Y-81290732D01*
X180809231Y-81406713D01*
X180674989Y-81455573D01*
X180516317Y-81437312D01*
X180400336Y-81327500D01*
X180278186Y-80991896D01*
X180162205Y-80882084D01*
X180521993Y-79991005D02*
X179582301Y-80333025D01*
X179850784Y-80235305D02*
X179692112Y-80217044D01*
X179600561Y-80174353D01*
X179484581Y-80064541D01*
X179435720Y-79930300D01*
X179941842Y-78605896D02*
X180057823Y-78715708D01*
X180155543Y-78984191D01*
X180137282Y-79142863D01*
X180027470Y-79258844D01*
X179490503Y-79454284D01*
X179331831Y-79436023D01*
X179215850Y-79326211D01*
X179118130Y-79057728D01*
X179136391Y-78899056D01*
X179246203Y-78783075D01*
X179380445Y-78734215D01*
X179758987Y-79356564D01*
X179721972Y-78001808D02*
X179740233Y-77843136D01*
X179642513Y-77574652D01*
X179526532Y-77464841D01*
X179367860Y-77446580D01*
X179300739Y-77471010D01*
X179190927Y-77586991D01*
X179172667Y-77745662D01*
X179245957Y-77947025D01*
X179227696Y-78105697D01*
X179117884Y-78221678D01*
X179050763Y-78246108D01*
X178892091Y-78227847D01*
X178776110Y-78118035D01*
X178702820Y-77916672D01*
X178721081Y-77758001D01*
X179276063Y-76567839D02*
X179257802Y-76726511D01*
X179215111Y-76818062D01*
X179105299Y-76934042D01*
X178702574Y-77080623D01*
X178543902Y-77062362D01*
X178452351Y-77019671D01*
X178336370Y-76909859D01*
X178263080Y-76708496D01*
X178281341Y-76549824D01*
X178324032Y-76458274D01*
X178433844Y-76342293D01*
X178836569Y-76195713D01*
X178995241Y-76213973D01*
X179086792Y-76256664D01*
X179202773Y-76366476D01*
X179276063Y-76567839D01*
X178811892Y-75292542D02*
X178793632Y-75451213D01*
X178683820Y-75567194D01*
X177475644Y-76006935D01*
X178616452Y-74755574D02*
X177676760Y-75097595D01*
X177206913Y-75268605D02*
X177298464Y-75311296D01*
X177341155Y-75219745D01*
X177249604Y-75177054D01*
X177206913Y-75268605D01*
X177341155Y-75219745D01*
X178152282Y-73480277D02*
X176742743Y-73993308D01*
X178085161Y-73504707D02*
X178201142Y-73614519D01*
X178298862Y-73883003D01*
X178280601Y-74041675D01*
X178237910Y-74133225D01*
X178128099Y-74249206D01*
X177725373Y-74395786D01*
X177566701Y-74377526D01*
X177475151Y-74334835D01*
X177359170Y-74225023D01*
X177261450Y-73956539D01*
X177279710Y-73797867D01*
X202022971Y-93422028D02*
X203237257Y-93422028D01*
X203380114Y-93350600D01*
X203451542Y-93279171D01*
X203522971Y-93136314D01*
X203522971Y-92850600D01*
X203451542Y-92707742D01*
X203380114Y-92636314D01*
X203237257Y-92564885D01*
X202022971Y-92564885D01*
X203522971Y-90993457D02*
X202808685Y-91493457D01*
X203522971Y-91850600D02*
X202022971Y-91850600D01*
X202022971Y-91279171D01*
X202094400Y-91136314D01*
X202165828Y-91064885D01*
X202308685Y-90993457D01*
X202522971Y-90993457D01*
X202665828Y-91064885D01*
X202737257Y-91136314D01*
X202808685Y-91279171D01*
X202808685Y-91850600D01*
X202022971Y-90064885D02*
X202022971Y-89779171D01*
X202094400Y-89636314D01*
X202237257Y-89493457D01*
X202522971Y-89422028D01*
X203022971Y-89422028D01*
X203308685Y-89493457D01*
X203451542Y-89636314D01*
X203522971Y-89779171D01*
X203522971Y-90064885D01*
X203451542Y-90207742D01*
X203308685Y-90350600D01*
X203022971Y-90422028D01*
X202522971Y-90422028D01*
X202237257Y-90350600D01*
X202094400Y-90207742D01*
X202022971Y-90064885D01*
X203451542Y-88850600D02*
X203522971Y-88636314D01*
X203522971Y-88279171D01*
X203451542Y-88136314D01*
X203380114Y-88064885D01*
X203237257Y-87993457D01*
X203094400Y-87993457D01*
X202951542Y-88064885D01*
X202880114Y-88136314D01*
X202808685Y-88279171D01*
X202737257Y-88564885D01*
X202665828Y-88707742D01*
X202594400Y-88779171D01*
X202451542Y-88850600D01*
X202308685Y-88850600D01*
X202165828Y-88779171D01*
X202094400Y-88707742D01*
X202022971Y-88564885D01*
X202022971Y-88207742D01*
X202094400Y-87993457D01*
X203380114Y-85350600D02*
X203451542Y-85422028D01*
X203522971Y-85636314D01*
X203522971Y-85779171D01*
X203451542Y-85993457D01*
X203308685Y-86136314D01*
X203165828Y-86207742D01*
X202880114Y-86279171D01*
X202665828Y-86279171D01*
X202380114Y-86207742D01*
X202237257Y-86136314D01*
X202094400Y-85993457D01*
X202022971Y-85779171D01*
X202022971Y-85636314D01*
X202094400Y-85422028D01*
X202165828Y-85350600D01*
X202022971Y-84422028D02*
X202022971Y-84136314D01*
X202094400Y-83993457D01*
X202237257Y-83850600D01*
X202522971Y-83779171D01*
X203022971Y-83779171D01*
X203308685Y-83850600D01*
X203451542Y-83993457D01*
X203522971Y-84136314D01*
X203522971Y-84422028D01*
X203451542Y-84564885D01*
X203308685Y-84707742D01*
X203022971Y-84779171D01*
X202522971Y-84779171D01*
X202237257Y-84707742D01*
X202094400Y-84564885D01*
X202022971Y-84422028D01*
X202165828Y-83207742D02*
X202094400Y-83136314D01*
X202022971Y-82993457D01*
X202022971Y-82636314D01*
X202094400Y-82493457D01*
X202165828Y-82422028D01*
X202308685Y-82350600D01*
X202451542Y-82350600D01*
X202665828Y-82422028D01*
X203522971Y-83279171D01*
X203522971Y-82350600D01*
X183091876Y-64378697D02*
X183073615Y-64537368D01*
X183171335Y-64805852D01*
X183287316Y-64915664D01*
X183445988Y-64933925D01*
X183513109Y-64909495D01*
X183622921Y-64793514D01*
X183641181Y-64634842D01*
X183567891Y-64433479D01*
X183586152Y-64274807D01*
X183695964Y-64158827D01*
X183763085Y-64134397D01*
X183921757Y-64152657D01*
X184037738Y-64262469D01*
X184111028Y-64463832D01*
X184092767Y-64622504D01*
X184624058Y-65873371D02*
X183214519Y-66386401D01*
X183751486Y-66190961D02*
X183635505Y-66081149D01*
X183537785Y-65812666D01*
X183556046Y-65653994D01*
X183598737Y-65562443D01*
X183708549Y-65446462D01*
X184111274Y-65299882D01*
X184269946Y-65318143D01*
X184361497Y-65360834D01*
X184477478Y-65470645D01*
X184575198Y-65739129D01*
X184556937Y-65897801D01*
X185088228Y-67148668D02*
X184148536Y-67490688D01*
X184868358Y-66544580D02*
X184130028Y-66813310D01*
X184020216Y-66929291D01*
X184001955Y-67087963D01*
X184075245Y-67289325D01*
X184191226Y-67399137D01*
X184282777Y-67441828D01*
X184612706Y-68765985D02*
X185351036Y-68497255D01*
X185460847Y-68381274D01*
X185479108Y-68222602D01*
X185381388Y-67954119D01*
X185265407Y-67844307D01*
X184679827Y-68741555D02*
X184563846Y-68631743D01*
X184441696Y-68296139D01*
X184459957Y-68137467D01*
X184569768Y-68021486D01*
X184704010Y-67972626D01*
X184862682Y-67990887D01*
X184978663Y-68100699D01*
X185100813Y-68436303D01*
X185216794Y-68546115D01*
X184857006Y-69437194D02*
X185796698Y-69095174D01*
X185528215Y-69192894D02*
X185686887Y-69211155D01*
X185778438Y-69253846D01*
X185894418Y-69363658D01*
X185943279Y-69497899D01*
X185437157Y-70822303D02*
X185321176Y-70712491D01*
X185223456Y-70444008D01*
X185241717Y-70285336D01*
X185351529Y-70169355D01*
X185888496Y-69973915D01*
X186047168Y-69992176D01*
X186163149Y-70101988D01*
X186260869Y-70370471D01*
X186242608Y-70529143D01*
X186132796Y-70645124D01*
X185998554Y-70693984D01*
X185620012Y-70071635D01*
X185657027Y-71426391D02*
X185638766Y-71585063D01*
X185736486Y-71853547D01*
X185852467Y-71963358D01*
X186011139Y-71981619D01*
X186078260Y-71957189D01*
X186188072Y-71841208D01*
X186206332Y-71682537D01*
X186133042Y-71481174D01*
X186151303Y-71322502D01*
X186261115Y-71206521D01*
X186328236Y-71182091D01*
X186486908Y-71200352D01*
X186602889Y-71310164D01*
X186676179Y-71511527D01*
X186657918Y-71670198D01*
X186102936Y-72860360D02*
X186121197Y-72701688D01*
X186163888Y-72610137D01*
X186273700Y-72494157D01*
X186676425Y-72347576D01*
X186835097Y-72365837D01*
X186926648Y-72408528D01*
X187042629Y-72518340D01*
X187115919Y-72719703D01*
X187097658Y-72878375D01*
X187054967Y-72969925D01*
X186945155Y-73085906D01*
X186542430Y-73232486D01*
X186383758Y-73214226D01*
X186292207Y-73171535D01*
X186176226Y-73061723D01*
X186102936Y-72860360D01*
X186567107Y-74135657D02*
X186585367Y-73976986D01*
X186695179Y-73861005D01*
X187903355Y-73421264D01*
X186762547Y-74672625D02*
X187702239Y-74330604D01*
X188172086Y-74159594D02*
X188080535Y-74116903D01*
X188037844Y-74208454D01*
X188129395Y-74251145D01*
X188172086Y-74159594D01*
X188037844Y-74208454D01*
X187226717Y-75947922D02*
X188636256Y-75434891D01*
X187293838Y-75923492D02*
X187177857Y-75813680D01*
X187080137Y-75545196D01*
X187098398Y-75386524D01*
X187141089Y-75294974D01*
X187250900Y-75178993D01*
X187653626Y-75032413D01*
X187812298Y-75050673D01*
X187903848Y-75093364D01*
X188019829Y-75203176D01*
X188117549Y-75471660D01*
X188099289Y-75630332D01*
D11*
%TO.C,U1*%
X198094083Y-56147688D02*
X194558549Y-59683222D01*
X191023015Y-56147688D02*
X193992864Y-53177840D01*
X194558549Y-59683222D02*
X191023015Y-56147688D01*
X193992864Y-53177840D02*
X195124234Y-53177840D01*
X198094083Y-56147688D02*
X195124234Y-53177840D01*
X194858549Y-49960504D02*
G75*
G03X194858549Y-49960504I-300000J0D01*
G01*
X187346060Y-56147688D02*
X188477431Y-57279059D01*
X187346060Y-56147688D02*
X188477431Y-55016317D01*
X194558549Y-63360177D02*
X195689920Y-62228806D01*
X194558549Y-63360177D02*
X193427178Y-62228806D01*
X201771038Y-56147688D02*
X200639667Y-55016317D01*
X201771038Y-56147688D02*
X200639667Y-57279059D01*
X194558549Y-48935199D02*
X193427178Y-50066570D01*
X194558549Y-48935199D02*
X195689920Y-50066570D01*
D12*
%TO.C,R1*%
X193359379Y-70076245D02*
X192331155Y-69048021D01*
X192072445Y-71363179D02*
X191044221Y-70334955D01*
%TO.C,R2*%
X192275645Y-65546579D02*
X191247421Y-64518355D01*
X193562579Y-64259645D02*
X192534355Y-63231421D01*
%TO.C,R3*%
X189690650Y-50515798D02*
X188662426Y-51544022D01*
X190977584Y-51802732D02*
X189949360Y-52830956D01*
D13*
%TO.C,CONN1*%
X200773801Y-101970722D02*
X204214240Y-99561701D01*
X202567013Y-95465770D02*
X204058312Y-97595566D01*
X201584031Y-96154062D02*
X202567013Y-95465770D01*
X197570186Y-98964587D02*
X198471253Y-98333653D01*
X199061484Y-101094382D02*
X197570186Y-98964587D01*
D11*
%TO.C,U1*%
X167284917Y-93280512D02*
X170820451Y-89744978D01*
X174355985Y-93280512D02*
X171386136Y-96250360D01*
X170820451Y-89744978D02*
X174355985Y-93280512D01*
X171386136Y-96250360D02*
X170254766Y-96250360D01*
X167284917Y-93280512D02*
X170254766Y-96250360D01*
X171120451Y-99467696D02*
G75*
G03X171120451Y-99467696I-300000J0D01*
G01*
X178032940Y-93280512D02*
X176901569Y-92149141D01*
X178032940Y-93280512D02*
X176901569Y-94411883D01*
X170820451Y-86068023D02*
X169689080Y-87199394D01*
X170820451Y-86068023D02*
X171951822Y-87199394D01*
X163607962Y-93280512D02*
X164739333Y-94411883D01*
X163607962Y-93280512D02*
X164739333Y-92149141D01*
X170820451Y-100493001D02*
X171951822Y-99361630D01*
X170820451Y-100493001D02*
X169689080Y-99361630D01*
D13*
%TO.C,CONN1*%
X164605199Y-47457478D02*
X161164760Y-49866499D01*
X162811987Y-53962430D02*
X161320688Y-51832634D01*
X163794969Y-53274138D02*
X162811987Y-53962430D01*
X167808814Y-50463613D02*
X166907747Y-51094547D01*
X166317516Y-48333818D02*
X167808814Y-50463613D01*
D12*
%TO.C,R3*%
X175688350Y-98912402D02*
X176716574Y-97884178D01*
X174401416Y-97625468D02*
X175429640Y-96597244D01*
%TO.C,R2*%
X173103355Y-83881621D02*
X174131579Y-84909845D01*
X171816421Y-85168555D02*
X172844645Y-86196779D01*
%TO.C,R1*%
X172019621Y-79351955D02*
X173047845Y-80380179D01*
X173306555Y-78065021D02*
X174334779Y-79093245D01*
X138605445Y-74487379D02*
X137577221Y-73459155D01*
X139892379Y-73200445D02*
X138864155Y-72172221D01*
%TO.C,R2*%
X140095579Y-67383845D02*
X139067355Y-66355621D01*
X138808645Y-68670779D02*
X137780421Y-67642555D01*
%TO.C,R3*%
X137510584Y-54926932D02*
X136482360Y-55955156D01*
X136223650Y-53639998D02*
X135195426Y-54668222D01*
D13*
%TO.C,CONN1*%
X145594484Y-104218582D02*
X144103186Y-102088787D01*
X144103186Y-102088787D02*
X145004253Y-101457853D01*
X148117031Y-99278262D02*
X149100013Y-98589970D01*
X149100013Y-98589970D02*
X150591312Y-100719766D01*
X147306801Y-105094922D02*
X150747240Y-102685901D01*
D11*
%TO.C,U1*%
X141091549Y-52059399D02*
X142222920Y-53190770D01*
X141091549Y-52059399D02*
X139960178Y-53190770D01*
X148304038Y-59271888D02*
X147172667Y-60403259D01*
X148304038Y-59271888D02*
X147172667Y-58140517D01*
X141091549Y-66484377D02*
X139960178Y-65353006D01*
X141091549Y-66484377D02*
X142222920Y-65353006D01*
X133879060Y-59271888D02*
X135010431Y-58140517D01*
X133879060Y-59271888D02*
X135010431Y-60403259D01*
X141391549Y-53084704D02*
G75*
G03X141391549Y-53084704I-300000J0D01*
G01*
X144627083Y-59271888D02*
X141657234Y-56302040D01*
X140525864Y-56302040D02*
X141657234Y-56302040D01*
X141091549Y-62807422D02*
X137556015Y-59271888D01*
X137556015Y-59271888D02*
X140525864Y-56302040D01*
X144627083Y-59271888D02*
X141091549Y-62807422D01*
%TD*%
%TO.C,R1*%
D14*
X191787637Y-70431200D02*
X191935793Y-69905921D01*
X191464388Y-70107951D02*
X192171495Y-69400845D01*
X192386994Y-69616344D01*
X192407197Y-69703890D01*
X192400463Y-69764500D01*
X192360057Y-69858780D01*
X192259041Y-69959796D01*
X192164761Y-70000202D01*
X192104151Y-70006936D01*
X192016605Y-69986733D01*
X191801106Y-69771234D01*
X192326385Y-70969948D02*
X192003136Y-70646699D01*
X192164761Y-70808324D02*
X192871867Y-70101217D01*
X192716977Y-70148358D01*
X192595759Y-70161826D01*
X192508212Y-70141623D01*
%TO.C,R2*%
X191990837Y-64614600D02*
X192138993Y-64089321D01*
X191667588Y-64291351D02*
X192374695Y-63584245D01*
X192590194Y-63799744D01*
X192610397Y-63887290D01*
X192603663Y-63947900D01*
X192563257Y-64042180D01*
X192462241Y-64143196D01*
X192367961Y-64183602D01*
X192307351Y-64190336D01*
X192219805Y-64170133D01*
X192004306Y-63954634D01*
X192846099Y-64190336D02*
X192906709Y-64183602D01*
X192994255Y-64203805D01*
X193128942Y-64338492D01*
X193149145Y-64426038D01*
X193142411Y-64486648D01*
X193102005Y-64580928D01*
X193034661Y-64648272D01*
X192906709Y-64722350D01*
X192179399Y-64803162D01*
X192529585Y-65153348D01*
%TO.C,R3*%
X190045605Y-52087539D02*
X189520326Y-51939383D01*
X189722356Y-52410788D02*
X189015250Y-51703681D01*
X189230749Y-51488182D01*
X189318295Y-51467979D01*
X189378905Y-51474713D01*
X189473185Y-51515119D01*
X189574201Y-51616135D01*
X189614607Y-51710415D01*
X189621341Y-51771025D01*
X189601138Y-51858571D01*
X189385639Y-52074070D01*
X189527060Y-51191870D02*
X189877246Y-50841684D01*
X189958059Y-51299620D01*
X190038871Y-51218808D01*
X190126417Y-51198605D01*
X190187027Y-51205339D01*
X190281307Y-51245745D01*
X190449666Y-51414104D01*
X190490072Y-51508385D01*
X190496807Y-51568994D01*
X190476604Y-51656541D01*
X190314979Y-51818165D01*
X190227433Y-51838368D01*
X190166824Y-51831634D01*
X175784595Y-98168985D02*
X175259316Y-98020829D01*
X175461346Y-98492234D02*
X174754240Y-97785127D01*
X174969739Y-97569628D01*
X175057285Y-97549425D01*
X175117895Y-97556159D01*
X175212175Y-97596565D01*
X175313191Y-97697581D01*
X175353597Y-97791861D01*
X175360331Y-97852471D01*
X175340128Y-97940017D01*
X175124629Y-98155516D01*
X175266050Y-97273316D02*
X175616236Y-96923130D01*
X175697049Y-97381066D01*
X175777861Y-97300254D01*
X175865407Y-97280051D01*
X175926017Y-97286785D01*
X176020297Y-97327191D01*
X176188656Y-97495550D01*
X176229062Y-97589831D01*
X176235797Y-97650440D01*
X176215594Y-97737987D01*
X176053969Y-97899611D01*
X175966423Y-97919814D01*
X175905814Y-97913080D01*
%TO.C,R2*%
X172559837Y-85264800D02*
X172707993Y-84739521D01*
X172236588Y-84941551D02*
X172943695Y-84234445D01*
X173159194Y-84449944D01*
X173179397Y-84537490D01*
X173172663Y-84598100D01*
X173132257Y-84692380D01*
X173031241Y-84793396D01*
X172936961Y-84833802D01*
X172876351Y-84840536D01*
X172788805Y-84820333D01*
X172573306Y-84604834D01*
X173415099Y-84840536D02*
X173475709Y-84833802D01*
X173563255Y-84854005D01*
X173697942Y-84988692D01*
X173718145Y-85076238D01*
X173711411Y-85136848D01*
X173671005Y-85231128D01*
X173603661Y-85298472D01*
X173475709Y-85372550D01*
X172748399Y-85453362D01*
X173098585Y-85803548D01*
%TO.C,R1*%
X172763037Y-79448200D02*
X172911193Y-78922921D01*
X172439788Y-79124951D02*
X173146895Y-78417845D01*
X173362394Y-78633344D01*
X173382597Y-78720890D01*
X173375863Y-78781500D01*
X173335457Y-78875780D01*
X173234441Y-78976796D01*
X173140161Y-79017202D01*
X173079551Y-79023936D01*
X172992005Y-79003733D01*
X172776506Y-78788234D01*
X173301785Y-79986948D02*
X172978536Y-79663699D01*
X173140161Y-79825324D02*
X173847267Y-79118217D01*
X173692377Y-79165358D01*
X173571159Y-79178826D01*
X173483612Y-79158623D01*
X138320637Y-73555400D02*
X138468793Y-73030121D01*
X137997388Y-73232151D02*
X138704495Y-72525045D01*
X138919994Y-72740544D01*
X138940197Y-72828090D01*
X138933463Y-72888700D01*
X138893057Y-72982980D01*
X138792041Y-73083996D01*
X138697761Y-73124402D01*
X138637151Y-73131136D01*
X138549605Y-73110933D01*
X138334106Y-72895434D01*
X138859385Y-74094148D02*
X138536136Y-73770899D01*
X138697761Y-73932524D02*
X139404867Y-73225417D01*
X139249977Y-73272558D01*
X139128759Y-73286026D01*
X139041212Y-73265823D01*
%TO.C,R2*%
X138523837Y-67738800D02*
X138671993Y-67213521D01*
X138200588Y-67415551D02*
X138907695Y-66708445D01*
X139123194Y-66923944D01*
X139143397Y-67011490D01*
X139136663Y-67072100D01*
X139096257Y-67166380D01*
X138995241Y-67267396D01*
X138900961Y-67307802D01*
X138840351Y-67314536D01*
X138752805Y-67294333D01*
X138537306Y-67078834D01*
X139379099Y-67314536D02*
X139439709Y-67307802D01*
X139527255Y-67328005D01*
X139661942Y-67462692D01*
X139682145Y-67550238D01*
X139675411Y-67610848D01*
X139635005Y-67705128D01*
X139567661Y-67772472D01*
X139439709Y-67846550D01*
X138712399Y-67927362D01*
X139062585Y-68277548D01*
%TO.C,R3*%
X136578605Y-55211739D02*
X136053326Y-55063583D01*
X136255356Y-55534988D02*
X135548250Y-54827881D01*
X135763749Y-54612382D01*
X135851295Y-54592179D01*
X135911905Y-54598913D01*
X136006185Y-54639319D01*
X136107201Y-54740335D01*
X136147607Y-54834615D01*
X136154341Y-54895225D01*
X136134138Y-54982771D01*
X135918639Y-55198270D01*
X136060060Y-54316070D02*
X136410246Y-53965884D01*
X136491059Y-54423820D01*
X136571871Y-54343008D01*
X136659417Y-54322805D01*
X136720027Y-54329539D01*
X136814307Y-54369945D01*
X136982666Y-54538304D01*
X137023072Y-54632585D01*
X137029807Y-54693194D01*
X137009604Y-54780741D01*
X136847979Y-54942365D01*
X136760433Y-54962568D01*
X136699824Y-54955834D01*
%TD*%
D15*
G36*
X139494896Y-42211966D02*
X140524754Y-42488269D01*
X141732933Y-42941336D01*
X142362843Y-43243693D01*
X142363198Y-43243863D01*
X142893445Y-43496362D01*
X143068357Y-43591768D01*
X142973477Y-43813152D01*
X142861043Y-43906847D01*
X142763273Y-43943511D01*
X142736203Y-43902997D01*
X142695001Y-43875467D01*
X142646400Y-43865800D01*
X142597799Y-43875467D01*
X142556597Y-43902997D01*
X142529067Y-43944199D01*
X142528193Y-43948593D01*
X142452966Y-43967400D01*
X142367000Y-43967400D01*
X142342093Y-43969866D01*
X142215093Y-43995266D01*
X142169553Y-44014130D01*
X142107506Y-44055495D01*
X141971239Y-44100917D01*
X141954604Y-44107808D01*
X141903804Y-44133208D01*
X141864657Y-44163589D01*
X141847008Y-44190004D01*
X141811291Y-44261438D01*
X141763153Y-44293530D01*
X141728077Y-44328532D01*
X141713117Y-44359039D01*
X141690570Y-44426680D01*
X141618408Y-44571004D01*
X141608792Y-44596998D01*
X141583392Y-44698598D01*
X141583392Y-44760202D01*
X141659592Y-45065002D01*
X141680758Y-45109807D01*
X141738207Y-45153114D01*
X141941407Y-45229314D01*
X141949507Y-45232044D01*
X142172837Y-45299043D01*
X142230598Y-45356804D01*
X142247096Y-45406298D01*
X142088568Y-45564826D01*
X142072431Y-45572895D01*
X141822152Y-45618400D01*
X141554200Y-45618400D01*
X141502084Y-45629586D01*
X140994084Y-45858186D01*
X140941180Y-45902587D01*
X140527994Y-46510213D01*
X140151204Y-46698608D01*
X140112057Y-46728989D01*
X140087517Y-46772039D01*
X140040694Y-46912509D01*
X139945333Y-47079390D01*
X139928767Y-47135896D01*
X139877967Y-48126496D01*
X139883695Y-48171244D01*
X140036095Y-48653844D01*
X140039969Y-48664446D01*
X140166969Y-48969246D01*
X140194586Y-49010390D01*
X140221190Y-49030667D01*
X140347631Y-49102919D01*
X140379172Y-49276393D01*
X139921920Y-50022435D01*
X139903255Y-50085066D01*
X139878492Y-50927021D01*
X139378265Y-52227610D01*
X139370577Y-52259175D01*
X139294377Y-52944975D01*
X139293974Y-52968740D01*
X139365694Y-53901100D01*
X137476597Y-55790197D01*
X137442288Y-55853070D01*
X136865397Y-58511783D01*
X136319800Y-59104824D01*
X135530472Y-59511447D01*
X134541183Y-59487318D01*
X133086601Y-58985738D01*
X133013681Y-58982773D01*
X131527035Y-59363649D01*
X130924184Y-59016877D01*
X131038019Y-57644862D01*
X131045952Y-57573463D01*
X131826274Y-57573463D01*
X131832730Y-57622593D01*
X131873664Y-57680970D01*
X132381664Y-58087370D01*
X132425654Y-58110182D01*
X132465231Y-58115130D01*
X133186481Y-58091088D01*
X133685953Y-58424070D01*
X133711807Y-58437314D01*
X134321407Y-58665914D01*
X134370308Y-58673927D01*
X134411590Y-58665535D01*
X135402190Y-58284535D01*
X135452791Y-58248923D01*
X136087791Y-57512323D01*
X136096792Y-57500559D01*
X136680992Y-56636959D01*
X136697184Y-56603149D01*
X136900384Y-55942749D01*
X136906000Y-55905400D01*
X136906000Y-55406335D01*
X137244300Y-54826392D01*
X137260438Y-54779540D01*
X137250845Y-54711252D01*
X136971445Y-54076252D01*
X136943023Y-54035661D01*
X136920541Y-54018498D01*
X135971435Y-53449034D01*
X136042077Y-52460048D01*
X136035897Y-52410882D01*
X136011373Y-52367824D01*
X135972237Y-52337428D01*
X135948816Y-52328475D01*
X135758165Y-52276479D01*
X135686636Y-50869751D01*
X135674513Y-50821704D01*
X135635581Y-50774287D01*
X134644981Y-50037687D01*
X134600212Y-50016445D01*
X134550722Y-50013951D01*
X134494843Y-50036644D01*
X133580443Y-50697044D01*
X133546703Y-50733336D01*
X133528893Y-50783371D01*
X133351093Y-52129571D01*
X133350196Y-52153245D01*
X133448786Y-53927866D01*
X132749256Y-54675639D01*
X132744088Y-54681516D01*
X131906518Y-55695417D01*
X131948185Y-55720418D01*
X131826274Y-57573463D01*
X131045952Y-57573463D01*
X131145638Y-56676290D01*
X131261104Y-56676290D01*
X131368800Y-56743600D01*
X131494205Y-56723535D01*
X131440675Y-56388976D01*
X131261104Y-56676290D01*
X131145638Y-56676290D01*
X131278396Y-55481469D01*
X131292292Y-55482439D01*
X131293305Y-55467913D01*
X131291005Y-55453535D01*
X131281328Y-55455083D01*
X131295367Y-55328727D01*
X131302709Y-55333132D01*
X131315924Y-55143720D01*
X131317223Y-55132025D01*
X131316743Y-55131972D01*
X131367948Y-54398041D01*
X131568460Y-53370415D01*
X132226448Y-51168685D01*
X132961157Y-48989894D01*
X134177299Y-45974877D01*
X134708718Y-44886732D01*
X134721359Y-44838819D01*
X134714702Y-44789715D01*
X134689761Y-44746896D01*
X134650332Y-44716882D01*
X134602419Y-44704241D01*
X134558107Y-44709356D01*
X134050107Y-44861756D01*
X134040162Y-44865195D01*
X133328962Y-45144595D01*
X133300913Y-45159937D01*
X132779162Y-45537757D01*
X133094607Y-45239837D01*
X134585205Y-44444851D01*
X135021879Y-44372072D01*
X135068229Y-44354546D01*
X135092546Y-44334825D01*
X136351119Y-43025909D01*
X137485675Y-42335310D01*
X138786618Y-42089849D01*
X139494896Y-42211966D01*
X139494896Y-42211966D01*
G37*
X139494896Y-42211966D02*
X140524754Y-42488269D01*
X141732933Y-42941336D01*
X142362843Y-43243693D01*
X142363198Y-43243863D01*
X142893445Y-43496362D01*
X143068357Y-43591768D01*
X142973477Y-43813152D01*
X142861043Y-43906847D01*
X142763273Y-43943511D01*
X142736203Y-43902997D01*
X142695001Y-43875467D01*
X142646400Y-43865800D01*
X142597799Y-43875467D01*
X142556597Y-43902997D01*
X142529067Y-43944199D01*
X142528193Y-43948593D01*
X142452966Y-43967400D01*
X142367000Y-43967400D01*
X142342093Y-43969866D01*
X142215093Y-43995266D01*
X142169553Y-44014130D01*
X142107506Y-44055495D01*
X141971239Y-44100917D01*
X141954604Y-44107808D01*
X141903804Y-44133208D01*
X141864657Y-44163589D01*
X141847008Y-44190004D01*
X141811291Y-44261438D01*
X141763153Y-44293530D01*
X141728077Y-44328532D01*
X141713117Y-44359039D01*
X141690570Y-44426680D01*
X141618408Y-44571004D01*
X141608792Y-44596998D01*
X141583392Y-44698598D01*
X141583392Y-44760202D01*
X141659592Y-45065002D01*
X141680758Y-45109807D01*
X141738207Y-45153114D01*
X141941407Y-45229314D01*
X141949507Y-45232044D01*
X142172837Y-45299043D01*
X142230598Y-45356804D01*
X142247096Y-45406298D01*
X142088568Y-45564826D01*
X142072431Y-45572895D01*
X141822152Y-45618400D01*
X141554200Y-45618400D01*
X141502084Y-45629586D01*
X140994084Y-45858186D01*
X140941180Y-45902587D01*
X140527994Y-46510213D01*
X140151204Y-46698608D01*
X140112057Y-46728989D01*
X140087517Y-46772039D01*
X140040694Y-46912509D01*
X139945333Y-47079390D01*
X139928767Y-47135896D01*
X139877967Y-48126496D01*
X139883695Y-48171244D01*
X140036095Y-48653844D01*
X140039969Y-48664446D01*
X140166969Y-48969246D01*
X140194586Y-49010390D01*
X140221190Y-49030667D01*
X140347631Y-49102919D01*
X140379172Y-49276393D01*
X139921920Y-50022435D01*
X139903255Y-50085066D01*
X139878492Y-50927021D01*
X139378265Y-52227610D01*
X139370577Y-52259175D01*
X139294377Y-52944975D01*
X139293974Y-52968740D01*
X139365694Y-53901100D01*
X137476597Y-55790197D01*
X137442288Y-55853070D01*
X136865397Y-58511783D01*
X136319800Y-59104824D01*
X135530472Y-59511447D01*
X134541183Y-59487318D01*
X133086601Y-58985738D01*
X133013681Y-58982773D01*
X131527035Y-59363649D01*
X130924184Y-59016877D01*
X131038019Y-57644862D01*
X131045952Y-57573463D01*
X131826274Y-57573463D01*
X131832730Y-57622593D01*
X131873664Y-57680970D01*
X132381664Y-58087370D01*
X132425654Y-58110182D01*
X132465231Y-58115130D01*
X133186481Y-58091088D01*
X133685953Y-58424070D01*
X133711807Y-58437314D01*
X134321407Y-58665914D01*
X134370308Y-58673927D01*
X134411590Y-58665535D01*
X135402190Y-58284535D01*
X135452791Y-58248923D01*
X136087791Y-57512323D01*
X136096792Y-57500559D01*
X136680992Y-56636959D01*
X136697184Y-56603149D01*
X136900384Y-55942749D01*
X136906000Y-55905400D01*
X136906000Y-55406335D01*
X137244300Y-54826392D01*
X137260438Y-54779540D01*
X137250845Y-54711252D01*
X136971445Y-54076252D01*
X136943023Y-54035661D01*
X136920541Y-54018498D01*
X135971435Y-53449034D01*
X136042077Y-52460048D01*
X136035897Y-52410882D01*
X136011373Y-52367824D01*
X135972237Y-52337428D01*
X135948816Y-52328475D01*
X135758165Y-52276479D01*
X135686636Y-50869751D01*
X135674513Y-50821704D01*
X135635581Y-50774287D01*
X134644981Y-50037687D01*
X134600212Y-50016445D01*
X134550722Y-50013951D01*
X134494843Y-50036644D01*
X133580443Y-50697044D01*
X133546703Y-50733336D01*
X133528893Y-50783371D01*
X133351093Y-52129571D01*
X133350196Y-52153245D01*
X133448786Y-53927866D01*
X132749256Y-54675639D01*
X132744088Y-54681516D01*
X131906518Y-55695417D01*
X131948185Y-55720418D01*
X131826274Y-57573463D01*
X131045952Y-57573463D01*
X131145638Y-56676290D01*
X131261104Y-56676290D01*
X131368800Y-56743600D01*
X131494205Y-56723535D01*
X131440675Y-56388976D01*
X131261104Y-56676290D01*
X131145638Y-56676290D01*
X131278396Y-55481469D01*
X131292292Y-55482439D01*
X131293305Y-55467913D01*
X131291005Y-55453535D01*
X131281328Y-55455083D01*
X131295367Y-55328727D01*
X131302709Y-55333132D01*
X131315924Y-55143720D01*
X131317223Y-55132025D01*
X131316743Y-55131972D01*
X131367948Y-54398041D01*
X131568460Y-53370415D01*
X132226448Y-51168685D01*
X132961157Y-48989894D01*
X134177299Y-45974877D01*
X134708718Y-44886732D01*
X134721359Y-44838819D01*
X134714702Y-44789715D01*
X134689761Y-44746896D01*
X134650332Y-44716882D01*
X134602419Y-44704241D01*
X134558107Y-44709356D01*
X134050107Y-44861756D01*
X134040162Y-44865195D01*
X133328962Y-45144595D01*
X133300913Y-45159937D01*
X132779162Y-45537757D01*
X133094607Y-45239837D01*
X134585205Y-44444851D01*
X135021879Y-44372072D01*
X135068229Y-44354546D01*
X135092546Y-44334825D01*
X136351119Y-43025909D01*
X137485675Y-42335310D01*
X138786618Y-42089849D01*
X139494896Y-42211966D01*
G36*
X151828203Y-58668143D02*
X152533744Y-58920122D01*
X153392708Y-59248549D01*
X154117055Y-59573257D01*
X154616186Y-59897692D01*
X155748086Y-60652292D01*
X155993197Y-60897403D01*
X155998041Y-60901998D01*
X156464000Y-61321361D01*
X156464000Y-61487063D01*
X156440150Y-61725568D01*
X156400124Y-61885670D01*
X156360594Y-61925200D01*
X156346029Y-61925200D01*
X156202549Y-61904703D01*
X156097541Y-61841698D01*
X156063002Y-61827392D01*
X155866823Y-61778347D01*
X155692514Y-61712981D01*
X155481574Y-61525479D01*
X155467647Y-61514730D01*
X155010447Y-61209930D01*
X155003632Y-61205691D01*
X154521032Y-60926291D01*
X154506246Y-60918969D01*
X153896646Y-60664969D01*
X153880523Y-60659488D01*
X153499523Y-60557888D01*
X153466800Y-60553600D01*
X153390600Y-60553600D01*
X153341999Y-60563267D01*
X153300797Y-60590797D01*
X153273267Y-60631999D01*
X153265328Y-60701479D01*
X153290728Y-60853879D01*
X153310330Y-60903447D01*
X153361130Y-60979647D01*
X153396132Y-61014723D01*
X153431910Y-61031314D01*
X154294631Y-61277806D01*
X154603965Y-61539550D01*
X154613170Y-61546642D01*
X155091524Y-61881490D01*
X155226195Y-62195721D01*
X155286234Y-62415864D01*
X155229810Y-62514605D01*
X155087820Y-62585600D01*
X154898229Y-62585600D01*
X154749760Y-62564390D01*
X154615796Y-62497408D01*
X154609028Y-62494269D01*
X154453710Y-62427704D01*
X154318603Y-62292597D01*
X154299247Y-62276730D01*
X154070647Y-62124330D01*
X154056996Y-62116408D01*
X153853796Y-62014808D01*
X153849553Y-62012783D01*
X153576738Y-61888776D01*
X153455941Y-61816298D01*
X153430761Y-61804717D01*
X153354561Y-61779317D01*
X153305397Y-61773120D01*
X153257604Y-61786208D01*
X153224597Y-61809997D01*
X153122997Y-61911597D01*
X153099208Y-61944604D01*
X153023008Y-62097004D01*
X153009600Y-62153800D01*
X153009600Y-62306200D01*
X153016117Y-62346361D01*
X153066917Y-62498761D01*
X153071346Y-62510180D01*
X153172946Y-62738780D01*
X153183330Y-62757647D01*
X153304566Y-62939501D01*
X153259782Y-63118637D01*
X153185208Y-63139944D01*
X153015002Y-63097392D01*
X153005079Y-63095328D01*
X152883225Y-63075019D01*
X152706376Y-62942382D01*
X152580936Y-62842030D01*
X152577800Y-62839600D01*
X152476200Y-62763400D01*
X152431519Y-62741973D01*
X152400000Y-62738000D01*
X152273000Y-62738000D01*
X152255039Y-62739276D01*
X152079182Y-62764399D01*
X151866600Y-62788019D01*
X151679574Y-62767238D01*
X151589749Y-62713342D01*
X151500993Y-62624587D01*
X151484352Y-62541383D01*
X151459948Y-62297339D01*
X151434800Y-61668649D01*
X151434800Y-61309690D01*
X151663400Y-61290640D01*
X152260298Y-61340381D01*
X152678336Y-61389562D01*
X153398316Y-61613004D01*
X153817994Y-61785813D01*
X154268723Y-62036218D01*
X154270189Y-62037020D01*
X154600116Y-62214673D01*
X154879186Y-62366893D01*
X154926481Y-62381678D01*
X154996796Y-62368992D01*
X155047596Y-62343592D01*
X155086743Y-62313211D01*
X155111283Y-62270161D01*
X155117480Y-62220997D01*
X155099702Y-62164659D01*
X155023502Y-62037659D01*
X154991746Y-62002117D01*
X154559946Y-61671917D01*
X154544477Y-61661782D01*
X154315877Y-61534782D01*
X154308567Y-61531025D01*
X153825967Y-61302425D01*
X153813868Y-61297440D01*
X153382068Y-61145040D01*
X153374043Y-61142504D01*
X152739043Y-60964704D01*
X152727518Y-60962049D01*
X152168718Y-60860449D01*
X152152342Y-60858558D01*
X151646902Y-60833286D01*
X151399032Y-60810752D01*
X151343737Y-60777576D01*
X151308965Y-60621100D01*
X151326834Y-60406673D01*
X151396960Y-60371610D01*
X152429801Y-60224061D01*
X153439957Y-60297975D01*
X153697806Y-60391738D01*
X154351586Y-60693483D01*
X154900235Y-60967807D01*
X155400570Y-61318042D01*
X155405583Y-61321377D01*
X155888183Y-61626177D01*
X155925198Y-61642008D01*
X156022062Y-61666224D01*
X156093639Y-61690083D01*
X156142803Y-61696280D01*
X156190596Y-61683192D01*
X156229743Y-61652811D01*
X156254283Y-61609761D01*
X156260800Y-61569600D01*
X156260800Y-61518800D01*
X156251133Y-61470199D01*
X156230226Y-61436149D01*
X156077826Y-61258349D01*
X156066359Y-61246602D01*
X155812359Y-61018002D01*
X155795583Y-61005255D01*
X155239139Y-60651154D01*
X154987430Y-60474958D01*
X154978826Y-60469437D01*
X154242226Y-60037637D01*
X154213835Y-60025361D01*
X153782035Y-59898361D01*
X153773750Y-59896224D01*
X153316550Y-59794624D01*
X153304752Y-59792581D01*
X152695152Y-59716381D01*
X152671478Y-59715647D01*
X152269030Y-59740800D01*
X151815800Y-59740800D01*
X151807878Y-59741047D01*
X151401478Y-59766447D01*
X151369239Y-59772717D01*
X151289065Y-59799442D01*
X151077340Y-58576141D01*
X151075408Y-58566998D01*
X151053800Y-58480566D01*
X151053800Y-58453031D01*
X151828203Y-58668143D01*
X151828203Y-58668143D01*
G37*
X151828203Y-58668143D02*
X152533744Y-58920122D01*
X153392708Y-59248549D01*
X154117055Y-59573257D01*
X154616186Y-59897692D01*
X155748086Y-60652292D01*
X155993197Y-60897403D01*
X155998041Y-60901998D01*
X156464000Y-61321361D01*
X156464000Y-61487063D01*
X156440150Y-61725568D01*
X156400124Y-61885670D01*
X156360594Y-61925200D01*
X156346029Y-61925200D01*
X156202549Y-61904703D01*
X156097541Y-61841698D01*
X156063002Y-61827392D01*
X155866823Y-61778347D01*
X155692514Y-61712981D01*
X155481574Y-61525479D01*
X155467647Y-61514730D01*
X155010447Y-61209930D01*
X155003632Y-61205691D01*
X154521032Y-60926291D01*
X154506246Y-60918969D01*
X153896646Y-60664969D01*
X153880523Y-60659488D01*
X153499523Y-60557888D01*
X153466800Y-60553600D01*
X153390600Y-60553600D01*
X153341999Y-60563267D01*
X153300797Y-60590797D01*
X153273267Y-60631999D01*
X153265328Y-60701479D01*
X153290728Y-60853879D01*
X153310330Y-60903447D01*
X153361130Y-60979647D01*
X153396132Y-61014723D01*
X153431910Y-61031314D01*
X154294631Y-61277806D01*
X154603965Y-61539550D01*
X154613170Y-61546642D01*
X155091524Y-61881490D01*
X155226195Y-62195721D01*
X155286234Y-62415864D01*
X155229810Y-62514605D01*
X155087820Y-62585600D01*
X154898229Y-62585600D01*
X154749760Y-62564390D01*
X154615796Y-62497408D01*
X154609028Y-62494269D01*
X154453710Y-62427704D01*
X154318603Y-62292597D01*
X154299247Y-62276730D01*
X154070647Y-62124330D01*
X154056996Y-62116408D01*
X153853796Y-62014808D01*
X153849553Y-62012783D01*
X153576738Y-61888776D01*
X153455941Y-61816298D01*
X153430761Y-61804717D01*
X153354561Y-61779317D01*
X153305397Y-61773120D01*
X153257604Y-61786208D01*
X153224597Y-61809997D01*
X153122997Y-61911597D01*
X153099208Y-61944604D01*
X153023008Y-62097004D01*
X153009600Y-62153800D01*
X153009600Y-62306200D01*
X153016117Y-62346361D01*
X153066917Y-62498761D01*
X153071346Y-62510180D01*
X153172946Y-62738780D01*
X153183330Y-62757647D01*
X153304566Y-62939501D01*
X153259782Y-63118637D01*
X153185208Y-63139944D01*
X153015002Y-63097392D01*
X153005079Y-63095328D01*
X152883225Y-63075019D01*
X152706376Y-62942382D01*
X152580936Y-62842030D01*
X152577800Y-62839600D01*
X152476200Y-62763400D01*
X152431519Y-62741973D01*
X152400000Y-62738000D01*
X152273000Y-62738000D01*
X152255039Y-62739276D01*
X152079182Y-62764399D01*
X151866600Y-62788019D01*
X151679574Y-62767238D01*
X151589749Y-62713342D01*
X151500993Y-62624587D01*
X151484352Y-62541383D01*
X151459948Y-62297339D01*
X151434800Y-61668649D01*
X151434800Y-61309690D01*
X151663400Y-61290640D01*
X152260298Y-61340381D01*
X152678336Y-61389562D01*
X153398316Y-61613004D01*
X153817994Y-61785813D01*
X154268723Y-62036218D01*
X154270189Y-62037020D01*
X154600116Y-62214673D01*
X154879186Y-62366893D01*
X154926481Y-62381678D01*
X154996796Y-62368992D01*
X155047596Y-62343592D01*
X155086743Y-62313211D01*
X155111283Y-62270161D01*
X155117480Y-62220997D01*
X155099702Y-62164659D01*
X155023502Y-62037659D01*
X154991746Y-62002117D01*
X154559946Y-61671917D01*
X154544477Y-61661782D01*
X154315877Y-61534782D01*
X154308567Y-61531025D01*
X153825967Y-61302425D01*
X153813868Y-61297440D01*
X153382068Y-61145040D01*
X153374043Y-61142504D01*
X152739043Y-60964704D01*
X152727518Y-60962049D01*
X152168718Y-60860449D01*
X152152342Y-60858558D01*
X151646902Y-60833286D01*
X151399032Y-60810752D01*
X151343737Y-60777576D01*
X151308965Y-60621100D01*
X151326834Y-60406673D01*
X151396960Y-60371610D01*
X152429801Y-60224061D01*
X153439957Y-60297975D01*
X153697806Y-60391738D01*
X154351586Y-60693483D01*
X154900235Y-60967807D01*
X155400570Y-61318042D01*
X155405583Y-61321377D01*
X155888183Y-61626177D01*
X155925198Y-61642008D01*
X156022062Y-61666224D01*
X156093639Y-61690083D01*
X156142803Y-61696280D01*
X156190596Y-61683192D01*
X156229743Y-61652811D01*
X156254283Y-61609761D01*
X156260800Y-61569600D01*
X156260800Y-61518800D01*
X156251133Y-61470199D01*
X156230226Y-61436149D01*
X156077826Y-61258349D01*
X156066359Y-61246602D01*
X155812359Y-61018002D01*
X155795583Y-61005255D01*
X155239139Y-60651154D01*
X154987430Y-60474958D01*
X154978826Y-60469437D01*
X154242226Y-60037637D01*
X154213835Y-60025361D01*
X153782035Y-59898361D01*
X153773750Y-59896224D01*
X153316550Y-59794624D01*
X153304752Y-59792581D01*
X152695152Y-59716381D01*
X152671478Y-59715647D01*
X152269030Y-59740800D01*
X151815800Y-59740800D01*
X151807878Y-59741047D01*
X151401478Y-59766447D01*
X151369239Y-59772717D01*
X151289065Y-59799442D01*
X151077340Y-58576141D01*
X151075408Y-58566998D01*
X151053800Y-58480566D01*
X151053800Y-58453031D01*
X151828203Y-58668143D01*
G36*
X137967481Y-65047116D02*
X137932946Y-65124820D01*
X137923728Y-65197279D01*
X137999928Y-65654479D01*
X138017454Y-65700829D01*
X138051383Y-65736944D01*
X138109118Y-65759578D01*
X139268817Y-65907625D01*
X139901967Y-66394663D01*
X139956682Y-66418951D01*
X140503742Y-66518416D01*
X141153010Y-66768135D01*
X141208728Y-66776196D01*
X142415074Y-66679688D01*
X142550823Y-66834830D01*
X142590102Y-66865040D01*
X142637952Y-66877919D01*
X142687088Y-66871506D01*
X142728637Y-66847579D01*
X142857228Y-66989029D01*
X142864546Y-66996444D01*
X143221145Y-67329270D01*
X143326857Y-67664025D01*
X143161799Y-67724046D01*
X143121865Y-67747565D01*
X142601789Y-68199805D01*
X142427224Y-68112522D01*
X141287535Y-67454035D01*
X141230675Y-67437176D01*
X140748075Y-67411776D01*
X140725920Y-67412547D01*
X139278120Y-67590347D01*
X139231060Y-67605866D01*
X139199425Y-67631194D01*
X138716825Y-68164594D01*
X138708587Y-68174697D01*
X138429187Y-68555697D01*
X138404744Y-68624759D01*
X138380559Y-69132653D01*
X138215080Y-69480157D01*
X137650603Y-68515842D01*
X137617708Y-68478783D01*
X137573135Y-68457133D01*
X137541000Y-68453000D01*
X137249252Y-68453000D01*
X137007859Y-68292072D01*
X136946531Y-68148972D01*
X136933435Y-68125592D01*
X136501635Y-67515992D01*
X136481335Y-67493565D01*
X135912944Y-66999312D01*
X135416729Y-66148658D01*
X135489067Y-65877393D01*
X135890780Y-65698854D01*
X135905233Y-65691283D01*
X136481170Y-65340713D01*
X136772196Y-65219452D01*
X137525606Y-64976416D01*
X137967481Y-65047116D01*
X137967481Y-65047116D01*
G37*
X137967481Y-65047116D02*
X137932946Y-65124820D01*
X137923728Y-65197279D01*
X137999928Y-65654479D01*
X138017454Y-65700829D01*
X138051383Y-65736944D01*
X138109118Y-65759578D01*
X139268817Y-65907625D01*
X139901967Y-66394663D01*
X139956682Y-66418951D01*
X140503742Y-66518416D01*
X141153010Y-66768135D01*
X141208728Y-66776196D01*
X142415074Y-66679688D01*
X142550823Y-66834830D01*
X142590102Y-66865040D01*
X142637952Y-66877919D01*
X142687088Y-66871506D01*
X142728637Y-66847579D01*
X142857228Y-66989029D01*
X142864546Y-66996444D01*
X143221145Y-67329270D01*
X143326857Y-67664025D01*
X143161799Y-67724046D01*
X143121865Y-67747565D01*
X142601789Y-68199805D01*
X142427224Y-68112522D01*
X141287535Y-67454035D01*
X141230675Y-67437176D01*
X140748075Y-67411776D01*
X140725920Y-67412547D01*
X139278120Y-67590347D01*
X139231060Y-67605866D01*
X139199425Y-67631194D01*
X138716825Y-68164594D01*
X138708587Y-68174697D01*
X138429187Y-68555697D01*
X138404744Y-68624759D01*
X138380559Y-69132653D01*
X138215080Y-69480157D01*
X137650603Y-68515842D01*
X137617708Y-68478783D01*
X137573135Y-68457133D01*
X137541000Y-68453000D01*
X137249252Y-68453000D01*
X137007859Y-68292072D01*
X136946531Y-68148972D01*
X136933435Y-68125592D01*
X136501635Y-67515992D01*
X136481335Y-67493565D01*
X135912944Y-66999312D01*
X135416729Y-66148658D01*
X135489067Y-65877393D01*
X135890780Y-65698854D01*
X135905233Y-65691283D01*
X136481170Y-65340713D01*
X136772196Y-65219452D01*
X137525606Y-64976416D01*
X137967481Y-65047116D01*
G36*
X201648077Y-100439272D02*
X201558212Y-101045861D01*
X200798636Y-101595342D01*
X200708906Y-101344098D01*
X200659523Y-100776198D01*
X200659223Y-100773175D01*
X200558400Y-99865768D01*
X200558400Y-99234061D01*
X200877848Y-98324864D01*
X201009074Y-98088655D01*
X201648077Y-100439272D01*
X201648077Y-100439272D01*
G37*
X201648077Y-100439272D02*
X201558212Y-101045861D01*
X200798636Y-101595342D01*
X200708906Y-101344098D01*
X200659523Y-100776198D01*
X200659223Y-100773175D01*
X200558400Y-99865768D01*
X200558400Y-99234061D01*
X200877848Y-98324864D01*
X201009074Y-98088655D01*
X201648077Y-100439272D01*
G36*
X199844843Y-101006262D02*
X199355129Y-102720259D01*
X198981206Y-103022274D01*
X198982123Y-103016311D01*
X198983078Y-103008498D01*
X199031137Y-102479844D01*
X199523096Y-101692710D01*
X199542400Y-101625400D01*
X199542400Y-101028694D01*
X199728296Y-100122450D01*
X199844843Y-101006262D01*
X199844843Y-101006262D01*
G37*
X199844843Y-101006262D02*
X199355129Y-102720259D01*
X198981206Y-103022274D01*
X198982123Y-103016311D01*
X198983078Y-103008498D01*
X199031137Y-102479844D01*
X199523096Y-101692710D01*
X199542400Y-101625400D01*
X199542400Y-101028694D01*
X199728296Y-100122450D01*
X199844843Y-101006262D01*
G36*
X198424033Y-99920921D02*
X198273569Y-101049405D01*
X198146607Y-101963529D01*
X198145400Y-101981000D01*
X198145400Y-102941827D01*
X198095372Y-103667226D01*
X197847167Y-105057176D01*
X196971299Y-106387822D01*
X196972712Y-106382523D01*
X196976223Y-106363825D01*
X197025119Y-105923762D01*
X197475917Y-104796767D01*
X197484370Y-104762237D01*
X197533761Y-104268327D01*
X197834083Y-103367361D01*
X197840449Y-103333388D01*
X197891015Y-102296783D01*
X198042819Y-101082352D01*
X198043599Y-101073744D01*
X198143772Y-99295675D01*
X198331856Y-98906969D01*
X198424033Y-99920921D01*
X198424033Y-99920921D01*
G37*
X198424033Y-99920921D02*
X198273569Y-101049405D01*
X198146607Y-101963529D01*
X198145400Y-101981000D01*
X198145400Y-102941827D01*
X198095372Y-103667226D01*
X197847167Y-105057176D01*
X196971299Y-106387822D01*
X196972712Y-106382523D01*
X196976223Y-106363825D01*
X197025119Y-105923762D01*
X197475917Y-104796767D01*
X197484370Y-104762237D01*
X197533761Y-104268327D01*
X197834083Y-103367361D01*
X197840449Y-103333388D01*
X197891015Y-102296783D01*
X198042819Y-101082352D01*
X198043599Y-101073744D01*
X198143772Y-99295675D01*
X198331856Y-98906969D01*
X198424033Y-99920921D01*
G36*
X190792987Y-66125093D02*
X190832882Y-66139551D01*
X191062069Y-66181221D01*
X191541400Y-66843155D01*
X191541400Y-67831952D01*
X191519121Y-67954484D01*
X191518199Y-67954667D01*
X191476997Y-67982197D01*
X191461130Y-68001553D01*
X191412046Y-68075179D01*
X191108820Y-68209946D01*
X191107485Y-68210549D01*
X190497885Y-68489949D01*
X190550800Y-68605400D01*
X190608696Y-68718436D01*
X191362731Y-68332223D01*
X191320767Y-68639963D01*
X190826492Y-69040090D01*
X190816597Y-69048997D01*
X190309892Y-69555702D01*
X189935845Y-69634449D01*
X189768733Y-69448769D01*
X189573512Y-69033924D01*
X189568606Y-69024535D01*
X189211809Y-68406087D01*
X189328931Y-67843902D01*
X189326439Y-67782165D01*
X189201031Y-67355777D01*
X189133267Y-67016959D01*
X189443482Y-66229491D01*
X189573590Y-66056013D01*
X189978118Y-65770464D01*
X190085761Y-65724331D01*
X190792987Y-66125093D01*
X190792987Y-66125093D01*
G37*
X190792987Y-66125093D02*
X190832882Y-66139551D01*
X191062069Y-66181221D01*
X191541400Y-66843155D01*
X191541400Y-67831952D01*
X191519121Y-67954484D01*
X191518199Y-67954667D01*
X191476997Y-67982197D01*
X191461130Y-68001553D01*
X191412046Y-68075179D01*
X191108820Y-68209946D01*
X191107485Y-68210549D01*
X190497885Y-68489949D01*
X190550800Y-68605400D01*
X190608696Y-68718436D01*
X191362731Y-68332223D01*
X191320767Y-68639963D01*
X190826492Y-69040090D01*
X190816597Y-69048997D01*
X190309892Y-69555702D01*
X189935845Y-69634449D01*
X189768733Y-69448769D01*
X189573512Y-69033924D01*
X189568606Y-69024535D01*
X189211809Y-68406087D01*
X189328931Y-67843902D01*
X189326439Y-67782165D01*
X189201031Y-67355777D01*
X189133267Y-67016959D01*
X189443482Y-66229491D01*
X189573590Y-66056013D01*
X189978118Y-65770464D01*
X190085761Y-65724331D01*
X190792987Y-66125093D01*
G36*
X206044320Y-58696839D02*
X206731388Y-58868605D01*
X207950585Y-59623346D01*
X207264200Y-59638599D01*
X207061580Y-59548546D01*
X207043416Y-59542075D01*
X206807653Y-59477776D01*
X206706944Y-59336783D01*
X206693403Y-59320797D01*
X206547382Y-59174776D01*
X206400400Y-58978800D01*
X206363506Y-58945720D01*
X206335293Y-58933356D01*
X206110590Y-58865945D01*
X205910933Y-58674607D01*
X206044320Y-58696839D01*
X206044320Y-58696839D01*
G37*
X206044320Y-58696839D02*
X206731388Y-58868605D01*
X207950585Y-59623346D01*
X207264200Y-59638599D01*
X207061580Y-59548546D01*
X207043416Y-59542075D01*
X206807653Y-59477776D01*
X206706944Y-59336783D01*
X206693403Y-59320797D01*
X206547382Y-59174776D01*
X206400400Y-58978800D01*
X206363506Y-58945720D01*
X206335293Y-58933356D01*
X206110590Y-58865945D01*
X205910933Y-58674607D01*
X206044320Y-58696839D01*
G36*
X206882316Y-57453655D02*
X207252869Y-57592612D01*
X207586530Y-57845385D01*
X206859072Y-57516856D01*
X206810799Y-57505663D01*
X206785342Y-57507426D01*
X205917085Y-57656270D01*
X205313115Y-57559635D01*
X205215084Y-57526958D01*
X205900492Y-57404564D01*
X206882316Y-57453655D01*
X206882316Y-57453655D01*
G37*
X206882316Y-57453655D02*
X207252869Y-57592612D01*
X207586530Y-57845385D01*
X206859072Y-57516856D01*
X206810799Y-57505663D01*
X206785342Y-57507426D01*
X205917085Y-57656270D01*
X205313115Y-57559635D01*
X205215084Y-57526958D01*
X205900492Y-57404564D01*
X206882316Y-57453655D01*
G36*
X205427184Y-56154925D02*
X205446043Y-56158563D01*
X206623097Y-56294377D01*
X206606042Y-56362600D01*
X206344810Y-56362600D01*
X206059561Y-56267517D01*
X206033425Y-56261777D01*
X205804825Y-56236377D01*
X205787066Y-56235655D01*
X204942442Y-56260497D01*
X204948398Y-56248584D01*
X205200885Y-56093207D01*
X205427184Y-56154925D01*
X205427184Y-56154925D01*
G37*
X205427184Y-56154925D02*
X205446043Y-56158563D01*
X206623097Y-56294377D01*
X206606042Y-56362600D01*
X206344810Y-56362600D01*
X206059561Y-56267517D01*
X206033425Y-56261777D01*
X205804825Y-56236377D01*
X205787066Y-56235655D01*
X204942442Y-56260497D01*
X204948398Y-56248584D01*
X205200885Y-56093207D01*
X205427184Y-56154925D01*
G36*
X183946800Y-57281790D02*
X183922997Y-57353200D01*
X183921400Y-57353200D01*
X183872799Y-57362867D01*
X183845157Y-57381337D01*
X183233249Y-57404000D01*
X183074443Y-57404000D01*
X183466901Y-57299344D01*
X183857005Y-57226200D01*
X183946800Y-57226200D01*
X183946800Y-57281790D01*
X183946800Y-57281790D01*
G37*
X183946800Y-57281790D02*
X183922997Y-57353200D01*
X183921400Y-57353200D01*
X183872799Y-57362867D01*
X183845157Y-57381337D01*
X183233249Y-57404000D01*
X183074443Y-57404000D01*
X183466901Y-57299344D01*
X183857005Y-57226200D01*
X183946800Y-57226200D01*
X183946800Y-57281790D01*
G36*
X181646589Y-60646671D02*
X180796738Y-61021605D01*
X180793205Y-61023229D01*
X180477564Y-61174188D01*
X180813247Y-60966384D01*
X180827703Y-60955964D01*
X180980103Y-60828964D01*
X180994377Y-60815030D01*
X181152088Y-60634788D01*
X181885767Y-60341317D01*
X181906783Y-60330545D01*
X182183843Y-60154234D01*
X182633078Y-59895060D01*
X181646589Y-60646671D01*
X181646589Y-60646671D01*
G37*
X181646589Y-60646671D02*
X180796738Y-61021605D01*
X180793205Y-61023229D01*
X180477564Y-61174188D01*
X180813247Y-60966384D01*
X180827703Y-60955964D01*
X180980103Y-60828964D01*
X180994377Y-60815030D01*
X181152088Y-60634788D01*
X181885767Y-60341317D01*
X181906783Y-60330545D01*
X182183843Y-60154234D01*
X182633078Y-59895060D01*
X181646589Y-60646671D01*
G36*
X183984184Y-59509749D02*
X184017006Y-59567188D01*
X183998568Y-59585626D01*
X183993020Y-59588400D01*
X183794400Y-59588400D01*
X183763598Y-59592192D01*
X183663630Y-59617184D01*
X182770841Y-59815582D01*
X182841865Y-59774606D01*
X182842792Y-59774066D01*
X183249253Y-59534971D01*
X183880340Y-59486426D01*
X183911849Y-59477600D01*
X183984184Y-59509749D01*
X183984184Y-59509749D01*
G37*
X183984184Y-59509749D02*
X184017006Y-59567188D01*
X183998568Y-59585626D01*
X183993020Y-59588400D01*
X183794400Y-59588400D01*
X183763598Y-59592192D01*
X183663630Y-59617184D01*
X182770841Y-59815582D01*
X182841865Y-59774606D01*
X182842792Y-59774066D01*
X183249253Y-59534971D01*
X183880340Y-59486426D01*
X183911849Y-59477600D01*
X183984184Y-59509749D01*
G36*
X182950591Y-58419904D02*
X184021762Y-58489763D01*
X184065530Y-58682343D01*
X184050550Y-58677024D01*
X183821950Y-58626224D01*
X183807695Y-58623898D01*
X183325095Y-58573098D01*
X183302752Y-58572723D01*
X182947152Y-58598123D01*
X182921310Y-58602686D01*
X182387910Y-58755086D01*
X182387325Y-58755255D01*
X181000021Y-59158834D01*
X180806848Y-59182981D01*
X180799882Y-59184049D01*
X179961682Y-59336449D01*
X179931847Y-59345783D01*
X179652447Y-59472783D01*
X179623697Y-59490836D01*
X179318897Y-59744836D01*
X179301030Y-59763064D01*
X179099582Y-60014874D01*
X178961572Y-60172600D01*
X178750059Y-60172600D01*
X178755188Y-60152083D01*
X178807845Y-60081873D01*
X179166497Y-59771042D01*
X179355396Y-59676592D01*
X179382974Y-59657921D01*
X179610688Y-59455509D01*
X179780406Y-59310036D01*
X179967940Y-59192828D01*
X180180244Y-59098470D01*
X180705090Y-58948514D01*
X180753830Y-58921977D01*
X180944769Y-58754906D01*
X181278936Y-58587822D01*
X181622720Y-58465042D01*
X181879554Y-58394996D01*
X182950591Y-58419904D01*
X182950591Y-58419904D01*
G37*
X182950591Y-58419904D02*
X184021762Y-58489763D01*
X184065530Y-58682343D01*
X184050550Y-58677024D01*
X183821950Y-58626224D01*
X183807695Y-58623898D01*
X183325095Y-58573098D01*
X183302752Y-58572723D01*
X182947152Y-58598123D01*
X182921310Y-58602686D01*
X182387910Y-58755086D01*
X182387325Y-58755255D01*
X181000021Y-59158834D01*
X180806848Y-59182981D01*
X180799882Y-59184049D01*
X179961682Y-59336449D01*
X179931847Y-59345783D01*
X179652447Y-59472783D01*
X179623697Y-59490836D01*
X179318897Y-59744836D01*
X179301030Y-59763064D01*
X179099582Y-60014874D01*
X178961572Y-60172600D01*
X178750059Y-60172600D01*
X178755188Y-60152083D01*
X178807845Y-60081873D01*
X179166497Y-59771042D01*
X179355396Y-59676592D01*
X179382974Y-59657921D01*
X179610688Y-59455509D01*
X179780406Y-59310036D01*
X179967940Y-59192828D01*
X180180244Y-59098470D01*
X180705090Y-58948514D01*
X180753830Y-58921977D01*
X180944769Y-58754906D01*
X181278936Y-58587822D01*
X181622720Y-58465042D01*
X181879554Y-58394996D01*
X182950591Y-58419904D01*
G36*
X200163634Y-82593811D02*
X199535559Y-84408250D01*
X199387570Y-84223264D01*
X199378203Y-84212797D01*
X199098803Y-83933397D01*
X199085200Y-83921600D01*
X198800403Y-83708002D01*
X197711426Y-81885150D01*
X198428159Y-81478356D01*
X198771733Y-82079610D01*
X198804239Y-82117011D01*
X198848584Y-82139125D01*
X198898016Y-82142586D01*
X198945010Y-82126867D01*
X198982411Y-82094361D01*
X199004525Y-82050016D01*
X199007986Y-82000584D01*
X198999917Y-81969433D01*
X198711445Y-81248254D01*
X198876861Y-80685839D01*
X200163634Y-82593811D01*
X200163634Y-82593811D01*
G37*
X200163634Y-82593811D02*
X199535559Y-84408250D01*
X199387570Y-84223264D01*
X199378203Y-84212797D01*
X199098803Y-83933397D01*
X199085200Y-83921600D01*
X198800403Y-83708002D01*
X197711426Y-81885150D01*
X198428159Y-81478356D01*
X198771733Y-82079610D01*
X198804239Y-82117011D01*
X198848584Y-82139125D01*
X198898016Y-82142586D01*
X198945010Y-82126867D01*
X198982411Y-82094361D01*
X199004525Y-82050016D01*
X199007986Y-82000584D01*
X198999917Y-81969433D01*
X198711445Y-81248254D01*
X198876861Y-80685839D01*
X200163634Y-82593811D01*
G36*
X195451493Y-81484285D02*
X195865092Y-81922214D01*
X196033731Y-82133013D01*
X195987723Y-82731126D01*
X195866028Y-83169227D01*
X195728158Y-83506241D01*
X194730266Y-82087016D01*
X194711318Y-82025435D01*
X194792600Y-82016600D01*
X194913819Y-81978719D01*
X194648087Y-81128377D01*
X194683507Y-81082838D01*
X195451493Y-81484285D01*
X195451493Y-81484285D01*
G37*
X195451493Y-81484285D02*
X195865092Y-81922214D01*
X196033731Y-82133013D01*
X195987723Y-82731126D01*
X195866028Y-83169227D01*
X195728158Y-83506241D01*
X194730266Y-82087016D01*
X194711318Y-82025435D01*
X194792600Y-82016600D01*
X194913819Y-81978719D01*
X194648087Y-81128377D01*
X194683507Y-81082838D01*
X195451493Y-81484285D01*
G36*
X194640957Y-81796763D02*
X194542712Y-81477466D01*
X194584867Y-81280740D01*
X194640957Y-81796763D01*
X194640957Y-81796763D01*
G37*
X194640957Y-81796763D02*
X194542712Y-81477466D01*
X194584867Y-81280740D01*
X194640957Y-81796763D01*
G36*
X197014197Y-69812803D02*
X197077390Y-69847181D01*
X197393804Y-69914984D01*
X197673296Y-70215975D01*
X197767424Y-70639550D01*
X197772306Y-70656109D01*
X198022324Y-71331156D01*
X198089239Y-71710343D01*
X197923740Y-72041340D01*
X197559938Y-72223241D01*
X197270621Y-72338968D01*
X196999366Y-72005115D01*
X196977646Y-71984087D01*
X196342646Y-71501487D01*
X196324147Y-71489796D01*
X195645300Y-71138668D01*
X195557131Y-70543527D01*
X195691060Y-70052455D01*
X196150761Y-69707680D01*
X196317724Y-69640894D01*
X196460682Y-69621400D01*
X196469000Y-69621400D01*
X196469000Y-69620266D01*
X196779341Y-69577947D01*
X197014197Y-69812803D01*
X197014197Y-69812803D01*
G37*
X197014197Y-69812803D02*
X197077390Y-69847181D01*
X197393804Y-69914984D01*
X197673296Y-70215975D01*
X197767424Y-70639550D01*
X197772306Y-70656109D01*
X198022324Y-71331156D01*
X198089239Y-71710343D01*
X197923740Y-72041340D01*
X197559938Y-72223241D01*
X197270621Y-72338968D01*
X196999366Y-72005115D01*
X196977646Y-71984087D01*
X196342646Y-71501487D01*
X196324147Y-71489796D01*
X195645300Y-71138668D01*
X195557131Y-70543527D01*
X195691060Y-70052455D01*
X196150761Y-69707680D01*
X196317724Y-69640894D01*
X196460682Y-69621400D01*
X196469000Y-69621400D01*
X196469000Y-69620266D01*
X196779341Y-69577947D01*
X197014197Y-69812803D01*
G36*
X200015473Y-74887099D02*
X199986141Y-74927037D01*
X199974325Y-74975161D01*
X199981825Y-75024143D01*
X200000778Y-75058546D01*
X200547439Y-75764650D01*
X200334450Y-76016365D01*
X200310437Y-76059711D01*
X200307652Y-76126957D01*
X200374235Y-76415485D01*
X200169784Y-76869821D01*
X199976630Y-77111264D01*
X199953818Y-77155254D01*
X199948800Y-77190600D01*
X199948800Y-77398093D01*
X199772663Y-77503776D01*
X199587798Y-77549992D01*
X199583710Y-77551086D01*
X198453254Y-77874073D01*
X197668033Y-75694206D01*
X198545639Y-74698004D01*
X199654547Y-74015600D01*
X200968042Y-74015600D01*
X200015473Y-74887099D01*
X200015473Y-74887099D01*
G37*
X200015473Y-74887099D02*
X199986141Y-74927037D01*
X199974325Y-74975161D01*
X199981825Y-75024143D01*
X200000778Y-75058546D01*
X200547439Y-75764650D01*
X200334450Y-76016365D01*
X200310437Y-76059711D01*
X200307652Y-76126957D01*
X200374235Y-76415485D01*
X200169784Y-76869821D01*
X199976630Y-77111264D01*
X199953818Y-77155254D01*
X199948800Y-77190600D01*
X199948800Y-77398093D01*
X199772663Y-77503776D01*
X199587798Y-77549992D01*
X199583710Y-77551086D01*
X198453254Y-77874073D01*
X197668033Y-75694206D01*
X198545639Y-74698004D01*
X199654547Y-74015600D01*
X200968042Y-74015600D01*
X200015473Y-74887099D01*
G36*
X193227440Y-71707595D02*
X193297792Y-71989002D01*
X193328669Y-72045401D01*
X193733892Y-72474460D01*
X193773621Y-72712837D01*
X193759237Y-72763182D01*
X193303432Y-72347012D01*
X193261023Y-72321381D01*
X193212033Y-72313931D01*
X193163922Y-72325795D01*
X193124012Y-72355168D01*
X193098381Y-72397577D01*
X193090931Y-72446567D01*
X193102795Y-72494678D01*
X193122879Y-72525174D01*
X193525412Y-72978024D01*
X193835638Y-73399045D01*
X193658683Y-73841433D01*
X193655495Y-73850356D01*
X193513804Y-74299043D01*
X193365733Y-74428605D01*
X192915567Y-74492915D01*
X192808093Y-74425744D01*
X192786000Y-73961783D01*
X192786000Y-73101200D01*
X192785842Y-73094858D01*
X192712683Y-71631669D01*
X192873529Y-71488694D01*
X193038873Y-71443600D01*
X193227440Y-71707595D01*
X193227440Y-71707595D01*
G37*
X193227440Y-71707595D02*
X193297792Y-71989002D01*
X193328669Y-72045401D01*
X193733892Y-72474460D01*
X193773621Y-72712837D01*
X193759237Y-72763182D01*
X193303432Y-72347012D01*
X193261023Y-72321381D01*
X193212033Y-72313931D01*
X193163922Y-72325795D01*
X193124012Y-72355168D01*
X193098381Y-72397577D01*
X193090931Y-72446567D01*
X193102795Y-72494678D01*
X193122879Y-72525174D01*
X193525412Y-72978024D01*
X193835638Y-73399045D01*
X193658683Y-73841433D01*
X193655495Y-73850356D01*
X193513804Y-74299043D01*
X193365733Y-74428605D01*
X192915567Y-74492915D01*
X192808093Y-74425744D01*
X192786000Y-73961783D01*
X192786000Y-73101200D01*
X192785842Y-73094858D01*
X192712683Y-71631669D01*
X192873529Y-71488694D01*
X193038873Y-71443600D01*
X193227440Y-71707595D01*
G36*
X201202616Y-64700712D02*
X200983433Y-65059376D01*
X200965123Y-65116552D01*
X200914323Y-65827752D01*
X200922255Y-65881841D01*
X201201655Y-66618441D01*
X201212239Y-66639960D01*
X201407155Y-66956698D01*
X201799768Y-68208154D01*
X201400605Y-70625312D01*
X200232872Y-68840664D01*
X200198172Y-68805289D01*
X200152576Y-68785885D01*
X200103026Y-68785407D01*
X200078514Y-68792656D01*
X199603987Y-68986781D01*
X198853919Y-68123066D01*
X198758239Y-66448660D01*
X199845657Y-65455800D01*
X199847200Y-65455800D01*
X199895801Y-65446133D01*
X199926536Y-65427970D01*
X200053536Y-65326370D01*
X200087792Y-65283996D01*
X200124485Y-65210610D01*
X200276617Y-65101944D01*
X200303683Y-65075746D01*
X200625529Y-64654870D01*
X200867970Y-64449728D01*
X201202616Y-64700712D01*
X201202616Y-64700712D01*
G37*
X201202616Y-64700712D02*
X200983433Y-65059376D01*
X200965123Y-65116552D01*
X200914323Y-65827752D01*
X200922255Y-65881841D01*
X201201655Y-66618441D01*
X201212239Y-66639960D01*
X201407155Y-66956698D01*
X201799768Y-68208154D01*
X201400605Y-70625312D01*
X200232872Y-68840664D01*
X200198172Y-68805289D01*
X200152576Y-68785885D01*
X200103026Y-68785407D01*
X200078514Y-68792656D01*
X199603987Y-68986781D01*
X198853919Y-68123066D01*
X198758239Y-66448660D01*
X199845657Y-65455800D01*
X199847200Y-65455800D01*
X199895801Y-65446133D01*
X199926536Y-65427970D01*
X200053536Y-65326370D01*
X200087792Y-65283996D01*
X200124485Y-65210610D01*
X200276617Y-65101944D01*
X200303683Y-65075746D01*
X200625529Y-64654870D01*
X200867970Y-64449728D01*
X201202616Y-64700712D01*
G36*
X201394450Y-58924976D02*
X201434637Y-58927370D01*
X201869089Y-58883925D01*
X202206474Y-59360233D01*
X201724358Y-60048970D01*
X201714030Y-60066587D01*
X201385182Y-60747772D01*
X200073650Y-61039224D01*
X200028303Y-61059204D01*
X199984469Y-61113172D01*
X199681139Y-61820942D01*
X199453463Y-62276295D01*
X198820521Y-62463833D01*
X198766797Y-62495797D01*
X198369286Y-62893308D01*
X197770153Y-63292730D01*
X197735077Y-63327732D01*
X197719495Y-63360156D01*
X197604026Y-63725809D01*
X196350591Y-63377633D01*
X196301176Y-63373940D01*
X196258008Y-63387323D01*
X195623008Y-63717523D01*
X195584349Y-63748523D01*
X195557066Y-63805293D01*
X195530613Y-63937557D01*
X194808954Y-63810206D01*
X193963022Y-63362359D01*
X193945092Y-63354569D01*
X191887692Y-62643369D01*
X191838600Y-62636628D01*
X191794620Y-62647346D01*
X190880220Y-63053746D01*
X190879247Y-63054183D01*
X190345490Y-63296800D01*
X189585600Y-63296800D01*
X189577678Y-63297047D01*
X188023185Y-63394203D01*
X187725110Y-62968381D01*
X187580463Y-62076391D01*
X187730124Y-61028761D01*
X187727946Y-60981384D01*
X187474957Y-59918828D01*
X187434622Y-59676822D01*
X187688184Y-59380999D01*
X187824186Y-59295999D01*
X189901039Y-59988283D01*
X189923548Y-59993567D01*
X191371348Y-60196767D01*
X191420821Y-60193949D01*
X191445796Y-60184592D01*
X191936715Y-59939133D01*
X192780799Y-59798452D01*
X193169961Y-60073155D01*
X193194354Y-60086631D01*
X193803954Y-60340631D01*
X193864841Y-60349828D01*
X194931641Y-60248228D01*
X194936759Y-60247635D01*
X196054359Y-60095235D01*
X196064039Y-60093532D01*
X197003839Y-59890332D01*
X197031367Y-59880975D01*
X197996567Y-59423775D01*
X198018400Y-59410600D01*
X198187733Y-59283600D01*
X198720416Y-59283600D01*
X199122408Y-59520066D01*
X199169201Y-59536375D01*
X199232831Y-59528965D01*
X200147231Y-59173365D01*
X200175017Y-59158344D01*
X200508435Y-58920188D01*
X200963420Y-58829191D01*
X201394450Y-58924976D01*
X201394450Y-58924976D01*
G37*
X201394450Y-58924976D02*
X201434637Y-58927370D01*
X201869089Y-58883925D01*
X202206474Y-59360233D01*
X201724358Y-60048970D01*
X201714030Y-60066587D01*
X201385182Y-60747772D01*
X200073650Y-61039224D01*
X200028303Y-61059204D01*
X199984469Y-61113172D01*
X199681139Y-61820942D01*
X199453463Y-62276295D01*
X198820521Y-62463833D01*
X198766797Y-62495797D01*
X198369286Y-62893308D01*
X197770153Y-63292730D01*
X197735077Y-63327732D01*
X197719495Y-63360156D01*
X197604026Y-63725809D01*
X196350591Y-63377633D01*
X196301176Y-63373940D01*
X196258008Y-63387323D01*
X195623008Y-63717523D01*
X195584349Y-63748523D01*
X195557066Y-63805293D01*
X195530613Y-63937557D01*
X194808954Y-63810206D01*
X193963022Y-63362359D01*
X193945092Y-63354569D01*
X191887692Y-62643369D01*
X191838600Y-62636628D01*
X191794620Y-62647346D01*
X190880220Y-63053746D01*
X190879247Y-63054183D01*
X190345490Y-63296800D01*
X189585600Y-63296800D01*
X189577678Y-63297047D01*
X188023185Y-63394203D01*
X187725110Y-62968381D01*
X187580463Y-62076391D01*
X187730124Y-61028761D01*
X187727946Y-60981384D01*
X187474957Y-59918828D01*
X187434622Y-59676822D01*
X187688184Y-59380999D01*
X187824186Y-59295999D01*
X189901039Y-59988283D01*
X189923548Y-59993567D01*
X191371348Y-60196767D01*
X191420821Y-60193949D01*
X191445796Y-60184592D01*
X191936715Y-59939133D01*
X192780799Y-59798452D01*
X193169961Y-60073155D01*
X193194354Y-60086631D01*
X193803954Y-60340631D01*
X193864841Y-60349828D01*
X194931641Y-60248228D01*
X194936759Y-60247635D01*
X196054359Y-60095235D01*
X196064039Y-60093532D01*
X197003839Y-59890332D01*
X197031367Y-59880975D01*
X197996567Y-59423775D01*
X198018400Y-59410600D01*
X198187733Y-59283600D01*
X198720416Y-59283600D01*
X199122408Y-59520066D01*
X199169201Y-59536375D01*
X199232831Y-59528965D01*
X200147231Y-59173365D01*
X200175017Y-59158344D01*
X200508435Y-58920188D01*
X200963420Y-58829191D01*
X201394450Y-58924976D01*
G36*
X143368554Y-41575493D02*
X143418100Y-41576315D01*
X143464189Y-41558114D01*
X143467634Y-41554400D01*
X143803084Y-41554400D01*
X144883771Y-41755458D01*
X144885809Y-41755820D01*
X146524400Y-42033120D01*
X147314851Y-42335351D01*
X147574000Y-43348387D01*
X147574000Y-45008800D01*
X147581507Y-45051817D01*
X147810107Y-45686817D01*
X147826966Y-45718601D01*
X148911583Y-47206796D01*
X150476978Y-50640567D01*
X151922129Y-55787332D01*
X151944574Y-55831510D01*
X151982218Y-55863736D01*
X152023521Y-55878272D01*
X152472025Y-55953023D01*
X154154949Y-56480506D01*
X155764903Y-57310639D01*
X158100818Y-58842798D01*
X159264492Y-60526412D01*
X159785290Y-63601601D01*
X159306732Y-64391222D01*
X158566131Y-65279943D01*
X157125977Y-66074511D01*
X155605197Y-66523265D01*
X154251545Y-66572489D01*
X153159286Y-66125656D01*
X153110644Y-66116201D01*
X153062086Y-66126081D01*
X153021005Y-66153792D01*
X152990717Y-66203039D01*
X152957103Y-66303880D01*
X152950905Y-66353044D01*
X152976094Y-66420385D01*
X153388993Y-66969297D01*
X153162494Y-72984089D01*
X150599294Y-85229080D01*
X150596603Y-85254245D01*
X150520403Y-96569945D01*
X150539704Y-96638110D01*
X151047704Y-97450910D01*
X151078129Y-97484388D01*
X151837496Y-98066570D01*
X153730569Y-99681992D01*
X154586074Y-100760672D01*
X154851701Y-101509258D01*
X154900570Y-103280747D01*
X154000168Y-104302825D01*
X152535650Y-105529516D01*
X150748982Y-106309610D01*
X150734143Y-106317289D01*
X148173834Y-107863614D01*
X147442587Y-108216630D01*
X147403402Y-108246041D01*
X147182337Y-108491669D01*
X146962630Y-108662552D01*
X146924672Y-108710938D01*
X146708772Y-109193538D01*
X146703481Y-109207519D01*
X146583999Y-109589861D01*
X146409636Y-109799097D01*
X146381476Y-109862439D01*
X146357002Y-110033759D01*
X146307792Y-110230598D01*
X146305383Y-110280092D01*
X146316676Y-110311609D01*
X146217907Y-110492686D01*
X146203270Y-110538661D01*
X146197953Y-110583858D01*
X146191052Y-110589830D01*
X146167458Y-110639654D01*
X146045744Y-111175197D01*
X145767008Y-111587241D01*
X145758608Y-111601604D01*
X145584845Y-111949130D01*
X145361382Y-112271910D01*
X145351430Y-112288987D01*
X145001406Y-113014036D01*
X144611275Y-113526083D01*
X144149311Y-113915105D01*
X143559038Y-114234837D01*
X142889320Y-114482880D01*
X142239731Y-114632786D01*
X141699657Y-114730981D01*
X141378012Y-114708006D01*
X140913400Y-114536834D01*
X140420445Y-114344461D01*
X140021938Y-113922512D01*
X139651493Y-113145772D01*
X139851070Y-110626107D01*
X140711581Y-107449809D01*
X140714835Y-107433759D01*
X140941832Y-105769114D01*
X141344483Y-104561161D01*
X141348193Y-104547552D01*
X142135593Y-100864552D01*
X142138369Y-100835209D01*
X142087569Y-98523809D01*
X142084984Y-98500954D01*
X141576984Y-96037154D01*
X141571864Y-96019152D01*
X139931442Y-91536871D01*
X141865889Y-91536871D01*
X141870552Y-91603319D01*
X142159847Y-92433264D01*
X142184972Y-92475975D01*
X142224530Y-92505819D01*
X142272497Y-92518254D01*
X142321572Y-92511385D01*
X142364283Y-92486260D01*
X142394127Y-92446702D01*
X142406739Y-92388641D01*
X142392369Y-91741979D01*
X142381624Y-91693604D01*
X142335847Y-91639130D01*
X142060922Y-91455847D01*
X142015121Y-91436931D01*
X141965568Y-91436983D01*
X141919807Y-91455994D01*
X141884805Y-91491070D01*
X141865889Y-91536871D01*
X139931442Y-91536871D01*
X139768464Y-91091552D01*
X139764637Y-91082253D01*
X135395837Y-81557253D01*
X135353639Y-81506445D01*
X133441985Y-80157042D01*
X133060951Y-79167491D01*
X136506458Y-79167491D01*
X136514918Y-79206262D01*
X136559073Y-79319528D01*
X136561140Y-79324514D01*
X136965305Y-80243791D01*
X136993716Y-80284391D01*
X137035500Y-80311028D01*
X137068239Y-80316811D01*
X137046834Y-80360711D01*
X137043814Y-80410172D01*
X137053392Y-80444146D01*
X137856446Y-82270700D01*
X138155156Y-82957732D01*
X138183400Y-82998448D01*
X138215296Y-83018965D01*
X138208715Y-83058200D01*
X138219189Y-83105009D01*
X138618332Y-84023038D01*
X138646576Y-84063754D01*
X138688251Y-84090562D01*
X138737013Y-84099381D01*
X138765600Y-84095609D01*
X138778157Y-84092470D01*
X138799144Y-84082556D01*
X138803124Y-84083223D01*
X138830080Y-84079489D01*
X138867203Y-84070208D01*
X138915736Y-84046170D01*
X138954685Y-84015011D01*
X139405277Y-84987341D01*
X140952416Y-88969322D01*
X141461688Y-90430348D01*
X141486813Y-90473059D01*
X141526371Y-90502903D01*
X141574338Y-90515338D01*
X141623413Y-90508469D01*
X141666124Y-90483344D01*
X141695968Y-90443786D01*
X141706145Y-90413453D01*
X141780334Y-90042507D01*
X141776025Y-89976672D01*
X141380321Y-88814290D01*
X141487635Y-88234792D01*
X141949961Y-88080683D01*
X141992451Y-88056626D01*
X142312381Y-87782400D01*
X142651370Y-87782400D01*
X143766362Y-88707606D01*
X143789501Y-89286076D01*
X143793192Y-89311802D01*
X143920192Y-89819802D01*
X143928973Y-89844095D01*
X144194984Y-90396580D01*
X143440229Y-90627200D01*
X142748000Y-90627200D01*
X142699399Y-90636867D01*
X142658197Y-90664397D01*
X142630667Y-90705599D01*
X142621000Y-90754200D01*
X142630667Y-90802801D01*
X142658197Y-90844003D01*
X142699399Y-90871533D01*
X142737453Y-90880761D01*
X143956653Y-90982361D01*
X143972276Y-90982699D01*
X144550864Y-90959555D01*
X145598213Y-92030708D01*
X145665478Y-92658513D01*
X144668624Y-94477772D01*
X144653748Y-94525039D01*
X144656792Y-94569602D01*
X145063192Y-96195202D01*
X145074015Y-96223550D01*
X145298150Y-96649406D01*
X144963919Y-97340151D01*
X144780216Y-97432002D01*
X144393139Y-96202464D01*
X144372663Y-96163167D01*
X143620875Y-95185843D01*
X143068496Y-93855111D01*
X143057682Y-93834586D01*
X142738713Y-93343865D01*
X142704121Y-93308385D01*
X142658584Y-93288843D01*
X142609035Y-93288215D01*
X142563017Y-93306597D01*
X142527537Y-93341189D01*
X142507995Y-93386726D01*
X142509413Y-93445400D01*
X143005245Y-95329559D01*
X143915910Y-99832295D01*
X143891094Y-100477519D01*
X143891000Y-100482400D01*
X143891000Y-100701222D01*
X143756698Y-100925059D01*
X143756037Y-100926174D01*
X143326090Y-101659613D01*
X143175730Y-101885153D01*
X143163483Y-101908433D01*
X143067563Y-102148233D01*
X142949456Y-102313583D01*
X142926914Y-102370615D01*
X142876114Y-102751615D01*
X142875000Y-102768400D01*
X142875000Y-103022400D01*
X142875512Y-103033795D01*
X143127796Y-105834152D01*
X142953964Y-106653647D01*
X142953915Y-106653882D01*
X142217315Y-110159082D01*
X142216195Y-110165135D01*
X142114595Y-110800135D01*
X142114276Y-110802239D01*
X142038076Y-111335639D01*
X142037174Y-111363340D01*
X142087600Y-112018878D01*
X142087600Y-112674400D01*
X142102780Y-112734611D01*
X142280580Y-113064811D01*
X142312134Y-113103019D01*
X142376648Y-113130619D01*
X142579848Y-113156019D01*
X142629272Y-113152455D01*
X142685403Y-113119803D01*
X143244203Y-112561003D01*
X143256000Y-112547400D01*
X143637000Y-112039400D01*
X143644793Y-112027714D01*
X144219864Y-111052594D01*
X144664001Y-110633131D01*
X144691003Y-110596358D01*
X145146693Y-109659663D01*
X145526018Y-108976877D01*
X145536839Y-108951035D01*
X145656678Y-108543583D01*
X146072510Y-108029908D01*
X146076756Y-108024357D01*
X146405629Y-107568995D01*
X146750101Y-107126101D01*
X147421759Y-106603701D01*
X147976201Y-106200470D01*
X148481414Y-105872082D01*
X148483488Y-105870705D01*
X151398751Y-103893396D01*
X151824422Y-103668041D01*
X151843463Y-103655662D01*
X152554663Y-103096862D01*
X152586906Y-103059234D01*
X152602423Y-103011025D01*
X152653223Y-102553825D01*
X152653677Y-102530752D01*
X152577477Y-101463952D01*
X152565293Y-101418043D01*
X152260493Y-100783043D01*
X152216447Y-100732330D01*
X151999681Y-100587819D01*
X151526875Y-100090129D01*
X151524603Y-100087797D01*
X151170086Y-99733280D01*
X150663166Y-99201014D01*
X150658544Y-99196404D01*
X150175944Y-98739204D01*
X150168198Y-98732440D01*
X148999798Y-97792640D01*
X148990647Y-97785930D01*
X148767386Y-97637089D01*
X147935503Y-96952009D01*
X147847164Y-96709076D01*
X147670520Y-96103440D01*
X147667694Y-96094891D01*
X147426844Y-95444597D01*
X147474903Y-95453175D01*
X147523304Y-95442552D01*
X147563955Y-95414215D01*
X147590668Y-95372479D01*
X147599375Y-95323697D01*
X147594925Y-95292784D01*
X147370461Y-94469748D01*
X147345423Y-93217874D01*
X147370779Y-91823309D01*
X147368334Y-91796093D01*
X147298748Y-91448165D01*
X147440483Y-91022961D01*
X147444483Y-91007961D01*
X147927083Y-88620361D01*
X147927799Y-88616511D01*
X148130611Y-87424991D01*
X149349344Y-81559838D01*
X149352000Y-81534000D01*
X149352000Y-81422634D01*
X149424408Y-81133002D01*
X149426472Y-81123079D01*
X149477272Y-80818279D01*
X149475726Y-80768750D01*
X149455344Y-80723583D01*
X149419229Y-80689654D01*
X149372879Y-80672128D01*
X149323350Y-80673674D01*
X149278183Y-80694056D01*
X149244254Y-80730171D01*
X149228376Y-80768312D01*
X149033451Y-81596743D01*
X148635949Y-81994245D01*
X148304258Y-81697469D01*
X148482358Y-81140907D01*
X148487963Y-81091672D01*
X148474300Y-81044040D01*
X148443449Y-81005262D01*
X148400107Y-80981242D01*
X148350872Y-80975637D01*
X148303240Y-80989300D01*
X148277770Y-81006623D01*
X148074570Y-81184423D01*
X148049298Y-81214659D01*
X147925803Y-81420484D01*
X147832794Y-81439086D01*
X147794514Y-81337007D01*
X147768397Y-81294895D01*
X147728153Y-81265983D01*
X147693561Y-81255876D01*
X147515761Y-81230476D01*
X147466281Y-81233173D01*
X147415149Y-81259774D01*
X147345400Y-81319559D01*
X147345400Y-81229200D01*
X147335733Y-81180599D01*
X147308203Y-81139397D01*
X147267001Y-81111867D01*
X147247472Y-81107983D01*
X147241334Y-81077293D01*
X147222470Y-81031753D01*
X147120870Y-80879353D01*
X147120220Y-80878387D01*
X146688420Y-80243387D01*
X146662736Y-80215630D01*
X146551133Y-80126348D01*
X146409670Y-79914153D01*
X146380200Y-79883000D01*
X146312778Y-79832433D01*
X146273714Y-79695710D01*
X146261867Y-79667590D01*
X146171059Y-79508676D01*
X146073351Y-78971282D01*
X146073115Y-78970016D01*
X146060545Y-78904647D01*
X149530392Y-78904647D01*
X149544701Y-78952089D01*
X149576076Y-78990444D01*
X149619741Y-79013873D01*
X149669047Y-79018808D01*
X149716489Y-79004499D01*
X149754844Y-78973124D01*
X149777283Y-78932561D01*
X149853483Y-78703961D01*
X149853833Y-78702893D01*
X150133233Y-77839293D01*
X150136466Y-77827339D01*
X150193187Y-77568041D01*
X150194129Y-77518497D01*
X150176040Y-77472364D01*
X150141673Y-77436665D01*
X150096260Y-77416836D01*
X150046716Y-77415894D01*
X150000583Y-77433983D01*
X149964884Y-77468350D01*
X149947648Y-77503843D01*
X149535327Y-78855341D01*
X149530392Y-78904647D01*
X146060545Y-78904647D01*
X145947306Y-78315808D01*
X145922478Y-78042702D01*
X145921724Y-78036239D01*
X145896324Y-77858439D01*
X145879880Y-77811694D01*
X145854230Y-77780823D01*
X145654222Y-77605816D01*
X145479403Y-77430997D01*
X145446396Y-77407208D01*
X145412127Y-77390073D01*
X145389513Y-76779500D01*
X145388823Y-76770175D01*
X145365754Y-76562551D01*
X145411976Y-76354550D01*
X145415000Y-76327000D01*
X145415000Y-75862189D01*
X145511714Y-75523690D01*
X145514872Y-75509679D01*
X145563415Y-75218423D01*
X145607159Y-75109062D01*
X145652707Y-75017965D01*
X150522495Y-75017965D01*
X150524789Y-75067465D01*
X150545852Y-75112318D01*
X150582476Y-75145698D01*
X150629086Y-75162520D01*
X150678586Y-75160226D01*
X150723439Y-75139163D01*
X150756819Y-75102539D01*
X150772249Y-75063557D01*
X150898581Y-74474010D01*
X150900322Y-74463914D01*
X151103522Y-72914514D01*
X151104277Y-72907048D01*
X151180477Y-71840248D01*
X151180777Y-71833642D01*
X151191729Y-71264123D01*
X151182997Y-71215345D01*
X151156265Y-71173622D01*
X151115600Y-71145304D01*
X151067194Y-71134704D01*
X151018416Y-71143436D01*
X150976693Y-71170168D01*
X150948375Y-71210833D01*
X150938010Y-71253591D01*
X150825807Y-73011443D01*
X150522495Y-75017965D01*
X145652707Y-75017965D01*
X145680992Y-74961396D01*
X145694080Y-74913603D01*
X145687883Y-74864439D01*
X145657203Y-74814797D01*
X145430984Y-74588578D01*
X145362025Y-74220795D01*
X145349796Y-74185454D01*
X145044996Y-73601254D01*
X145011736Y-73560830D01*
X144906518Y-73476655D01*
X144820956Y-73305532D01*
X145118099Y-72734103D01*
X145165070Y-72663647D01*
X145183986Y-72617846D01*
X145183934Y-72568293D01*
X145164923Y-72522532D01*
X145129847Y-72487530D01*
X145084046Y-72468614D01*
X145034493Y-72468666D01*
X145006847Y-72477583D01*
X144448047Y-72731583D01*
X144397644Y-72772843D01*
X144067444Y-73230043D01*
X144046826Y-73275102D01*
X144046219Y-73331010D01*
X144114472Y-73649525D01*
X143936778Y-74108568D01*
X143928249Y-74157381D01*
X143939049Y-74205743D01*
X143965411Y-74244217D01*
X143978997Y-74257803D01*
X144020199Y-74285333D01*
X144047921Y-74293272D01*
X144132904Y-74307436D01*
X144308346Y-74702180D01*
X144336919Y-74742665D01*
X144378810Y-74769135D01*
X144406439Y-74776324D01*
X144452931Y-74782966D01*
X144408416Y-75020378D01*
X144295822Y-75132972D01*
X143954990Y-75327733D01*
X143920436Y-75356697D01*
X143323517Y-76073000D01*
X142646400Y-76073000D01*
X142612984Y-76077475D01*
X142341960Y-76151391D01*
X141766374Y-76226467D01*
X141719432Y-76242339D01*
X141673898Y-76287059D01*
X141521498Y-76541059D01*
X141513169Y-76557554D01*
X141259682Y-77165922D01*
X141244163Y-77090542D01*
X141224894Y-77044889D01*
X141189621Y-77010085D01*
X141143714Y-76991429D01*
X141094162Y-76991761D01*
X141048509Y-77011030D01*
X141013705Y-77046303D01*
X140994820Y-77093434D01*
X140972048Y-77218682D01*
X140972866Y-77268228D01*
X140985180Y-77301611D01*
X141063799Y-77447618D01*
X141095352Y-77485826D01*
X141139126Y-77509051D01*
X141156122Y-77510672D01*
X140905597Y-77761197D01*
X140883907Y-77790186D01*
X140731507Y-78069586D01*
X140719252Y-78101843D01*
X140566852Y-78762243D01*
X140568233Y-78824791D01*
X140695233Y-79281991D01*
X140697840Y-79290268D01*
X140991940Y-80123550D01*
X140934810Y-80485371D01*
X140789623Y-80511769D01*
X140474210Y-80331533D01*
X140427216Y-80315814D01*
X140394415Y-80315914D01*
X140013415Y-80366714D01*
X139966518Y-80382720D01*
X139929317Y-80415454D01*
X139907473Y-80459933D01*
X139907313Y-80524658D01*
X140044253Y-81049596D01*
X139928600Y-81203800D01*
X139907173Y-81248481D01*
X139903294Y-81275119D01*
X139878899Y-81909399D01*
X139642846Y-82405110D01*
X139297165Y-82824865D01*
X139275187Y-82864057D01*
X139055482Y-83498761D01*
X138886486Y-83678319D01*
X138872630Y-83700480D01*
X138852776Y-83714136D01*
X138798005Y-83772331D01*
X138451471Y-83002255D01*
X138422711Y-82961902D01*
X138391790Y-82942563D01*
X138398605Y-82904881D01*
X138388716Y-82857915D01*
X137887646Y-81664893D01*
X137583714Y-80854407D01*
X137574500Y-80835008D01*
X137279352Y-80329040D01*
X137246513Y-80291931D01*
X137201973Y-80270214D01*
X137180682Y-80268914D01*
X137199916Y-80238742D01*
X137208536Y-80189944D01*
X137203679Y-80157787D01*
X137129714Y-79898910D01*
X137121920Y-79878484D01*
X136747565Y-79104818D01*
X136717694Y-79065280D01*
X136674967Y-79040183D01*
X136625888Y-79033347D01*
X136577929Y-79045814D01*
X136538391Y-79075685D01*
X136513294Y-79118412D01*
X136506458Y-79167491D01*
X133060951Y-79167491D01*
X128350417Y-66934164D01*
X128323932Y-66892283D01*
X128283435Y-66863726D01*
X128250512Y-66854171D01*
X127907612Y-66803371D01*
X127897738Y-66802301D01*
X127161138Y-66751501D01*
X127152400Y-66751200D01*
X126272016Y-66751200D01*
X125176430Y-66601802D01*
X124630401Y-66403246D01*
X124629858Y-66403050D01*
X123306689Y-65928706D01*
X122438893Y-65160087D01*
X122279184Y-65000378D01*
X122023785Y-64466360D01*
X123014535Y-64466360D01*
X123014748Y-64515912D01*
X123040907Y-64571021D01*
X123269507Y-64850421D01*
X123328937Y-64890908D01*
X124040137Y-65119508D01*
X124041941Y-65120073D01*
X125540541Y-65577273D01*
X125576088Y-65582791D01*
X127709688Y-65608191D01*
X127741703Y-65604482D01*
X130205503Y-64994882D01*
X130233014Y-64984575D01*
X131030416Y-64575098D01*
X131041608Y-64619867D01*
X131345788Y-66166114D01*
X131346231Y-66166027D01*
X131345900Y-66173316D01*
X131422976Y-66500888D01*
X131424805Y-66507785D01*
X131755005Y-67625385D01*
X131760523Y-67640475D01*
X132354415Y-68992527D01*
X132984214Y-71055662D01*
X132966055Y-71073293D01*
X132946419Y-71118790D01*
X132945689Y-71168337D01*
X132961698Y-71210741D01*
X133266498Y-71718741D01*
X133299793Y-71755442D01*
X133344598Y-71776608D01*
X133394092Y-71779017D01*
X133432196Y-71766992D01*
X133557780Y-71704200D01*
X133655370Y-71704200D01*
X133708852Y-71935957D01*
X133711333Y-71945127D01*
X134280293Y-73773927D01*
X134292363Y-73796128D01*
X134297627Y-73829643D01*
X134422533Y-74231127D01*
X134427240Y-74243827D01*
X135573372Y-76893082D01*
X135601542Y-76933849D01*
X135643169Y-76960732D01*
X135691915Y-76969640D01*
X135740359Y-76959215D01*
X135781126Y-76931045D01*
X135808009Y-76889418D01*
X135816917Y-76840672D01*
X135807476Y-76794569D01*
X135118544Y-75110514D01*
X135117843Y-75108834D01*
X134535737Y-73742150D01*
X134526043Y-73727950D01*
X134523204Y-73699707D01*
X133886511Y-71577396D01*
X133878739Y-71562748D01*
X133875504Y-71540707D01*
X133865262Y-71506566D01*
X134123625Y-70848915D01*
X134236972Y-70678894D01*
X134497089Y-70641734D01*
X134636015Y-70711198D01*
X134781888Y-70919588D01*
X134800857Y-70995462D01*
X134851066Y-71246507D01*
X134853956Y-71258093D01*
X135006356Y-71766093D01*
X135029581Y-71809866D01*
X135060690Y-71837296D01*
X135262322Y-71963316D01*
X135397158Y-72053206D01*
X135715234Y-72444685D01*
X135763772Y-72481331D01*
X135883671Y-72532716D01*
X135893507Y-72572062D01*
X135969452Y-72901157D01*
X135986055Y-72940783D01*
X136151867Y-73201345D01*
X136197824Y-73408150D01*
X136231997Y-73470403D01*
X136451708Y-73690114D01*
X136597130Y-73908247D01*
X136598758Y-73910630D01*
X136767333Y-74151451D01*
X136833888Y-74328931D01*
X136879644Y-74580591D01*
X136855639Y-74868653D01*
X136860816Y-74916549D01*
X136962416Y-75246749D01*
X136963317Y-75249561D01*
X137064917Y-75554361D01*
X137082056Y-75588017D01*
X137209056Y-75765817D01*
X137259847Y-75807617D01*
X137534595Y-75932502D01*
X137693400Y-76020727D01*
X137693400Y-76301600D01*
X137695128Y-76322479D01*
X137745928Y-76627279D01*
X137753283Y-76653567D01*
X138005058Y-77283004D01*
X138130361Y-77709035D01*
X138153030Y-77752536D01*
X138254630Y-77879536D01*
X138292539Y-77911448D01*
X138328893Y-77924734D01*
X138455893Y-77950134D01*
X138505446Y-77950186D01*
X138546141Y-77934502D01*
X138756702Y-77808165D01*
X138935850Y-77847976D01*
X138985390Y-77849082D01*
X139033847Y-77829670D01*
X139110047Y-77778870D01*
X139147761Y-77739760D01*
X139298180Y-77495330D01*
X139431239Y-77539683D01*
X139471400Y-77546200D01*
X139852400Y-77546200D01*
X139901001Y-77536533D01*
X139942203Y-77509003D01*
X139964641Y-77478622D01*
X140184305Y-77063701D01*
X140424803Y-76823203D01*
X140442145Y-76801583D01*
X140619945Y-76522183D01*
X140624155Y-76515066D01*
X140997769Y-75833770D01*
X141012063Y-75791182D01*
X141121049Y-75050078D01*
X141118555Y-75000588D01*
X141094570Y-74952264D01*
X141043732Y-74888716D01*
X141103368Y-74769445D01*
X141273448Y-74550770D01*
X141295655Y-74506472D01*
X141299678Y-74461302D01*
X141280602Y-74251471D01*
X141555433Y-74040063D01*
X141594731Y-73989428D01*
X141639241Y-73885570D01*
X143699610Y-73885570D01*
X143704838Y-73934846D01*
X143716389Y-73961059D01*
X143729419Y-73983396D01*
X143762258Y-74020505D01*
X143806799Y-74042223D01*
X143856260Y-74045242D01*
X143903111Y-74029104D01*
X143940220Y-73996265D01*
X143963652Y-73944315D01*
X143964733Y-73938911D01*
X143964786Y-73889358D01*
X143937764Y-73832696D01*
X143923653Y-73815763D01*
X143885112Y-73784616D01*
X143837586Y-73770588D01*
X143788310Y-73775816D01*
X143744785Y-73799503D01*
X143713638Y-73838044D01*
X143699610Y-73885570D01*
X141639241Y-73885570D01*
X141645051Y-73872015D01*
X142292010Y-73733381D01*
X142303281Y-73730419D01*
X142709681Y-73603419D01*
X142744630Y-73586242D01*
X142956113Y-73438204D01*
X143199891Y-73478834D01*
X143419039Y-73551883D01*
X143468203Y-73558080D01*
X143515996Y-73544992D01*
X143549003Y-73521203D01*
X143955403Y-73114803D01*
X143982933Y-73073601D01*
X143991324Y-73042961D01*
X144016724Y-72865161D01*
X144017561Y-72836653D01*
X143992161Y-72531853D01*
X143978491Y-72484223D01*
X143947635Y-72445450D01*
X143912767Y-72424483D01*
X143465892Y-72245733D01*
X144179767Y-71594847D01*
X144198242Y-71573830D01*
X144553842Y-71065830D01*
X144556095Y-71062501D01*
X144987895Y-70402101D01*
X145005348Y-70361157D01*
X145372048Y-68772125D01*
X146146355Y-68430519D01*
X147052350Y-68528464D01*
X147101708Y-68524077D01*
X147143970Y-68502448D01*
X148198473Y-67682279D01*
X148906597Y-68390403D01*
X148929840Y-68408761D01*
X149590240Y-68815161D01*
X149612895Y-68826170D01*
X151059725Y-69359213D01*
X151108672Y-69366943D01*
X151156850Y-69355354D01*
X151196927Y-69326210D01*
X151222800Y-69283948D01*
X151230607Y-69242485D01*
X151231577Y-69192042D01*
X151222845Y-69143264D01*
X151196113Y-69101541D01*
X151148320Y-69070363D01*
X150478128Y-68824626D01*
X150748452Y-65924788D01*
X150748838Y-65906578D01*
X150653203Y-64017788D01*
X150906028Y-63986184D01*
X151059363Y-64058342D01*
X151107454Y-64070289D01*
X151156456Y-64062923D01*
X151198910Y-64037365D01*
X151228351Y-63997506D01*
X151240298Y-63949415D01*
X151232932Y-63900413D01*
X151227856Y-63891070D01*
X151215242Y-63777544D01*
X151368300Y-63823462D01*
X151694010Y-63948735D01*
X151695007Y-63949114D01*
X152093596Y-64098585D01*
X152467235Y-64297859D01*
X152506121Y-64311072D01*
X153115721Y-64412672D01*
X153126053Y-64413961D01*
X153735653Y-64464761D01*
X153749726Y-64465151D01*
X154664126Y-64439751D01*
X154668283Y-64439567D01*
X155505988Y-64388797D01*
X155988075Y-64363424D01*
X156006307Y-64361134D01*
X156641307Y-64234134D01*
X156644957Y-64233348D01*
X156975157Y-64157148D01*
X157000676Y-64148312D01*
X157423171Y-63949491D01*
X157591090Y-63901514D01*
X157635165Y-63878867D01*
X157658909Y-63854098D01*
X157862109Y-63574698D01*
X157881044Y-63536493D01*
X157957244Y-63282493D01*
X157957714Y-63280890D01*
X158059314Y-62925290D01*
X158064200Y-62890400D01*
X158064200Y-62484000D01*
X158048693Y-62423186D01*
X157896293Y-62143786D01*
X157895250Y-62141912D01*
X157361850Y-61202112D01*
X157348350Y-61182765D01*
X156789550Y-60522365D01*
X156786014Y-60518361D01*
X155897014Y-59553161D01*
X155884212Y-59541064D01*
X155173012Y-58956864D01*
X155132561Y-58934517D01*
X154370906Y-58680632D01*
X153330039Y-58325214D01*
X153316878Y-58321498D01*
X152300878Y-58092898D01*
X152293329Y-58091438D01*
X151353529Y-57939038D01*
X151345837Y-57938030D01*
X150938652Y-57897311D01*
X150925819Y-57794648D01*
X150925072Y-57789521D01*
X150772672Y-56875121D01*
X150771332Y-56868254D01*
X150390332Y-55166454D01*
X150389608Y-55163398D01*
X150186408Y-54350598D01*
X150184055Y-54342374D01*
X149402800Y-51923004D01*
X149402800Y-51816000D01*
X149392531Y-51765972D01*
X148859131Y-50521372D01*
X148858616Y-50520186D01*
X148198216Y-49021586D01*
X148187670Y-49002353D01*
X147884429Y-48547491D01*
X147225478Y-47457688D01*
X147219509Y-47448702D01*
X146813109Y-46889902D01*
X146812642Y-46889264D01*
X146457042Y-46406664D01*
X146449198Y-46397041D01*
X145992497Y-45889595D01*
X145434697Y-45255731D01*
X145130426Y-44900749D01*
X145119817Y-44889781D01*
X144815017Y-44610381D01*
X144803687Y-44601137D01*
X144085594Y-44081138D01*
X143945870Y-43871553D01*
X143918170Y-43841752D01*
X143843999Y-43784064D01*
X143962565Y-43762506D01*
X144462418Y-43687528D01*
X144960982Y-43662600D01*
X145580223Y-43662600D01*
X146329893Y-43812534D01*
X146347755Y-43814804D01*
X146804955Y-43840204D01*
X146854018Y-43833248D01*
X146896683Y-43808046D01*
X146926456Y-43768434D01*
X146939000Y-43713400D01*
X146939000Y-43688000D01*
X146929333Y-43639399D01*
X146901803Y-43598197D01*
X146877341Y-43579098D01*
X146750341Y-43502898D01*
X146741796Y-43498208D01*
X146487796Y-43371208D01*
X146473715Y-43365199D01*
X146118115Y-43238199D01*
X146106202Y-43234592D01*
X145598202Y-43107592D01*
X145587207Y-43105354D01*
X145104607Y-43029154D01*
X145090841Y-43027744D01*
X144557441Y-43002344D01*
X144545058Y-43002358D01*
X144037058Y-43027758D01*
X144006051Y-43033216D01*
X143675851Y-43134816D01*
X143656404Y-43142608D01*
X143300804Y-43320408D01*
X143273970Y-43338423D01*
X143229915Y-43376971D01*
X143224469Y-43363861D01*
X143189393Y-43328859D01*
X143143592Y-43309943D01*
X143094039Y-43309995D01*
X143048278Y-43329006D01*
X143013276Y-43364082D01*
X142996284Y-43401620D01*
X142980782Y-43459400D01*
X142379577Y-43459400D01*
X141375907Y-43258666D01*
X141371427Y-43257854D01*
X137942427Y-42699054D01*
X137892904Y-42700778D01*
X137848441Y-42720872D01*
X134952841Y-44778272D01*
X134912441Y-44825744D01*
X132601041Y-49524744D01*
X132593631Y-49543402D01*
X131247431Y-53912202D01*
X131242483Y-53936442D01*
X130871179Y-57500957D01*
X130852957Y-57512144D01*
X130823863Y-57552257D01*
X130812335Y-57600450D01*
X130820127Y-57649387D01*
X130828429Y-57662909D01*
X130694642Y-58866990D01*
X130614239Y-58878476D01*
X130597310Y-58882086D01*
X130247715Y-58981970D01*
X129695082Y-59082449D01*
X129692280Y-59082990D01*
X128714306Y-59283600D01*
X128701800Y-59283600D01*
X128645004Y-59297008D01*
X128343462Y-59447779D01*
X126340194Y-60309945D01*
X126330189Y-60314780D01*
X125999989Y-60492580D01*
X125998247Y-60493536D01*
X125134647Y-60976136D01*
X125116320Y-60988592D01*
X124151120Y-61775992D01*
X124123155Y-61807977D01*
X123437355Y-62925577D01*
X123430289Y-62938780D01*
X123277889Y-63268980D01*
X123271556Y-63285707D01*
X123195356Y-63539707D01*
X123192335Y-63551960D01*
X123014535Y-64466360D01*
X122023785Y-64466360D01*
X122020406Y-64459296D01*
X121996420Y-63883637D01*
X122071961Y-62977147D01*
X122072053Y-62975982D01*
X122121527Y-62308079D01*
X122369174Y-61639433D01*
X122512350Y-61257630D01*
X123076755Y-60668686D01*
X124461077Y-59334702D01*
X125609328Y-58660729D01*
X126261196Y-58384939D01*
X127324108Y-57954712D01*
X127891157Y-57757478D01*
X129242582Y-57622336D01*
X129289980Y-57607880D01*
X129328238Y-57576387D01*
X129351531Y-57532651D01*
X129355540Y-57477127D01*
X129211903Y-56519545D01*
X130194250Y-52111577D01*
X131635916Y-49076490D01*
X131646795Y-49040839D01*
X131799195Y-48024839D01*
X131800442Y-48012342D01*
X131851242Y-46996342D01*
X131848024Y-46960912D01*
X131650313Y-46120639D01*
X131722877Y-45612693D01*
X131868152Y-44765254D01*
X132367890Y-44265516D01*
X133345052Y-43488798D01*
X134098413Y-43061893D01*
X134125603Y-43041203D01*
X134633603Y-42533203D01*
X134644293Y-42521054D01*
X135072932Y-41966345D01*
X135827410Y-41138852D01*
X138019051Y-40765277D01*
X138934627Y-40616806D01*
X143368554Y-41575493D01*
X143368554Y-41575493D01*
G37*
X143368554Y-41575493D02*
X143418100Y-41576315D01*
X143464189Y-41558114D01*
X143467634Y-41554400D01*
X143803084Y-41554400D01*
X144883771Y-41755458D01*
X144885809Y-41755820D01*
X146524400Y-42033120D01*
X147314851Y-42335351D01*
X147574000Y-43348387D01*
X147574000Y-45008800D01*
X147581507Y-45051817D01*
X147810107Y-45686817D01*
X147826966Y-45718601D01*
X148911583Y-47206796D01*
X150476978Y-50640567D01*
X151922129Y-55787332D01*
X151944574Y-55831510D01*
X151982218Y-55863736D01*
X152023521Y-55878272D01*
X152472025Y-55953023D01*
X154154949Y-56480506D01*
X155764903Y-57310639D01*
X158100818Y-58842798D01*
X159264492Y-60526412D01*
X159785290Y-63601601D01*
X159306732Y-64391222D01*
X158566131Y-65279943D01*
X157125977Y-66074511D01*
X155605197Y-66523265D01*
X154251545Y-66572489D01*
X153159286Y-66125656D01*
X153110644Y-66116201D01*
X153062086Y-66126081D01*
X153021005Y-66153792D01*
X152990717Y-66203039D01*
X152957103Y-66303880D01*
X152950905Y-66353044D01*
X152976094Y-66420385D01*
X153388993Y-66969297D01*
X153162494Y-72984089D01*
X150599294Y-85229080D01*
X150596603Y-85254245D01*
X150520403Y-96569945D01*
X150539704Y-96638110D01*
X151047704Y-97450910D01*
X151078129Y-97484388D01*
X151837496Y-98066570D01*
X153730569Y-99681992D01*
X154586074Y-100760672D01*
X154851701Y-101509258D01*
X154900570Y-103280747D01*
X154000168Y-104302825D01*
X152535650Y-105529516D01*
X150748982Y-106309610D01*
X150734143Y-106317289D01*
X148173834Y-107863614D01*
X147442587Y-108216630D01*
X147403402Y-108246041D01*
X147182337Y-108491669D01*
X146962630Y-108662552D01*
X146924672Y-108710938D01*
X146708772Y-109193538D01*
X146703481Y-109207519D01*
X146583999Y-109589861D01*
X146409636Y-109799097D01*
X146381476Y-109862439D01*
X146357002Y-110033759D01*
X146307792Y-110230598D01*
X146305383Y-110280092D01*
X146316676Y-110311609D01*
X146217907Y-110492686D01*
X146203270Y-110538661D01*
X146197953Y-110583858D01*
X146191052Y-110589830D01*
X146167458Y-110639654D01*
X146045744Y-111175197D01*
X145767008Y-111587241D01*
X145758608Y-111601604D01*
X145584845Y-111949130D01*
X145361382Y-112271910D01*
X145351430Y-112288987D01*
X145001406Y-113014036D01*
X144611275Y-113526083D01*
X144149311Y-113915105D01*
X143559038Y-114234837D01*
X142889320Y-114482880D01*
X142239731Y-114632786D01*
X141699657Y-114730981D01*
X141378012Y-114708006D01*
X140913400Y-114536834D01*
X140420445Y-114344461D01*
X140021938Y-113922512D01*
X139651493Y-113145772D01*
X139851070Y-110626107D01*
X140711581Y-107449809D01*
X140714835Y-107433759D01*
X140941832Y-105769114D01*
X141344483Y-104561161D01*
X141348193Y-104547552D01*
X142135593Y-100864552D01*
X142138369Y-100835209D01*
X142087569Y-98523809D01*
X142084984Y-98500954D01*
X141576984Y-96037154D01*
X141571864Y-96019152D01*
X139931442Y-91536871D01*
X141865889Y-91536871D01*
X141870552Y-91603319D01*
X142159847Y-92433264D01*
X142184972Y-92475975D01*
X142224530Y-92505819D01*
X142272497Y-92518254D01*
X142321572Y-92511385D01*
X142364283Y-92486260D01*
X142394127Y-92446702D01*
X142406739Y-92388641D01*
X142392369Y-91741979D01*
X142381624Y-91693604D01*
X142335847Y-91639130D01*
X142060922Y-91455847D01*
X142015121Y-91436931D01*
X141965568Y-91436983D01*
X141919807Y-91455994D01*
X141884805Y-91491070D01*
X141865889Y-91536871D01*
X139931442Y-91536871D01*
X139768464Y-91091552D01*
X139764637Y-91082253D01*
X135395837Y-81557253D01*
X135353639Y-81506445D01*
X133441985Y-80157042D01*
X133060951Y-79167491D01*
X136506458Y-79167491D01*
X136514918Y-79206262D01*
X136559073Y-79319528D01*
X136561140Y-79324514D01*
X136965305Y-80243791D01*
X136993716Y-80284391D01*
X137035500Y-80311028D01*
X137068239Y-80316811D01*
X137046834Y-80360711D01*
X137043814Y-80410172D01*
X137053392Y-80444146D01*
X137856446Y-82270700D01*
X138155156Y-82957732D01*
X138183400Y-82998448D01*
X138215296Y-83018965D01*
X138208715Y-83058200D01*
X138219189Y-83105009D01*
X138618332Y-84023038D01*
X138646576Y-84063754D01*
X138688251Y-84090562D01*
X138737013Y-84099381D01*
X138765600Y-84095609D01*
X138778157Y-84092470D01*
X138799144Y-84082556D01*
X138803124Y-84083223D01*
X138830080Y-84079489D01*
X138867203Y-84070208D01*
X138915736Y-84046170D01*
X138954685Y-84015011D01*
X139405277Y-84987341D01*
X140952416Y-88969322D01*
X141461688Y-90430348D01*
X141486813Y-90473059D01*
X141526371Y-90502903D01*
X141574338Y-90515338D01*
X141623413Y-90508469D01*
X141666124Y-90483344D01*
X141695968Y-90443786D01*
X141706145Y-90413453D01*
X141780334Y-90042507D01*
X141776025Y-89976672D01*
X141380321Y-88814290D01*
X141487635Y-88234792D01*
X141949961Y-88080683D01*
X141992451Y-88056626D01*
X142312381Y-87782400D01*
X142651370Y-87782400D01*
X143766362Y-88707606D01*
X143789501Y-89286076D01*
X143793192Y-89311802D01*
X143920192Y-89819802D01*
X143928973Y-89844095D01*
X144194984Y-90396580D01*
X143440229Y-90627200D01*
X142748000Y-90627200D01*
X142699399Y-90636867D01*
X142658197Y-90664397D01*
X142630667Y-90705599D01*
X142621000Y-90754200D01*
X142630667Y-90802801D01*
X142658197Y-90844003D01*
X142699399Y-90871533D01*
X142737453Y-90880761D01*
X143956653Y-90982361D01*
X143972276Y-90982699D01*
X144550864Y-90959555D01*
X145598213Y-92030708D01*
X145665478Y-92658513D01*
X144668624Y-94477772D01*
X144653748Y-94525039D01*
X144656792Y-94569602D01*
X145063192Y-96195202D01*
X145074015Y-96223550D01*
X145298150Y-96649406D01*
X144963919Y-97340151D01*
X144780216Y-97432002D01*
X144393139Y-96202464D01*
X144372663Y-96163167D01*
X143620875Y-95185843D01*
X143068496Y-93855111D01*
X143057682Y-93834586D01*
X142738713Y-93343865D01*
X142704121Y-93308385D01*
X142658584Y-93288843D01*
X142609035Y-93288215D01*
X142563017Y-93306597D01*
X142527537Y-93341189D01*
X142507995Y-93386726D01*
X142509413Y-93445400D01*
X143005245Y-95329559D01*
X143915910Y-99832295D01*
X143891094Y-100477519D01*
X143891000Y-100482400D01*
X143891000Y-100701222D01*
X143756698Y-100925059D01*
X143756037Y-100926174D01*
X143326090Y-101659613D01*
X143175730Y-101885153D01*
X143163483Y-101908433D01*
X143067563Y-102148233D01*
X142949456Y-102313583D01*
X142926914Y-102370615D01*
X142876114Y-102751615D01*
X142875000Y-102768400D01*
X142875000Y-103022400D01*
X142875512Y-103033795D01*
X143127796Y-105834152D01*
X142953964Y-106653647D01*
X142953915Y-106653882D01*
X142217315Y-110159082D01*
X142216195Y-110165135D01*
X142114595Y-110800135D01*
X142114276Y-110802239D01*
X142038076Y-111335639D01*
X142037174Y-111363340D01*
X142087600Y-112018878D01*
X142087600Y-112674400D01*
X142102780Y-112734611D01*
X142280580Y-113064811D01*
X142312134Y-113103019D01*
X142376648Y-113130619D01*
X142579848Y-113156019D01*
X142629272Y-113152455D01*
X142685403Y-113119803D01*
X143244203Y-112561003D01*
X143256000Y-112547400D01*
X143637000Y-112039400D01*
X143644793Y-112027714D01*
X144219864Y-111052594D01*
X144664001Y-110633131D01*
X144691003Y-110596358D01*
X145146693Y-109659663D01*
X145526018Y-108976877D01*
X145536839Y-108951035D01*
X145656678Y-108543583D01*
X146072510Y-108029908D01*
X146076756Y-108024357D01*
X146405629Y-107568995D01*
X146750101Y-107126101D01*
X147421759Y-106603701D01*
X147976201Y-106200470D01*
X148481414Y-105872082D01*
X148483488Y-105870705D01*
X151398751Y-103893396D01*
X151824422Y-103668041D01*
X151843463Y-103655662D01*
X152554663Y-103096862D01*
X152586906Y-103059234D01*
X152602423Y-103011025D01*
X152653223Y-102553825D01*
X152653677Y-102530752D01*
X152577477Y-101463952D01*
X152565293Y-101418043D01*
X152260493Y-100783043D01*
X152216447Y-100732330D01*
X151999681Y-100587819D01*
X151526875Y-100090129D01*
X151524603Y-100087797D01*
X151170086Y-99733280D01*
X150663166Y-99201014D01*
X150658544Y-99196404D01*
X150175944Y-98739204D01*
X150168198Y-98732440D01*
X148999798Y-97792640D01*
X148990647Y-97785930D01*
X148767386Y-97637089D01*
X147935503Y-96952009D01*
X147847164Y-96709076D01*
X147670520Y-96103440D01*
X147667694Y-96094891D01*
X147426844Y-95444597D01*
X147474903Y-95453175D01*
X147523304Y-95442552D01*
X147563955Y-95414215D01*
X147590668Y-95372479D01*
X147599375Y-95323697D01*
X147594925Y-95292784D01*
X147370461Y-94469748D01*
X147345423Y-93217874D01*
X147370779Y-91823309D01*
X147368334Y-91796093D01*
X147298748Y-91448165D01*
X147440483Y-91022961D01*
X147444483Y-91007961D01*
X147927083Y-88620361D01*
X147927799Y-88616511D01*
X148130611Y-87424991D01*
X149349344Y-81559838D01*
X149352000Y-81534000D01*
X149352000Y-81422634D01*
X149424408Y-81133002D01*
X149426472Y-81123079D01*
X149477272Y-80818279D01*
X149475726Y-80768750D01*
X149455344Y-80723583D01*
X149419229Y-80689654D01*
X149372879Y-80672128D01*
X149323350Y-80673674D01*
X149278183Y-80694056D01*
X149244254Y-80730171D01*
X149228376Y-80768312D01*
X149033451Y-81596743D01*
X148635949Y-81994245D01*
X148304258Y-81697469D01*
X148482358Y-81140907D01*
X148487963Y-81091672D01*
X148474300Y-81044040D01*
X148443449Y-81005262D01*
X148400107Y-80981242D01*
X148350872Y-80975637D01*
X148303240Y-80989300D01*
X148277770Y-81006623D01*
X148074570Y-81184423D01*
X148049298Y-81214659D01*
X147925803Y-81420484D01*
X147832794Y-81439086D01*
X147794514Y-81337007D01*
X147768397Y-81294895D01*
X147728153Y-81265983D01*
X147693561Y-81255876D01*
X147515761Y-81230476D01*
X147466281Y-81233173D01*
X147415149Y-81259774D01*
X147345400Y-81319559D01*
X147345400Y-81229200D01*
X147335733Y-81180599D01*
X147308203Y-81139397D01*
X147267001Y-81111867D01*
X147247472Y-81107983D01*
X147241334Y-81077293D01*
X147222470Y-81031753D01*
X147120870Y-80879353D01*
X147120220Y-80878387D01*
X146688420Y-80243387D01*
X146662736Y-80215630D01*
X146551133Y-80126348D01*
X146409670Y-79914153D01*
X146380200Y-79883000D01*
X146312778Y-79832433D01*
X146273714Y-79695710D01*
X146261867Y-79667590D01*
X146171059Y-79508676D01*
X146073351Y-78971282D01*
X146073115Y-78970016D01*
X146060545Y-78904647D01*
X149530392Y-78904647D01*
X149544701Y-78952089D01*
X149576076Y-78990444D01*
X149619741Y-79013873D01*
X149669047Y-79018808D01*
X149716489Y-79004499D01*
X149754844Y-78973124D01*
X149777283Y-78932561D01*
X149853483Y-78703961D01*
X149853833Y-78702893D01*
X150133233Y-77839293D01*
X150136466Y-77827339D01*
X150193187Y-77568041D01*
X150194129Y-77518497D01*
X150176040Y-77472364D01*
X150141673Y-77436665D01*
X150096260Y-77416836D01*
X150046716Y-77415894D01*
X150000583Y-77433983D01*
X149964884Y-77468350D01*
X149947648Y-77503843D01*
X149535327Y-78855341D01*
X149530392Y-78904647D01*
X146060545Y-78904647D01*
X145947306Y-78315808D01*
X145922478Y-78042702D01*
X145921724Y-78036239D01*
X145896324Y-77858439D01*
X145879880Y-77811694D01*
X145854230Y-77780823D01*
X145654222Y-77605816D01*
X145479403Y-77430997D01*
X145446396Y-77407208D01*
X145412127Y-77390073D01*
X145389513Y-76779500D01*
X145388823Y-76770175D01*
X145365754Y-76562551D01*
X145411976Y-76354550D01*
X145415000Y-76327000D01*
X145415000Y-75862189D01*
X145511714Y-75523690D01*
X145514872Y-75509679D01*
X145563415Y-75218423D01*
X145607159Y-75109062D01*
X145652707Y-75017965D01*
X150522495Y-75017965D01*
X150524789Y-75067465D01*
X150545852Y-75112318D01*
X150582476Y-75145698D01*
X150629086Y-75162520D01*
X150678586Y-75160226D01*
X150723439Y-75139163D01*
X150756819Y-75102539D01*
X150772249Y-75063557D01*
X150898581Y-74474010D01*
X150900322Y-74463914D01*
X151103522Y-72914514D01*
X151104277Y-72907048D01*
X151180477Y-71840248D01*
X151180777Y-71833642D01*
X151191729Y-71264123D01*
X151182997Y-71215345D01*
X151156265Y-71173622D01*
X151115600Y-71145304D01*
X151067194Y-71134704D01*
X151018416Y-71143436D01*
X150976693Y-71170168D01*
X150948375Y-71210833D01*
X150938010Y-71253591D01*
X150825807Y-73011443D01*
X150522495Y-75017965D01*
X145652707Y-75017965D01*
X145680992Y-74961396D01*
X145694080Y-74913603D01*
X145687883Y-74864439D01*
X145657203Y-74814797D01*
X145430984Y-74588578D01*
X145362025Y-74220795D01*
X145349796Y-74185454D01*
X145044996Y-73601254D01*
X145011736Y-73560830D01*
X144906518Y-73476655D01*
X144820956Y-73305532D01*
X145118099Y-72734103D01*
X145165070Y-72663647D01*
X145183986Y-72617846D01*
X145183934Y-72568293D01*
X145164923Y-72522532D01*
X145129847Y-72487530D01*
X145084046Y-72468614D01*
X145034493Y-72468666D01*
X145006847Y-72477583D01*
X144448047Y-72731583D01*
X144397644Y-72772843D01*
X144067444Y-73230043D01*
X144046826Y-73275102D01*
X144046219Y-73331010D01*
X144114472Y-73649525D01*
X143936778Y-74108568D01*
X143928249Y-74157381D01*
X143939049Y-74205743D01*
X143965411Y-74244217D01*
X143978997Y-74257803D01*
X144020199Y-74285333D01*
X144047921Y-74293272D01*
X144132904Y-74307436D01*
X144308346Y-74702180D01*
X144336919Y-74742665D01*
X144378810Y-74769135D01*
X144406439Y-74776324D01*
X144452931Y-74782966D01*
X144408416Y-75020378D01*
X144295822Y-75132972D01*
X143954990Y-75327733D01*
X143920436Y-75356697D01*
X143323517Y-76073000D01*
X142646400Y-76073000D01*
X142612984Y-76077475D01*
X142341960Y-76151391D01*
X141766374Y-76226467D01*
X141719432Y-76242339D01*
X141673898Y-76287059D01*
X141521498Y-76541059D01*
X141513169Y-76557554D01*
X141259682Y-77165922D01*
X141244163Y-77090542D01*
X141224894Y-77044889D01*
X141189621Y-77010085D01*
X141143714Y-76991429D01*
X141094162Y-76991761D01*
X141048509Y-77011030D01*
X141013705Y-77046303D01*
X140994820Y-77093434D01*
X140972048Y-77218682D01*
X140972866Y-77268228D01*
X140985180Y-77301611D01*
X141063799Y-77447618D01*
X141095352Y-77485826D01*
X141139126Y-77509051D01*
X141156122Y-77510672D01*
X140905597Y-77761197D01*
X140883907Y-77790186D01*
X140731507Y-78069586D01*
X140719252Y-78101843D01*
X140566852Y-78762243D01*
X140568233Y-78824791D01*
X140695233Y-79281991D01*
X140697840Y-79290268D01*
X140991940Y-80123550D01*
X140934810Y-80485371D01*
X140789623Y-80511769D01*
X140474210Y-80331533D01*
X140427216Y-80315814D01*
X140394415Y-80315914D01*
X140013415Y-80366714D01*
X139966518Y-80382720D01*
X139929317Y-80415454D01*
X139907473Y-80459933D01*
X139907313Y-80524658D01*
X140044253Y-81049596D01*
X139928600Y-81203800D01*
X139907173Y-81248481D01*
X139903294Y-81275119D01*
X139878899Y-81909399D01*
X139642846Y-82405110D01*
X139297165Y-82824865D01*
X139275187Y-82864057D01*
X139055482Y-83498761D01*
X138886486Y-83678319D01*
X138872630Y-83700480D01*
X138852776Y-83714136D01*
X138798005Y-83772331D01*
X138451471Y-83002255D01*
X138422711Y-82961902D01*
X138391790Y-82942563D01*
X138398605Y-82904881D01*
X138388716Y-82857915D01*
X137887646Y-81664893D01*
X137583714Y-80854407D01*
X137574500Y-80835008D01*
X137279352Y-80329040D01*
X137246513Y-80291931D01*
X137201973Y-80270214D01*
X137180682Y-80268914D01*
X137199916Y-80238742D01*
X137208536Y-80189944D01*
X137203679Y-80157787D01*
X137129714Y-79898910D01*
X137121920Y-79878484D01*
X136747565Y-79104818D01*
X136717694Y-79065280D01*
X136674967Y-79040183D01*
X136625888Y-79033347D01*
X136577929Y-79045814D01*
X136538391Y-79075685D01*
X136513294Y-79118412D01*
X136506458Y-79167491D01*
X133060951Y-79167491D01*
X128350417Y-66934164D01*
X128323932Y-66892283D01*
X128283435Y-66863726D01*
X128250512Y-66854171D01*
X127907612Y-66803371D01*
X127897738Y-66802301D01*
X127161138Y-66751501D01*
X127152400Y-66751200D01*
X126272016Y-66751200D01*
X125176430Y-66601802D01*
X124630401Y-66403246D01*
X124629858Y-66403050D01*
X123306689Y-65928706D01*
X122438893Y-65160087D01*
X122279184Y-65000378D01*
X122023785Y-64466360D01*
X123014535Y-64466360D01*
X123014748Y-64515912D01*
X123040907Y-64571021D01*
X123269507Y-64850421D01*
X123328937Y-64890908D01*
X124040137Y-65119508D01*
X124041941Y-65120073D01*
X125540541Y-65577273D01*
X125576088Y-65582791D01*
X127709688Y-65608191D01*
X127741703Y-65604482D01*
X130205503Y-64994882D01*
X130233014Y-64984575D01*
X131030416Y-64575098D01*
X131041608Y-64619867D01*
X131345788Y-66166114D01*
X131346231Y-66166027D01*
X131345900Y-66173316D01*
X131422976Y-66500888D01*
X131424805Y-66507785D01*
X131755005Y-67625385D01*
X131760523Y-67640475D01*
X132354415Y-68992527D01*
X132984214Y-71055662D01*
X132966055Y-71073293D01*
X132946419Y-71118790D01*
X132945689Y-71168337D01*
X132961698Y-71210741D01*
X133266498Y-71718741D01*
X133299793Y-71755442D01*
X133344598Y-71776608D01*
X133394092Y-71779017D01*
X133432196Y-71766992D01*
X133557780Y-71704200D01*
X133655370Y-71704200D01*
X133708852Y-71935957D01*
X133711333Y-71945127D01*
X134280293Y-73773927D01*
X134292363Y-73796128D01*
X134297627Y-73829643D01*
X134422533Y-74231127D01*
X134427240Y-74243827D01*
X135573372Y-76893082D01*
X135601542Y-76933849D01*
X135643169Y-76960732D01*
X135691915Y-76969640D01*
X135740359Y-76959215D01*
X135781126Y-76931045D01*
X135808009Y-76889418D01*
X135816917Y-76840672D01*
X135807476Y-76794569D01*
X135118544Y-75110514D01*
X135117843Y-75108834D01*
X134535737Y-73742150D01*
X134526043Y-73727950D01*
X134523204Y-73699707D01*
X133886511Y-71577396D01*
X133878739Y-71562748D01*
X133875504Y-71540707D01*
X133865262Y-71506566D01*
X134123625Y-70848915D01*
X134236972Y-70678894D01*
X134497089Y-70641734D01*
X134636015Y-70711198D01*
X134781888Y-70919588D01*
X134800857Y-70995462D01*
X134851066Y-71246507D01*
X134853956Y-71258093D01*
X135006356Y-71766093D01*
X135029581Y-71809866D01*
X135060690Y-71837296D01*
X135262322Y-71963316D01*
X135397158Y-72053206D01*
X135715234Y-72444685D01*
X135763772Y-72481331D01*
X135883671Y-72532716D01*
X135893507Y-72572062D01*
X135969452Y-72901157D01*
X135986055Y-72940783D01*
X136151867Y-73201345D01*
X136197824Y-73408150D01*
X136231997Y-73470403D01*
X136451708Y-73690114D01*
X136597130Y-73908247D01*
X136598758Y-73910630D01*
X136767333Y-74151451D01*
X136833888Y-74328931D01*
X136879644Y-74580591D01*
X136855639Y-74868653D01*
X136860816Y-74916549D01*
X136962416Y-75246749D01*
X136963317Y-75249561D01*
X137064917Y-75554361D01*
X137082056Y-75588017D01*
X137209056Y-75765817D01*
X137259847Y-75807617D01*
X137534595Y-75932502D01*
X137693400Y-76020727D01*
X137693400Y-76301600D01*
X137695128Y-76322479D01*
X137745928Y-76627279D01*
X137753283Y-76653567D01*
X138005058Y-77283004D01*
X138130361Y-77709035D01*
X138153030Y-77752536D01*
X138254630Y-77879536D01*
X138292539Y-77911448D01*
X138328893Y-77924734D01*
X138455893Y-77950134D01*
X138505446Y-77950186D01*
X138546141Y-77934502D01*
X138756702Y-77808165D01*
X138935850Y-77847976D01*
X138985390Y-77849082D01*
X139033847Y-77829670D01*
X139110047Y-77778870D01*
X139147761Y-77739760D01*
X139298180Y-77495330D01*
X139431239Y-77539683D01*
X139471400Y-77546200D01*
X139852400Y-77546200D01*
X139901001Y-77536533D01*
X139942203Y-77509003D01*
X139964641Y-77478622D01*
X140184305Y-77063701D01*
X140424803Y-76823203D01*
X140442145Y-76801583D01*
X140619945Y-76522183D01*
X140624155Y-76515066D01*
X140997769Y-75833770D01*
X141012063Y-75791182D01*
X141121049Y-75050078D01*
X141118555Y-75000588D01*
X141094570Y-74952264D01*
X141043732Y-74888716D01*
X141103368Y-74769445D01*
X141273448Y-74550770D01*
X141295655Y-74506472D01*
X141299678Y-74461302D01*
X141280602Y-74251471D01*
X141555433Y-74040063D01*
X141594731Y-73989428D01*
X141639241Y-73885570D01*
X143699610Y-73885570D01*
X143704838Y-73934846D01*
X143716389Y-73961059D01*
X143729419Y-73983396D01*
X143762258Y-74020505D01*
X143806799Y-74042223D01*
X143856260Y-74045242D01*
X143903111Y-74029104D01*
X143940220Y-73996265D01*
X143963652Y-73944315D01*
X143964733Y-73938911D01*
X143964786Y-73889358D01*
X143937764Y-73832696D01*
X143923653Y-73815763D01*
X143885112Y-73784616D01*
X143837586Y-73770588D01*
X143788310Y-73775816D01*
X143744785Y-73799503D01*
X143713638Y-73838044D01*
X143699610Y-73885570D01*
X141639241Y-73885570D01*
X141645051Y-73872015D01*
X142292010Y-73733381D01*
X142303281Y-73730419D01*
X142709681Y-73603419D01*
X142744630Y-73586242D01*
X142956113Y-73438204D01*
X143199891Y-73478834D01*
X143419039Y-73551883D01*
X143468203Y-73558080D01*
X143515996Y-73544992D01*
X143549003Y-73521203D01*
X143955403Y-73114803D01*
X143982933Y-73073601D01*
X143991324Y-73042961D01*
X144016724Y-72865161D01*
X144017561Y-72836653D01*
X143992161Y-72531853D01*
X143978491Y-72484223D01*
X143947635Y-72445450D01*
X143912767Y-72424483D01*
X143465892Y-72245733D01*
X144179767Y-71594847D01*
X144198242Y-71573830D01*
X144553842Y-71065830D01*
X144556095Y-71062501D01*
X144987895Y-70402101D01*
X145005348Y-70361157D01*
X145372048Y-68772125D01*
X146146355Y-68430519D01*
X147052350Y-68528464D01*
X147101708Y-68524077D01*
X147143970Y-68502448D01*
X148198473Y-67682279D01*
X148906597Y-68390403D01*
X148929840Y-68408761D01*
X149590240Y-68815161D01*
X149612895Y-68826170D01*
X151059725Y-69359213D01*
X151108672Y-69366943D01*
X151156850Y-69355354D01*
X151196927Y-69326210D01*
X151222800Y-69283948D01*
X151230607Y-69242485D01*
X151231577Y-69192042D01*
X151222845Y-69143264D01*
X151196113Y-69101541D01*
X151148320Y-69070363D01*
X150478128Y-68824626D01*
X150748452Y-65924788D01*
X150748838Y-65906578D01*
X150653203Y-64017788D01*
X150906028Y-63986184D01*
X151059363Y-64058342D01*
X151107454Y-64070289D01*
X151156456Y-64062923D01*
X151198910Y-64037365D01*
X151228351Y-63997506D01*
X151240298Y-63949415D01*
X151232932Y-63900413D01*
X151227856Y-63891070D01*
X151215242Y-63777544D01*
X151368300Y-63823462D01*
X151694010Y-63948735D01*
X151695007Y-63949114D01*
X152093596Y-64098585D01*
X152467235Y-64297859D01*
X152506121Y-64311072D01*
X153115721Y-64412672D01*
X153126053Y-64413961D01*
X153735653Y-64464761D01*
X153749726Y-64465151D01*
X154664126Y-64439751D01*
X154668283Y-64439567D01*
X155505988Y-64388797D01*
X155988075Y-64363424D01*
X156006307Y-64361134D01*
X156641307Y-64234134D01*
X156644957Y-64233348D01*
X156975157Y-64157148D01*
X157000676Y-64148312D01*
X157423171Y-63949491D01*
X157591090Y-63901514D01*
X157635165Y-63878867D01*
X157658909Y-63854098D01*
X157862109Y-63574698D01*
X157881044Y-63536493D01*
X157957244Y-63282493D01*
X157957714Y-63280890D01*
X158059314Y-62925290D01*
X158064200Y-62890400D01*
X158064200Y-62484000D01*
X158048693Y-62423186D01*
X157896293Y-62143786D01*
X157895250Y-62141912D01*
X157361850Y-61202112D01*
X157348350Y-61182765D01*
X156789550Y-60522365D01*
X156786014Y-60518361D01*
X155897014Y-59553161D01*
X155884212Y-59541064D01*
X155173012Y-58956864D01*
X155132561Y-58934517D01*
X154370906Y-58680632D01*
X153330039Y-58325214D01*
X153316878Y-58321498D01*
X152300878Y-58092898D01*
X152293329Y-58091438D01*
X151353529Y-57939038D01*
X151345837Y-57938030D01*
X150938652Y-57897311D01*
X150925819Y-57794648D01*
X150925072Y-57789521D01*
X150772672Y-56875121D01*
X150771332Y-56868254D01*
X150390332Y-55166454D01*
X150389608Y-55163398D01*
X150186408Y-54350598D01*
X150184055Y-54342374D01*
X149402800Y-51923004D01*
X149402800Y-51816000D01*
X149392531Y-51765972D01*
X148859131Y-50521372D01*
X148858616Y-50520186D01*
X148198216Y-49021586D01*
X148187670Y-49002353D01*
X147884429Y-48547491D01*
X147225478Y-47457688D01*
X147219509Y-47448702D01*
X146813109Y-46889902D01*
X146812642Y-46889264D01*
X146457042Y-46406664D01*
X146449198Y-46397041D01*
X145992497Y-45889595D01*
X145434697Y-45255731D01*
X145130426Y-44900749D01*
X145119817Y-44889781D01*
X144815017Y-44610381D01*
X144803687Y-44601137D01*
X144085594Y-44081138D01*
X143945870Y-43871553D01*
X143918170Y-43841752D01*
X143843999Y-43784064D01*
X143962565Y-43762506D01*
X144462418Y-43687528D01*
X144960982Y-43662600D01*
X145580223Y-43662600D01*
X146329893Y-43812534D01*
X146347755Y-43814804D01*
X146804955Y-43840204D01*
X146854018Y-43833248D01*
X146896683Y-43808046D01*
X146926456Y-43768434D01*
X146939000Y-43713400D01*
X146939000Y-43688000D01*
X146929333Y-43639399D01*
X146901803Y-43598197D01*
X146877341Y-43579098D01*
X146750341Y-43502898D01*
X146741796Y-43498208D01*
X146487796Y-43371208D01*
X146473715Y-43365199D01*
X146118115Y-43238199D01*
X146106202Y-43234592D01*
X145598202Y-43107592D01*
X145587207Y-43105354D01*
X145104607Y-43029154D01*
X145090841Y-43027744D01*
X144557441Y-43002344D01*
X144545058Y-43002358D01*
X144037058Y-43027758D01*
X144006051Y-43033216D01*
X143675851Y-43134816D01*
X143656404Y-43142608D01*
X143300804Y-43320408D01*
X143273970Y-43338423D01*
X143229915Y-43376971D01*
X143224469Y-43363861D01*
X143189393Y-43328859D01*
X143143592Y-43309943D01*
X143094039Y-43309995D01*
X143048278Y-43329006D01*
X143013276Y-43364082D01*
X142996284Y-43401620D01*
X142980782Y-43459400D01*
X142379577Y-43459400D01*
X141375907Y-43258666D01*
X141371427Y-43257854D01*
X137942427Y-42699054D01*
X137892904Y-42700778D01*
X137848441Y-42720872D01*
X134952841Y-44778272D01*
X134912441Y-44825744D01*
X132601041Y-49524744D01*
X132593631Y-49543402D01*
X131247431Y-53912202D01*
X131242483Y-53936442D01*
X130871179Y-57500957D01*
X130852957Y-57512144D01*
X130823863Y-57552257D01*
X130812335Y-57600450D01*
X130820127Y-57649387D01*
X130828429Y-57662909D01*
X130694642Y-58866990D01*
X130614239Y-58878476D01*
X130597310Y-58882086D01*
X130247715Y-58981970D01*
X129695082Y-59082449D01*
X129692280Y-59082990D01*
X128714306Y-59283600D01*
X128701800Y-59283600D01*
X128645004Y-59297008D01*
X128343462Y-59447779D01*
X126340194Y-60309945D01*
X126330189Y-60314780D01*
X125999989Y-60492580D01*
X125998247Y-60493536D01*
X125134647Y-60976136D01*
X125116320Y-60988592D01*
X124151120Y-61775992D01*
X124123155Y-61807977D01*
X123437355Y-62925577D01*
X123430289Y-62938780D01*
X123277889Y-63268980D01*
X123271556Y-63285707D01*
X123195356Y-63539707D01*
X123192335Y-63551960D01*
X123014535Y-64466360D01*
X122023785Y-64466360D01*
X122020406Y-64459296D01*
X121996420Y-63883637D01*
X122071961Y-62977147D01*
X122072053Y-62975982D01*
X122121527Y-62308079D01*
X122369174Y-61639433D01*
X122512350Y-61257630D01*
X123076755Y-60668686D01*
X124461077Y-59334702D01*
X125609328Y-58660729D01*
X126261196Y-58384939D01*
X127324108Y-57954712D01*
X127891157Y-57757478D01*
X129242582Y-57622336D01*
X129289980Y-57607880D01*
X129328238Y-57576387D01*
X129351531Y-57532651D01*
X129355540Y-57477127D01*
X129211903Y-56519545D01*
X130194250Y-52111577D01*
X131635916Y-49076490D01*
X131646795Y-49040839D01*
X131799195Y-48024839D01*
X131800442Y-48012342D01*
X131851242Y-46996342D01*
X131848024Y-46960912D01*
X131650313Y-46120639D01*
X131722877Y-45612693D01*
X131868152Y-44765254D01*
X132367890Y-44265516D01*
X133345052Y-43488798D01*
X134098413Y-43061893D01*
X134125603Y-43041203D01*
X134633603Y-42533203D01*
X134644293Y-42521054D01*
X135072932Y-41966345D01*
X135827410Y-41138852D01*
X138019051Y-40765277D01*
X138934627Y-40616806D01*
X143368554Y-41575493D01*
G36*
X130759091Y-59795065D02*
X130733831Y-60931778D01*
X130733800Y-60934600D01*
X130733800Y-61054354D01*
X130559157Y-61014052D01*
X130549439Y-61012205D01*
X130041439Y-60936005D01*
X130022600Y-60934600D01*
X129463800Y-60934600D01*
X129459953Y-60934658D01*
X128621753Y-60960058D01*
X128596512Y-60963376D01*
X128164712Y-61064976D01*
X128143772Y-61071869D01*
X127789628Y-61223645D01*
X127537033Y-61324683D01*
X127530124Y-61327688D01*
X127098324Y-61530888D01*
X127089390Y-61535533D01*
X126733790Y-61738733D01*
X126728124Y-61742170D01*
X126372524Y-61970770D01*
X126363767Y-61976937D01*
X126033567Y-62230937D01*
X126026041Y-62237202D01*
X125772041Y-62465802D01*
X125767197Y-62470397D01*
X125665597Y-62571997D01*
X125638067Y-62613199D01*
X125628400Y-62661800D01*
X125638067Y-62710401D01*
X125665597Y-62751603D01*
X125706799Y-62779133D01*
X125755400Y-62788800D01*
X125821433Y-62770283D01*
X126401120Y-62417430D01*
X128145573Y-61545203D01*
X128875369Y-61569530D01*
X128879600Y-61569600D01*
X130217896Y-61569600D01*
X130603966Y-61617859D01*
X130706803Y-61652138D01*
X130725130Y-61676573D01*
X130710866Y-61747893D01*
X130709177Y-61786825D01*
X130732796Y-61999398D01*
X130723673Y-62063259D01*
X130341937Y-62103442D01*
X129963352Y-62128681D01*
X129957775Y-62129177D01*
X129729175Y-62154577D01*
X129712398Y-62157592D01*
X129509198Y-62208392D01*
X129493969Y-62213235D01*
X129036769Y-62391035D01*
X129014617Y-62402255D01*
X128736642Y-62579148D01*
X128357059Y-62806898D01*
X128351953Y-62810130D01*
X127894753Y-63114930D01*
X127885864Y-63121430D01*
X127631864Y-63324630D01*
X127599952Y-63362539D01*
X127585718Y-63407438D01*
X127356697Y-63575387D01*
X127341997Y-63587997D01*
X127091197Y-63838797D01*
X126713624Y-64166027D01*
X126683228Y-64205163D01*
X126670123Y-64252952D01*
X126676303Y-64302118D01*
X126700827Y-64345176D01*
X126739963Y-64375572D01*
X126787752Y-64388677D01*
X126836918Y-64382497D01*
X126868662Y-64366713D01*
X128164062Y-63477713D01*
X128166898Y-63475709D01*
X128437797Y-63278691D01*
X129582044Y-62706568D01*
X130170977Y-62583874D01*
X130539030Y-62534800D01*
X130786073Y-62534800D01*
X130869694Y-62685319D01*
X130913940Y-62840178D01*
X130960719Y-63191026D01*
X130939466Y-63297293D01*
X130938276Y-63340161D01*
X130949508Y-63418783D01*
X130924423Y-63423800D01*
X130835400Y-63423800D01*
X130764953Y-63445130D01*
X130402257Y-63686927D01*
X130118798Y-63757792D01*
X130106199Y-63761646D01*
X129826799Y-63863246D01*
X129816980Y-63867289D01*
X129486780Y-64019689D01*
X129469553Y-64029330D01*
X129240953Y-64181730D01*
X129221597Y-64197597D01*
X129117867Y-64301327D01*
X128980051Y-64340703D01*
X128811896Y-64364725D01*
X128617696Y-64389000D01*
X128482984Y-64389000D01*
X128512959Y-64314062D01*
X128561392Y-64217196D01*
X128568283Y-64200561D01*
X128617901Y-64051707D01*
X128667317Y-63928167D01*
X128669883Y-63921161D01*
X128692430Y-63853520D01*
X128735656Y-63767068D01*
X128832870Y-63621247D01*
X128851786Y-63575446D01*
X128851734Y-63525893D01*
X128840792Y-63494004D01*
X128815392Y-63443204D01*
X128785011Y-63404057D01*
X128741961Y-63379517D01*
X128692797Y-63373320D01*
X128649684Y-63384186D01*
X128141684Y-63612786D01*
X128103997Y-63638797D01*
X127960486Y-63782308D01*
X127742353Y-63927730D01*
X127730149Y-63936974D01*
X127559594Y-64083164D01*
X127364490Y-64205104D01*
X127341997Y-64222997D01*
X127327946Y-64237048D01*
X127281599Y-64246267D01*
X127228600Y-64287400D01*
X127177476Y-64355565D01*
X126963507Y-64419756D01*
X126929553Y-64435730D01*
X126877324Y-64470550D01*
X126744873Y-64489471D01*
X126612051Y-64472868D01*
X126586781Y-64439175D01*
X126570299Y-64340282D01*
X126589584Y-64243860D01*
X126681106Y-63969293D01*
X126792764Y-63835303D01*
X126799618Y-63826290D01*
X127021698Y-63505509D01*
X127176832Y-63350374D01*
X127310796Y-63283392D01*
X127332271Y-63269813D01*
X127909210Y-62818296D01*
X128068091Y-62727506D01*
X128284761Y-62655283D01*
X128327811Y-62630743D01*
X128358192Y-62591596D01*
X128371600Y-62534800D01*
X128371600Y-62490337D01*
X128395956Y-62246772D01*
X128417533Y-62117314D01*
X128459792Y-62032796D01*
X128470734Y-62000907D01*
X128496134Y-61873907D01*
X128489517Y-61801833D01*
X128438717Y-61674833D01*
X128411691Y-61633299D01*
X128370828Y-61605269D01*
X128322348Y-61595009D01*
X128273633Y-61604083D01*
X128217456Y-61648183D01*
X128103986Y-61807042D01*
X128047153Y-61844930D01*
X128027797Y-61860797D01*
X127926197Y-61962397D01*
X127910330Y-61981753D01*
X127875372Y-62034190D01*
X127784813Y-62088526D01*
X127571572Y-62159606D01*
X127141965Y-62285961D01*
X127140451Y-62286416D01*
X126810251Y-62388016D01*
X126774770Y-62405358D01*
X126521950Y-62582332D01*
X126294553Y-62733930D01*
X126259477Y-62768932D01*
X126247083Y-62792433D01*
X126202520Y-62903839D01*
X126156769Y-62964842D01*
X126011628Y-63027045D01*
X125904695Y-63069818D01*
X125543752Y-63093881D01*
X125536448Y-63094581D01*
X125376750Y-63114543D01*
X125341277Y-63093260D01*
X125324770Y-62944694D01*
X125371034Y-62667109D01*
X125389550Y-62611559D01*
X125496205Y-62419580D01*
X126030144Y-62055531D01*
X126032957Y-62053556D01*
X126481807Y-61729386D01*
X126624996Y-61657792D01*
X126658003Y-61634003D01*
X126787133Y-61504873D01*
X126933290Y-61463114D01*
X126968847Y-61446670D01*
X127034041Y-61403208D01*
X127140769Y-61360516D01*
X127234002Y-61337208D01*
X127273647Y-61319670D01*
X127349847Y-61268870D01*
X127381000Y-61239400D01*
X127457200Y-61137800D01*
X127476083Y-61101761D01*
X127496105Y-61041694D01*
X127535512Y-60982584D01*
X127585797Y-60915538D01*
X127624361Y-60902683D01*
X127667411Y-60878143D01*
X127704683Y-60822361D01*
X127730083Y-60746161D01*
X127734872Y-60726879D01*
X127760272Y-60574479D01*
X127762000Y-60553600D01*
X127762000Y-60543190D01*
X127809393Y-60519494D01*
X128129549Y-60420984D01*
X128144753Y-60415217D01*
X128422320Y-60289050D01*
X129030046Y-60035831D01*
X129034681Y-60033790D01*
X129745881Y-59703590D01*
X129749196Y-59701992D01*
X130206396Y-59473392D01*
X130208529Y-59472301D01*
X130713900Y-59207583D01*
X130759091Y-59795065D01*
X130759091Y-59795065D01*
G37*
X130759091Y-59795065D02*
X130733831Y-60931778D01*
X130733800Y-60934600D01*
X130733800Y-61054354D01*
X130559157Y-61014052D01*
X130549439Y-61012205D01*
X130041439Y-60936005D01*
X130022600Y-60934600D01*
X129463800Y-60934600D01*
X129459953Y-60934658D01*
X128621753Y-60960058D01*
X128596512Y-60963376D01*
X128164712Y-61064976D01*
X128143772Y-61071869D01*
X127789628Y-61223645D01*
X127537033Y-61324683D01*
X127530124Y-61327688D01*
X127098324Y-61530888D01*
X127089390Y-61535533D01*
X126733790Y-61738733D01*
X126728124Y-61742170D01*
X126372524Y-61970770D01*
X126363767Y-61976937D01*
X126033567Y-62230937D01*
X126026041Y-62237202D01*
X125772041Y-62465802D01*
X125767197Y-62470397D01*
X125665597Y-62571997D01*
X125638067Y-62613199D01*
X125628400Y-62661800D01*
X125638067Y-62710401D01*
X125665597Y-62751603D01*
X125706799Y-62779133D01*
X125755400Y-62788800D01*
X125821433Y-62770283D01*
X126401120Y-62417430D01*
X128145573Y-61545203D01*
X128875369Y-61569530D01*
X128879600Y-61569600D01*
X130217896Y-61569600D01*
X130603966Y-61617859D01*
X130706803Y-61652138D01*
X130725130Y-61676573D01*
X130710866Y-61747893D01*
X130709177Y-61786825D01*
X130732796Y-61999398D01*
X130723673Y-62063259D01*
X130341937Y-62103442D01*
X129963352Y-62128681D01*
X129957775Y-62129177D01*
X129729175Y-62154577D01*
X129712398Y-62157592D01*
X129509198Y-62208392D01*
X129493969Y-62213235D01*
X129036769Y-62391035D01*
X129014617Y-62402255D01*
X128736642Y-62579148D01*
X128357059Y-62806898D01*
X128351953Y-62810130D01*
X127894753Y-63114930D01*
X127885864Y-63121430D01*
X127631864Y-63324630D01*
X127599952Y-63362539D01*
X127585718Y-63407438D01*
X127356697Y-63575387D01*
X127341997Y-63587997D01*
X127091197Y-63838797D01*
X126713624Y-64166027D01*
X126683228Y-64205163D01*
X126670123Y-64252952D01*
X126676303Y-64302118D01*
X126700827Y-64345176D01*
X126739963Y-64375572D01*
X126787752Y-64388677D01*
X126836918Y-64382497D01*
X126868662Y-64366713D01*
X128164062Y-63477713D01*
X128166898Y-63475709D01*
X128437797Y-63278691D01*
X129582044Y-62706568D01*
X130170977Y-62583874D01*
X130539030Y-62534800D01*
X130786073Y-62534800D01*
X130869694Y-62685319D01*
X130913940Y-62840178D01*
X130960719Y-63191026D01*
X130939466Y-63297293D01*
X130938276Y-63340161D01*
X130949508Y-63418783D01*
X130924423Y-63423800D01*
X130835400Y-63423800D01*
X130764953Y-63445130D01*
X130402257Y-63686927D01*
X130118798Y-63757792D01*
X130106199Y-63761646D01*
X129826799Y-63863246D01*
X129816980Y-63867289D01*
X129486780Y-64019689D01*
X129469553Y-64029330D01*
X129240953Y-64181730D01*
X129221597Y-64197597D01*
X129117867Y-64301327D01*
X128980051Y-64340703D01*
X128811896Y-64364725D01*
X128617696Y-64389000D01*
X128482984Y-64389000D01*
X128512959Y-64314062D01*
X128561392Y-64217196D01*
X128568283Y-64200561D01*
X128617901Y-64051707D01*
X128667317Y-63928167D01*
X128669883Y-63921161D01*
X128692430Y-63853520D01*
X128735656Y-63767068D01*
X128832870Y-63621247D01*
X128851786Y-63575446D01*
X128851734Y-63525893D01*
X128840792Y-63494004D01*
X128815392Y-63443204D01*
X128785011Y-63404057D01*
X128741961Y-63379517D01*
X128692797Y-63373320D01*
X128649684Y-63384186D01*
X128141684Y-63612786D01*
X128103997Y-63638797D01*
X127960486Y-63782308D01*
X127742353Y-63927730D01*
X127730149Y-63936974D01*
X127559594Y-64083164D01*
X127364490Y-64205104D01*
X127341997Y-64222997D01*
X127327946Y-64237048D01*
X127281599Y-64246267D01*
X127228600Y-64287400D01*
X127177476Y-64355565D01*
X126963507Y-64419756D01*
X126929553Y-64435730D01*
X126877324Y-64470550D01*
X126744873Y-64489471D01*
X126612051Y-64472868D01*
X126586781Y-64439175D01*
X126570299Y-64340282D01*
X126589584Y-64243860D01*
X126681106Y-63969293D01*
X126792764Y-63835303D01*
X126799618Y-63826290D01*
X127021698Y-63505509D01*
X127176832Y-63350374D01*
X127310796Y-63283392D01*
X127332271Y-63269813D01*
X127909210Y-62818296D01*
X128068091Y-62727506D01*
X128284761Y-62655283D01*
X128327811Y-62630743D01*
X128358192Y-62591596D01*
X128371600Y-62534800D01*
X128371600Y-62490337D01*
X128395956Y-62246772D01*
X128417533Y-62117314D01*
X128459792Y-62032796D01*
X128470734Y-62000907D01*
X128496134Y-61873907D01*
X128489517Y-61801833D01*
X128438717Y-61674833D01*
X128411691Y-61633299D01*
X128370828Y-61605269D01*
X128322348Y-61595009D01*
X128273633Y-61604083D01*
X128217456Y-61648183D01*
X128103986Y-61807042D01*
X128047153Y-61844930D01*
X128027797Y-61860797D01*
X127926197Y-61962397D01*
X127910330Y-61981753D01*
X127875372Y-62034190D01*
X127784813Y-62088526D01*
X127571572Y-62159606D01*
X127141965Y-62285961D01*
X127140451Y-62286416D01*
X126810251Y-62388016D01*
X126774770Y-62405358D01*
X126521950Y-62582332D01*
X126294553Y-62733930D01*
X126259477Y-62768932D01*
X126247083Y-62792433D01*
X126202520Y-62903839D01*
X126156769Y-62964842D01*
X126011628Y-63027045D01*
X125904695Y-63069818D01*
X125543752Y-63093881D01*
X125536448Y-63094581D01*
X125376750Y-63114543D01*
X125341277Y-63093260D01*
X125324770Y-62944694D01*
X125371034Y-62667109D01*
X125389550Y-62611559D01*
X125496205Y-62419580D01*
X126030144Y-62055531D01*
X126032957Y-62053556D01*
X126481807Y-61729386D01*
X126624996Y-61657792D01*
X126658003Y-61634003D01*
X126787133Y-61504873D01*
X126933290Y-61463114D01*
X126968847Y-61446670D01*
X127034041Y-61403208D01*
X127140769Y-61360516D01*
X127234002Y-61337208D01*
X127273647Y-61319670D01*
X127349847Y-61268870D01*
X127381000Y-61239400D01*
X127457200Y-61137800D01*
X127476083Y-61101761D01*
X127496105Y-61041694D01*
X127535512Y-60982584D01*
X127585797Y-60915538D01*
X127624361Y-60902683D01*
X127667411Y-60878143D01*
X127704683Y-60822361D01*
X127730083Y-60746161D01*
X127734872Y-60726879D01*
X127760272Y-60574479D01*
X127762000Y-60553600D01*
X127762000Y-60543190D01*
X127809393Y-60519494D01*
X128129549Y-60420984D01*
X128144753Y-60415217D01*
X128422320Y-60289050D01*
X129030046Y-60035831D01*
X129034681Y-60033790D01*
X129745881Y-59703590D01*
X129749196Y-59701992D01*
X130206396Y-59473392D01*
X130208529Y-59472301D01*
X130713900Y-59207583D01*
X130759091Y-59795065D01*
G36*
X136803102Y-58815236D02*
X138706494Y-59703485D01*
X138753858Y-59715242D01*
X140277858Y-59791442D01*
X140282613Y-59791590D01*
X142314613Y-59816990D01*
X142331039Y-59816130D01*
X143194639Y-59714530D01*
X143204707Y-59712934D01*
X143839707Y-59585934D01*
X143875191Y-59573123D01*
X144782387Y-59082747D01*
X146461413Y-59204415D01*
X146914464Y-59538242D01*
X146933977Y-59550074D01*
X148127777Y-60134274D01*
X148175678Y-60146953D01*
X148582078Y-60172353D01*
X148637167Y-60163517D01*
X148880342Y-60066247D01*
X149059306Y-60030454D01*
X149682633Y-60607608D01*
X150039582Y-61250116D01*
X150113818Y-62611121D01*
X150089577Y-63071703D01*
X150018986Y-63307007D01*
X149988182Y-63389151D01*
X149789934Y-63318349D01*
X149667698Y-63134995D01*
X149546220Y-62843447D01*
X149267545Y-62108759D01*
X149241269Y-62066746D01*
X149200916Y-62037986D01*
X149152629Y-62026858D01*
X149126729Y-62028732D01*
X148694929Y-62104932D01*
X148688443Y-62106252D01*
X148098832Y-62242316D01*
X147691596Y-61812456D01*
X147651153Y-61783823D01*
X147581439Y-61774076D01*
X146870239Y-61875676D01*
X146848039Y-61880917D01*
X146406663Y-62028042D01*
X146104870Y-61575353D01*
X146050348Y-61529555D01*
X145415348Y-61250155D01*
X145364200Y-61239400D01*
X144337051Y-61239400D01*
X143794096Y-61116001D01*
X143211858Y-60964113D01*
X143168637Y-60960492D01*
X142338720Y-61033720D01*
X141709020Y-60743089D01*
X141676679Y-60733128D01*
X139847879Y-60428328D01*
X139816736Y-60427015D01*
X138920293Y-60499700D01*
X138305246Y-60097554D01*
X137627285Y-59469812D01*
X137585055Y-59443886D01*
X137533078Y-59436247D01*
X136734762Y-59486142D01*
X136326504Y-59418099D01*
X135876319Y-59035442D01*
X135846159Y-58914801D01*
X135923121Y-58745483D01*
X136264205Y-58725419D01*
X136803102Y-58815236D01*
X136803102Y-58815236D01*
G37*
X136803102Y-58815236D02*
X138706494Y-59703485D01*
X138753858Y-59715242D01*
X140277858Y-59791442D01*
X140282613Y-59791590D01*
X142314613Y-59816990D01*
X142331039Y-59816130D01*
X143194639Y-59714530D01*
X143204707Y-59712934D01*
X143839707Y-59585934D01*
X143875191Y-59573123D01*
X144782387Y-59082747D01*
X146461413Y-59204415D01*
X146914464Y-59538242D01*
X146933977Y-59550074D01*
X148127777Y-60134274D01*
X148175678Y-60146953D01*
X148582078Y-60172353D01*
X148637167Y-60163517D01*
X148880342Y-60066247D01*
X149059306Y-60030454D01*
X149682633Y-60607608D01*
X150039582Y-61250116D01*
X150113818Y-62611121D01*
X150089577Y-63071703D01*
X150018986Y-63307007D01*
X149988182Y-63389151D01*
X149789934Y-63318349D01*
X149667698Y-63134995D01*
X149546220Y-62843447D01*
X149267545Y-62108759D01*
X149241269Y-62066746D01*
X149200916Y-62037986D01*
X149152629Y-62026858D01*
X149126729Y-62028732D01*
X148694929Y-62104932D01*
X148688443Y-62106252D01*
X148098832Y-62242316D01*
X147691596Y-61812456D01*
X147651153Y-61783823D01*
X147581439Y-61774076D01*
X146870239Y-61875676D01*
X146848039Y-61880917D01*
X146406663Y-62028042D01*
X146104870Y-61575353D01*
X146050348Y-61529555D01*
X145415348Y-61250155D01*
X145364200Y-61239400D01*
X144337051Y-61239400D01*
X143794096Y-61116001D01*
X143211858Y-60964113D01*
X143168637Y-60960492D01*
X142338720Y-61033720D01*
X141709020Y-60743089D01*
X141676679Y-60733128D01*
X139847879Y-60428328D01*
X139816736Y-60427015D01*
X138920293Y-60499700D01*
X138305246Y-60097554D01*
X137627285Y-59469812D01*
X137585055Y-59443886D01*
X137533078Y-59436247D01*
X136734762Y-59486142D01*
X136326504Y-59418099D01*
X135876319Y-59035442D01*
X135846159Y-58914801D01*
X135923121Y-58745483D01*
X136264205Y-58725419D01*
X136803102Y-58815236D01*
M02*
