%TF.GenerationSoftware,KiCad,Pcbnew,(5.0.2-5)-5*%
%TF.CreationDate,2022-10-07T21:03:46+07:00*%
%TF.ProjectId,gosanke,676f7361-6e6b-4652-9e6b-696361645f70,rev?*%
%TF.SameCoordinates,Original*%
%TF.FileFunction,Soldermask,Bot*%
%TF.FilePolarity,Negative*%
%FSLAX46Y46*%
G04 Gerber Fmt 4.6, Leading zero omitted, Abs format (unit mm)*
G04 Created by KiCad (PCBNEW (5.0.2-5)-5) date 2022 October 07, Friday 21:03:46*
%MOMM*%
%LPD*%
G01*
G04 APERTURE LIST*
%ADD10C,0.010000*%
%ADD11C,0.100000*%
G04 APERTURE END LIST*
D10*
%TO.C,J4*%
G36*
X197474789Y-98198200D02*
X197440970Y-98141608D01*
X197400001Y-98010268D01*
X197345996Y-97783682D01*
X197273065Y-97441356D01*
X197175322Y-96962791D01*
X197121332Y-96695836D01*
X196983083Y-96067895D01*
X196798301Y-95312970D01*
X196576393Y-94463908D01*
X196326763Y-93553553D01*
X196058816Y-92614749D01*
X195781959Y-91680341D01*
X195505596Y-90783174D01*
X195239134Y-89956093D01*
X194991977Y-89231941D01*
X194951383Y-89118170D01*
X194727518Y-88504941D01*
X194483121Y-87851708D01*
X194228650Y-87184997D01*
X193974562Y-86531335D01*
X193731315Y-85917251D01*
X193509364Y-85369272D01*
X193319168Y-84913924D01*
X193171183Y-84577737D01*
X193115730Y-84461503D01*
X193035473Y-84291185D01*
X192899225Y-83990978D01*
X192718334Y-83586365D01*
X192504145Y-83102825D01*
X192268006Y-82565840D01*
X192078883Y-82133170D01*
X191507118Y-80826828D01*
X190962018Y-79591777D01*
X190453054Y-78449280D01*
X189989699Y-77420602D01*
X189581428Y-76527007D01*
X189578457Y-76520563D01*
X189418104Y-76159459D01*
X189207792Y-75665575D01*
X188957722Y-75064418D01*
X188678095Y-74381494D01*
X188379111Y-73642310D01*
X188070970Y-72872372D01*
X187763874Y-72097187D01*
X187468021Y-71342262D01*
X187193614Y-70633103D01*
X186950852Y-69995218D01*
X186749935Y-69454112D01*
X186724411Y-69383900D01*
X186178055Y-67782812D01*
X185688071Y-66158966D01*
X185270910Y-64569672D01*
X185013035Y-63421836D01*
X184904868Y-62902905D01*
X184806971Y-62442757D01*
X184724805Y-62066294D01*
X184663831Y-61798413D01*
X184629509Y-61664016D01*
X184625197Y-61653415D01*
X184545724Y-61680221D01*
X184362499Y-61780997D01*
X184112298Y-61935230D01*
X184063978Y-61966441D01*
X183164371Y-62473993D01*
X182277933Y-62816993D01*
X182096333Y-62867513D01*
X181706092Y-62936412D01*
X181199095Y-62979492D01*
X180625959Y-62996622D01*
X180037302Y-62987670D01*
X179483740Y-62952505D01*
X179015892Y-62890997D01*
X178937854Y-62875689D01*
X178193314Y-62679127D01*
X177546847Y-62427720D01*
X177012059Y-62130948D01*
X176602560Y-61798291D01*
X176331958Y-61439230D01*
X176213861Y-61063245D01*
X176209702Y-60975149D01*
X176239650Y-60733850D01*
X176317932Y-60388569D01*
X176429036Y-59992156D01*
X176557448Y-59597465D01*
X176687656Y-59257346D01*
X176759013Y-59103724D01*
X176907465Y-58903557D01*
X177170599Y-58634255D01*
X177520506Y-58318016D01*
X177929280Y-57977039D01*
X178369011Y-57633523D01*
X178811793Y-57309667D01*
X179229717Y-57027669D01*
X179594875Y-56809728D01*
X179729668Y-56740784D01*
X179999626Y-56631469D01*
X180399587Y-56494401D01*
X180894502Y-56339676D01*
X181449325Y-56177388D01*
X182029006Y-56017632D01*
X182598499Y-55870500D01*
X183122757Y-55746090D01*
X183362955Y-55694324D01*
X184294288Y-55502429D01*
X184354669Y-54784300D01*
X184466929Y-53676134D01*
X184618826Y-52520683D01*
X184803178Y-51358651D01*
X185012803Y-50230748D01*
X185240519Y-49177680D01*
X185479143Y-48240154D01*
X185556940Y-47970170D01*
X185748930Y-47365311D01*
X185987602Y-46675554D01*
X186260338Y-45932475D01*
X186554521Y-45167650D01*
X186857531Y-44412654D01*
X187156751Y-43699066D01*
X187439562Y-43058459D01*
X187693346Y-42522411D01*
X187866104Y-42191670D01*
X188005206Y-41934093D01*
X188098230Y-41745825D01*
X188127204Y-41663519D01*
X188125558Y-41662503D01*
X188033080Y-41686795D01*
X187824936Y-41750474D01*
X187546771Y-41839565D01*
X186968192Y-42062604D01*
X186503603Y-42325758D01*
X186137057Y-42622512D01*
X185935087Y-42790341D01*
X185829105Y-42837255D01*
X185817680Y-42780845D01*
X185899381Y-42638700D01*
X186072780Y-42428411D01*
X186160314Y-42336427D01*
X186440689Y-42093320D01*
X186801315Y-41839429D01*
X187202057Y-41596889D01*
X187602778Y-41387837D01*
X187963344Y-41234409D01*
X188243618Y-41158742D01*
X188303265Y-41154503D01*
X188463318Y-41130094D01*
X188613980Y-41037366D01*
X188793798Y-40847069D01*
X188924816Y-40682822D01*
X189386175Y-40182093D01*
X189957400Y-39711092D01*
X190579821Y-39315967D01*
X190813621Y-39197167D01*
X191244400Y-39043218D01*
X191746784Y-38938213D01*
X192249663Y-38892400D01*
X192681924Y-38916029D01*
X192718621Y-38922624D01*
X193920898Y-39224632D01*
X195105054Y-39651164D01*
X195670598Y-39905660D01*
X196717574Y-40412658D01*
X197067598Y-40214377D01*
X197455802Y-40075005D01*
X197954985Y-40018920D01*
X198530171Y-40043557D01*
X199146382Y-40146351D01*
X199768644Y-40324736D01*
X200051479Y-40433220D01*
X200261447Y-40534891D01*
X200317731Y-40595191D01*
X200231547Y-40611247D01*
X200014109Y-40580185D01*
X199734154Y-40514510D01*
X199391008Y-40441863D01*
X199035337Y-40409139D01*
X198605230Y-40412375D01*
X198348955Y-40425861D01*
X197797517Y-40466711D01*
X197404073Y-40511365D01*
X197157293Y-40561714D01*
X197045849Y-40619646D01*
X197036621Y-40644732D01*
X197100030Y-40720736D01*
X197268985Y-40868369D01*
X197511578Y-41060362D01*
X197608121Y-41133101D01*
X198517338Y-41903346D01*
X199388656Y-42828172D01*
X200215808Y-43895806D01*
X200992526Y-45094478D01*
X201712543Y-46412415D01*
X202369590Y-47837846D01*
X202957400Y-49358998D01*
X203469704Y-50964099D01*
X203900236Y-52641378D01*
X204014072Y-53164346D01*
X204112451Y-53637240D01*
X204197552Y-54049160D01*
X204263819Y-54372970D01*
X204305692Y-54581531D01*
X204317955Y-54648029D01*
X204396470Y-54664497D01*
X204607894Y-54686605D01*
X204916046Y-54710944D01*
X205145363Y-54725998D01*
X206115347Y-54823713D01*
X206963378Y-54995029D01*
X207723508Y-55247702D01*
X208032413Y-55383578D01*
X208905451Y-55877970D01*
X209714272Y-56494840D01*
X210432042Y-57207985D01*
X211031925Y-57991198D01*
X211436156Y-58707321D01*
X211633141Y-59265932D01*
X211686397Y-59791914D01*
X211661994Y-59917818D01*
X211260621Y-59917818D01*
X211206441Y-59755955D01*
X211057671Y-59498450D01*
X210834968Y-59173729D01*
X210558987Y-58810215D01*
X210250385Y-58436332D01*
X209929817Y-58080504D01*
X209911187Y-58060909D01*
X209217109Y-57421758D01*
X208402336Y-56822552D01*
X207515436Y-56298385D01*
X207365955Y-56221755D01*
X207138775Y-56118955D01*
X206815993Y-55987505D01*
X206427977Y-55838190D01*
X206005096Y-55681794D01*
X205577716Y-55529103D01*
X205176206Y-55390900D01*
X204830933Y-55277970D01*
X204572266Y-55201098D01*
X204430572Y-55171069D01*
X204414327Y-55173539D01*
X204412089Y-55263276D01*
X204432426Y-55480171D01*
X204471235Y-55784166D01*
X204490655Y-55918779D01*
X204545900Y-56257264D01*
X204600178Y-56534564D01*
X204644282Y-56705329D01*
X204655647Y-56731593D01*
X204747400Y-56777983D01*
X204953423Y-56778031D01*
X205269530Y-56736699D01*
X205806332Y-56697312D01*
X206399487Y-56728839D01*
X206978903Y-56823253D01*
X207474484Y-56972524D01*
X207529012Y-56995503D01*
X207796577Y-57128693D01*
X208135247Y-57319422D01*
X208506423Y-57543297D01*
X208871505Y-57775931D01*
X209191894Y-57992932D01*
X209428991Y-58169912D01*
X209523926Y-58256033D01*
X209640475Y-58409669D01*
X209629149Y-58466489D01*
X209499257Y-58428951D01*
X209260107Y-58299511D01*
X208960340Y-58107273D01*
X208323420Y-57696661D01*
X207776522Y-57391512D01*
X207286726Y-57180849D01*
X206821106Y-57053697D01*
X206346742Y-56999078D01*
X205830709Y-57006016D01*
X205688188Y-57016340D01*
X205250488Y-57057454D01*
X204955276Y-57101908D01*
X204775811Y-57158898D01*
X204685350Y-57237623D01*
X204657149Y-57347279D01*
X204656621Y-57371120D01*
X204676765Y-57615691D01*
X204760638Y-57755890D01*
X204943403Y-57819378D01*
X205244803Y-57833836D01*
X205728006Y-57871296D01*
X206256826Y-57974845D01*
X206797714Y-58131237D01*
X207317118Y-58327228D01*
X207781487Y-58549572D01*
X208157269Y-58785024D01*
X208410914Y-59020337D01*
X208467921Y-59106264D01*
X208453997Y-59151760D01*
X208308959Y-59096878D01*
X208031140Y-58940894D01*
X207888968Y-58854067D01*
X207062314Y-58425078D01*
X206232479Y-58159997D01*
X205446961Y-58062278D01*
X205143348Y-58059674D01*
X204912024Y-58068528D01*
X204799415Y-58086937D01*
X204796764Y-58088923D01*
X204788668Y-58181268D01*
X204791360Y-58405052D01*
X204802718Y-58722872D01*
X204820617Y-59097324D01*
X204842935Y-59491008D01*
X204867548Y-59866521D01*
X204892333Y-60186459D01*
X204915168Y-60413422D01*
X204933929Y-60510006D01*
X204934216Y-60510320D01*
X205022482Y-60532665D01*
X205243269Y-60574677D01*
X205561769Y-60630030D01*
X205887087Y-60683450D01*
X206663001Y-60774905D01*
X207571700Y-60823879D01*
X208170288Y-60832016D01*
X208694536Y-60829836D01*
X209088860Y-60820508D01*
X209392649Y-60799543D01*
X209645291Y-60762453D01*
X209886174Y-60704749D01*
X210154688Y-60621941D01*
X210228839Y-60597427D01*
X210728411Y-60405401D01*
X211062272Y-60216396D01*
X211233958Y-60028082D01*
X211260621Y-59917818D01*
X211661994Y-59917818D01*
X211595004Y-60263438D01*
X211509330Y-60446975D01*
X211269050Y-60752013D01*
X210905542Y-61068531D01*
X210460579Y-61369949D01*
X209975934Y-61629687D01*
X209493379Y-61821163D01*
X209245621Y-61887405D01*
X208584789Y-61965183D01*
X207844652Y-61948159D01*
X207080696Y-61844023D01*
X206348406Y-61660469D01*
X205703270Y-61405187D01*
X205678839Y-61392975D01*
X205383375Y-61252556D01*
X205201085Y-61191872D01*
X205100432Y-61202724D01*
X205069501Y-61234519D01*
X205050433Y-61346429D01*
X205033180Y-61604321D01*
X205018455Y-61984848D01*
X205006971Y-62464663D01*
X204999442Y-63020418D01*
X204996585Y-63620884D01*
X204984078Y-64677353D01*
X204949327Y-65798570D01*
X204894750Y-66948032D01*
X204822767Y-68089235D01*
X204735799Y-69185675D01*
X204636265Y-70200850D01*
X204526585Y-71098255D01*
X204479375Y-71422836D01*
X204293374Y-72520869D01*
X204057847Y-73732434D01*
X203783051Y-75012637D01*
X203479240Y-76316580D01*
X203156672Y-77599367D01*
X202825602Y-78816102D01*
X202661323Y-79381503D01*
X202447050Y-80096726D01*
X202209104Y-80882441D01*
X201952040Y-81724212D01*
X201680415Y-82607604D01*
X201398787Y-83518179D01*
X201111710Y-84441502D01*
X200823741Y-85363136D01*
X200539437Y-86268646D01*
X200263354Y-87143596D01*
X200000048Y-87973548D01*
X199754076Y-88744068D01*
X199529994Y-89440718D01*
X199332358Y-90049063D01*
X199165725Y-90554667D01*
X199034651Y-90943093D01*
X198943692Y-91199906D01*
X198897405Y-91310669D01*
X198895463Y-91313104D01*
X198836095Y-91337998D01*
X198843603Y-91219175D01*
X198849247Y-91192503D01*
X198876564Y-91065768D01*
X198935144Y-90792084D01*
X199021002Y-90390128D01*
X199130155Y-89878577D01*
X199258618Y-89276105D01*
X199402407Y-88601391D01*
X199557537Y-87873109D01*
X199625948Y-87551836D01*
X199828194Y-86604355D01*
X200002622Y-85795002D01*
X200155971Y-85096133D01*
X200294981Y-84480108D01*
X200426392Y-83919284D01*
X200556942Y-83386020D01*
X200693371Y-82852672D01*
X200842419Y-82291600D01*
X201010825Y-81675160D01*
X201205329Y-80975711D01*
X201388520Y-80322622D01*
X201872877Y-78546523D01*
X202291101Y-76893753D01*
X202649112Y-75334406D01*
X202952834Y-73838572D01*
X203208188Y-72376344D01*
X203421094Y-70917813D01*
X203597476Y-69433072D01*
X203653519Y-68882836D01*
X203705532Y-68252565D01*
X203752007Y-67498513D01*
X203792530Y-66646818D01*
X203826686Y-65723619D01*
X203854061Y-64755054D01*
X203874240Y-63767262D01*
X203886808Y-62786382D01*
X203891350Y-61838552D01*
X203887453Y-60949910D01*
X203874700Y-60146595D01*
X203852679Y-59454746D01*
X203820973Y-58900501D01*
X203813349Y-58807503D01*
X203605533Y-56828740D01*
X203336633Y-54933544D01*
X203009445Y-53132116D01*
X202626765Y-51434658D01*
X202191389Y-49851372D01*
X201706113Y-48392459D01*
X201173733Y-47068122D01*
X200597044Y-45888561D01*
X200001061Y-44896977D01*
X199126231Y-43702439D01*
X198192923Y-42637052D01*
X197213800Y-41714073D01*
X196274621Y-40996097D01*
X195588479Y-40547371D01*
X194988561Y-40202900D01*
X194438639Y-39949984D01*
X193902486Y-39775921D01*
X193343871Y-39668011D01*
X192726567Y-39613553D01*
X192295288Y-39601022D01*
X191653076Y-39611979D01*
X191125854Y-39673852D01*
X190684009Y-39803724D01*
X190297933Y-40018677D01*
X189938013Y-40335796D01*
X189574641Y-40772163D01*
X189178204Y-41344862D01*
X189121490Y-41432079D01*
X188683796Y-42177544D01*
X188239142Y-43063736D01*
X187798243Y-44062974D01*
X187371815Y-45147576D01*
X186970574Y-46289862D01*
X186605235Y-47462150D01*
X186286513Y-48636760D01*
X186207994Y-48958470D01*
X185979954Y-49970282D01*
X185796769Y-50913264D01*
X185653404Y-51828732D01*
X185544828Y-52758003D01*
X185466006Y-53742394D01*
X185411906Y-54823221D01*
X185384641Y-55717170D01*
X185368655Y-56511093D01*
X185363102Y-57172598D01*
X185368873Y-57738332D01*
X185386859Y-58244942D01*
X185417951Y-58729074D01*
X185463039Y-59227374D01*
X185472095Y-59315503D01*
X185583776Y-60263613D01*
X185592636Y-60326960D01*
X184520396Y-60326960D01*
X184517505Y-60206221D01*
X184493437Y-59787991D01*
X184438163Y-59513438D01*
X184330464Y-59357200D01*
X184149122Y-59293913D01*
X183872917Y-59298216D01*
X183766914Y-59309061D01*
X183202424Y-59433628D01*
X182555461Y-59690576D01*
X181821930Y-60081932D01*
X180997734Y-60609725D01*
X180653621Y-60850989D01*
X180230288Y-61154275D01*
X180751426Y-60646720D01*
X181055936Y-60381287D01*
X181448780Y-60082393D01*
X181868423Y-59795404D01*
X182101886Y-59651083D01*
X182475639Y-59435405D01*
X182754174Y-59291848D01*
X182986055Y-59203094D01*
X183219848Y-59151821D01*
X183504118Y-59120709D01*
X183612748Y-59112252D01*
X184294288Y-59061503D01*
X184320396Y-58746856D01*
X184323018Y-58533952D01*
X184260862Y-58426841D01*
X184108729Y-58367179D01*
X183936639Y-58342783D01*
X183635234Y-58322350D01*
X183244520Y-58307800D01*
X182804504Y-58301057D01*
X182727955Y-58300826D01*
X181584955Y-58299503D01*
X180780621Y-58694475D01*
X180396275Y-58886900D01*
X180023847Y-59079694D01*
X179718170Y-59244196D01*
X179595288Y-59314042D01*
X179214288Y-59538636D01*
X179593514Y-59186690D01*
X179889224Y-58958760D01*
X180296521Y-58706462D01*
X180765259Y-58455600D01*
X181245293Y-58231974D01*
X181686478Y-58061388D01*
X181906684Y-57996453D01*
X182180130Y-57957819D01*
X182564886Y-57939437D01*
X183006223Y-57940014D01*
X183449412Y-57958258D01*
X183839725Y-57992874D01*
X184122434Y-58042571D01*
X184146121Y-58049362D01*
X184336621Y-58107586D01*
X184336621Y-56989989D01*
X184332132Y-56580346D01*
X184319834Y-56242616D01*
X184301486Y-56006921D01*
X184278844Y-55903384D01*
X184273121Y-55901472D01*
X184176618Y-55949526D01*
X183961798Y-56058399D01*
X183661021Y-56211642D01*
X183326933Y-56382421D01*
X182958692Y-56560621D01*
X182476053Y-56779059D01*
X181923187Y-57018567D01*
X181344267Y-57259977D01*
X180829266Y-57466243D01*
X180179902Y-57722776D01*
X179664923Y-57934432D01*
X179259883Y-58115045D01*
X178940337Y-58278448D01*
X178681839Y-58438477D01*
X178459945Y-58608963D01*
X178250210Y-58803743D01*
X178028187Y-59036648D01*
X177999949Y-59067389D01*
X177771767Y-59346059D01*
X177529837Y-59690688D01*
X177291890Y-60069402D01*
X177075661Y-60450331D01*
X176898883Y-60801600D01*
X176779290Y-61091338D01*
X176734615Y-61287672D01*
X176740743Y-61330574D01*
X176839442Y-61390902D01*
X177076202Y-61465615D01*
X177420960Y-61548906D01*
X177843652Y-61634965D01*
X178314215Y-61717986D01*
X178802586Y-61792160D01*
X179278700Y-61851679D01*
X179595288Y-61882056D01*
X180503976Y-61901095D01*
X181493256Y-61825514D01*
X182508398Y-61662487D01*
X183494671Y-61419187D01*
X183764241Y-61335692D01*
X184077109Y-61224850D01*
X184325346Y-61120036D01*
X184465907Y-61039936D01*
X184479758Y-61025061D01*
X184504803Y-60900071D01*
X184519057Y-60652020D01*
X184520396Y-60326960D01*
X185592636Y-60326960D01*
X185726301Y-61282628D01*
X185889754Y-62309540D01*
X186064220Y-63281340D01*
X186206896Y-63985263D01*
X186288825Y-64318701D01*
X186417126Y-64783600D01*
X186582904Y-65351361D01*
X186777259Y-65993385D01*
X186991296Y-66681073D01*
X187216116Y-67385828D01*
X187442822Y-68079051D01*
X187662516Y-68732142D01*
X187860171Y-69299309D01*
X188036153Y-69779070D01*
X188268686Y-70391244D01*
X188548290Y-71112319D01*
X188865483Y-71918780D01*
X189210783Y-72787113D01*
X189574708Y-73693806D01*
X189947777Y-74615344D01*
X190320509Y-75528214D01*
X190683422Y-76408902D01*
X191027033Y-77233894D01*
X191341863Y-77979676D01*
X191618429Y-78622736D01*
X191635474Y-78661836D01*
X191960138Y-79410076D01*
X192323515Y-80254630D01*
X192702476Y-81141276D01*
X193073893Y-82015796D01*
X193414639Y-82823970D01*
X193603981Y-83276645D01*
X194125731Y-84573823D01*
X194632619Y-85920513D01*
X195116744Y-87291270D01*
X195570208Y-88660650D01*
X195985111Y-90003210D01*
X196353553Y-91293506D01*
X196667634Y-92506095D01*
X196919454Y-93615531D01*
X197082087Y-94479092D01*
X197241485Y-95461579D01*
X197369673Y-96298412D01*
X197466196Y-96985968D01*
X197530602Y-97520625D01*
X197562436Y-97898760D01*
X197561244Y-98116752D01*
X197544530Y-98169128D01*
X197507347Y-98200542D01*
X197474789Y-98198200D01*
X197474789Y-98198200D01*
G37*
X197474789Y-98198200D02*
X197440970Y-98141608D01*
X197400001Y-98010268D01*
X197345996Y-97783682D01*
X197273065Y-97441356D01*
X197175322Y-96962791D01*
X197121332Y-96695836D01*
X196983083Y-96067895D01*
X196798301Y-95312970D01*
X196576393Y-94463908D01*
X196326763Y-93553553D01*
X196058816Y-92614749D01*
X195781959Y-91680341D01*
X195505596Y-90783174D01*
X195239134Y-89956093D01*
X194991977Y-89231941D01*
X194951383Y-89118170D01*
X194727518Y-88504941D01*
X194483121Y-87851708D01*
X194228650Y-87184997D01*
X193974562Y-86531335D01*
X193731315Y-85917251D01*
X193509364Y-85369272D01*
X193319168Y-84913924D01*
X193171183Y-84577737D01*
X193115730Y-84461503D01*
X193035473Y-84291185D01*
X192899225Y-83990978D01*
X192718334Y-83586365D01*
X192504145Y-83102825D01*
X192268006Y-82565840D01*
X192078883Y-82133170D01*
X191507118Y-80826828D01*
X190962018Y-79591777D01*
X190453054Y-78449280D01*
X189989699Y-77420602D01*
X189581428Y-76527007D01*
X189578457Y-76520563D01*
X189418104Y-76159459D01*
X189207792Y-75665575D01*
X188957722Y-75064418D01*
X188678095Y-74381494D01*
X188379111Y-73642310D01*
X188070970Y-72872372D01*
X187763874Y-72097187D01*
X187468021Y-71342262D01*
X187193614Y-70633103D01*
X186950852Y-69995218D01*
X186749935Y-69454112D01*
X186724411Y-69383900D01*
X186178055Y-67782812D01*
X185688071Y-66158966D01*
X185270910Y-64569672D01*
X185013035Y-63421836D01*
X184904868Y-62902905D01*
X184806971Y-62442757D01*
X184724805Y-62066294D01*
X184663831Y-61798413D01*
X184629509Y-61664016D01*
X184625197Y-61653415D01*
X184545724Y-61680221D01*
X184362499Y-61780997D01*
X184112298Y-61935230D01*
X184063978Y-61966441D01*
X183164371Y-62473993D01*
X182277933Y-62816993D01*
X182096333Y-62867513D01*
X181706092Y-62936412D01*
X181199095Y-62979492D01*
X180625959Y-62996622D01*
X180037302Y-62987670D01*
X179483740Y-62952505D01*
X179015892Y-62890997D01*
X178937854Y-62875689D01*
X178193314Y-62679127D01*
X177546847Y-62427720D01*
X177012059Y-62130948D01*
X176602560Y-61798291D01*
X176331958Y-61439230D01*
X176213861Y-61063245D01*
X176209702Y-60975149D01*
X176239650Y-60733850D01*
X176317932Y-60388569D01*
X176429036Y-59992156D01*
X176557448Y-59597465D01*
X176687656Y-59257346D01*
X176759013Y-59103724D01*
X176907465Y-58903557D01*
X177170599Y-58634255D01*
X177520506Y-58318016D01*
X177929280Y-57977039D01*
X178369011Y-57633523D01*
X178811793Y-57309667D01*
X179229717Y-57027669D01*
X179594875Y-56809728D01*
X179729668Y-56740784D01*
X179999626Y-56631469D01*
X180399587Y-56494401D01*
X180894502Y-56339676D01*
X181449325Y-56177388D01*
X182029006Y-56017632D01*
X182598499Y-55870500D01*
X183122757Y-55746090D01*
X183362955Y-55694324D01*
X184294288Y-55502429D01*
X184354669Y-54784300D01*
X184466929Y-53676134D01*
X184618826Y-52520683D01*
X184803178Y-51358651D01*
X185012803Y-50230748D01*
X185240519Y-49177680D01*
X185479143Y-48240154D01*
X185556940Y-47970170D01*
X185748930Y-47365311D01*
X185987602Y-46675554D01*
X186260338Y-45932475D01*
X186554521Y-45167650D01*
X186857531Y-44412654D01*
X187156751Y-43699066D01*
X187439562Y-43058459D01*
X187693346Y-42522411D01*
X187866104Y-42191670D01*
X188005206Y-41934093D01*
X188098230Y-41745825D01*
X188127204Y-41663519D01*
X188125558Y-41662503D01*
X188033080Y-41686795D01*
X187824936Y-41750474D01*
X187546771Y-41839565D01*
X186968192Y-42062604D01*
X186503603Y-42325758D01*
X186137057Y-42622512D01*
X185935087Y-42790341D01*
X185829105Y-42837255D01*
X185817680Y-42780845D01*
X185899381Y-42638700D01*
X186072780Y-42428411D01*
X186160314Y-42336427D01*
X186440689Y-42093320D01*
X186801315Y-41839429D01*
X187202057Y-41596889D01*
X187602778Y-41387837D01*
X187963344Y-41234409D01*
X188243618Y-41158742D01*
X188303265Y-41154503D01*
X188463318Y-41130094D01*
X188613980Y-41037366D01*
X188793798Y-40847069D01*
X188924816Y-40682822D01*
X189386175Y-40182093D01*
X189957400Y-39711092D01*
X190579821Y-39315967D01*
X190813621Y-39197167D01*
X191244400Y-39043218D01*
X191746784Y-38938213D01*
X192249663Y-38892400D01*
X192681924Y-38916029D01*
X192718621Y-38922624D01*
X193920898Y-39224632D01*
X195105054Y-39651164D01*
X195670598Y-39905660D01*
X196717574Y-40412658D01*
X197067598Y-40214377D01*
X197455802Y-40075005D01*
X197954985Y-40018920D01*
X198530171Y-40043557D01*
X199146382Y-40146351D01*
X199768644Y-40324736D01*
X200051479Y-40433220D01*
X200261447Y-40534891D01*
X200317731Y-40595191D01*
X200231547Y-40611247D01*
X200014109Y-40580185D01*
X199734154Y-40514510D01*
X199391008Y-40441863D01*
X199035337Y-40409139D01*
X198605230Y-40412375D01*
X198348955Y-40425861D01*
X197797517Y-40466711D01*
X197404073Y-40511365D01*
X197157293Y-40561714D01*
X197045849Y-40619646D01*
X197036621Y-40644732D01*
X197100030Y-40720736D01*
X197268985Y-40868369D01*
X197511578Y-41060362D01*
X197608121Y-41133101D01*
X198517338Y-41903346D01*
X199388656Y-42828172D01*
X200215808Y-43895806D01*
X200992526Y-45094478D01*
X201712543Y-46412415D01*
X202369590Y-47837846D01*
X202957400Y-49358998D01*
X203469704Y-50964099D01*
X203900236Y-52641378D01*
X204014072Y-53164346D01*
X204112451Y-53637240D01*
X204197552Y-54049160D01*
X204263819Y-54372970D01*
X204305692Y-54581531D01*
X204317955Y-54648029D01*
X204396470Y-54664497D01*
X204607894Y-54686605D01*
X204916046Y-54710944D01*
X205145363Y-54725998D01*
X206115347Y-54823713D01*
X206963378Y-54995029D01*
X207723508Y-55247702D01*
X208032413Y-55383578D01*
X208905451Y-55877970D01*
X209714272Y-56494840D01*
X210432042Y-57207985D01*
X211031925Y-57991198D01*
X211436156Y-58707321D01*
X211633141Y-59265932D01*
X211686397Y-59791914D01*
X211661994Y-59917818D01*
X211260621Y-59917818D01*
X211206441Y-59755955D01*
X211057671Y-59498450D01*
X210834968Y-59173729D01*
X210558987Y-58810215D01*
X210250385Y-58436332D01*
X209929817Y-58080504D01*
X209911187Y-58060909D01*
X209217109Y-57421758D01*
X208402336Y-56822552D01*
X207515436Y-56298385D01*
X207365955Y-56221755D01*
X207138775Y-56118955D01*
X206815993Y-55987505D01*
X206427977Y-55838190D01*
X206005096Y-55681794D01*
X205577716Y-55529103D01*
X205176206Y-55390900D01*
X204830933Y-55277970D01*
X204572266Y-55201098D01*
X204430572Y-55171069D01*
X204414327Y-55173539D01*
X204412089Y-55263276D01*
X204432426Y-55480171D01*
X204471235Y-55784166D01*
X204490655Y-55918779D01*
X204545900Y-56257264D01*
X204600178Y-56534564D01*
X204644282Y-56705329D01*
X204655647Y-56731593D01*
X204747400Y-56777983D01*
X204953423Y-56778031D01*
X205269530Y-56736699D01*
X205806332Y-56697312D01*
X206399487Y-56728839D01*
X206978903Y-56823253D01*
X207474484Y-56972524D01*
X207529012Y-56995503D01*
X207796577Y-57128693D01*
X208135247Y-57319422D01*
X208506423Y-57543297D01*
X208871505Y-57775931D01*
X209191894Y-57992932D01*
X209428991Y-58169912D01*
X209523926Y-58256033D01*
X209640475Y-58409669D01*
X209629149Y-58466489D01*
X209499257Y-58428951D01*
X209260107Y-58299511D01*
X208960340Y-58107273D01*
X208323420Y-57696661D01*
X207776522Y-57391512D01*
X207286726Y-57180849D01*
X206821106Y-57053697D01*
X206346742Y-56999078D01*
X205830709Y-57006016D01*
X205688188Y-57016340D01*
X205250488Y-57057454D01*
X204955276Y-57101908D01*
X204775811Y-57158898D01*
X204685350Y-57237623D01*
X204657149Y-57347279D01*
X204656621Y-57371120D01*
X204676765Y-57615691D01*
X204760638Y-57755890D01*
X204943403Y-57819378D01*
X205244803Y-57833836D01*
X205728006Y-57871296D01*
X206256826Y-57974845D01*
X206797714Y-58131237D01*
X207317118Y-58327228D01*
X207781487Y-58549572D01*
X208157269Y-58785024D01*
X208410914Y-59020337D01*
X208467921Y-59106264D01*
X208453997Y-59151760D01*
X208308959Y-59096878D01*
X208031140Y-58940894D01*
X207888968Y-58854067D01*
X207062314Y-58425078D01*
X206232479Y-58159997D01*
X205446961Y-58062278D01*
X205143348Y-58059674D01*
X204912024Y-58068528D01*
X204799415Y-58086937D01*
X204796764Y-58088923D01*
X204788668Y-58181268D01*
X204791360Y-58405052D01*
X204802718Y-58722872D01*
X204820617Y-59097324D01*
X204842935Y-59491008D01*
X204867548Y-59866521D01*
X204892333Y-60186459D01*
X204915168Y-60413422D01*
X204933929Y-60510006D01*
X204934216Y-60510320D01*
X205022482Y-60532665D01*
X205243269Y-60574677D01*
X205561769Y-60630030D01*
X205887087Y-60683450D01*
X206663001Y-60774905D01*
X207571700Y-60823879D01*
X208170288Y-60832016D01*
X208694536Y-60829836D01*
X209088860Y-60820508D01*
X209392649Y-60799543D01*
X209645291Y-60762453D01*
X209886174Y-60704749D01*
X210154688Y-60621941D01*
X210228839Y-60597427D01*
X210728411Y-60405401D01*
X211062272Y-60216396D01*
X211233958Y-60028082D01*
X211260621Y-59917818D01*
X211661994Y-59917818D01*
X211595004Y-60263438D01*
X211509330Y-60446975D01*
X211269050Y-60752013D01*
X210905542Y-61068531D01*
X210460579Y-61369949D01*
X209975934Y-61629687D01*
X209493379Y-61821163D01*
X209245621Y-61887405D01*
X208584789Y-61965183D01*
X207844652Y-61948159D01*
X207080696Y-61844023D01*
X206348406Y-61660469D01*
X205703270Y-61405187D01*
X205678839Y-61392975D01*
X205383375Y-61252556D01*
X205201085Y-61191872D01*
X205100432Y-61202724D01*
X205069501Y-61234519D01*
X205050433Y-61346429D01*
X205033180Y-61604321D01*
X205018455Y-61984848D01*
X205006971Y-62464663D01*
X204999442Y-63020418D01*
X204996585Y-63620884D01*
X204984078Y-64677353D01*
X204949327Y-65798570D01*
X204894750Y-66948032D01*
X204822767Y-68089235D01*
X204735799Y-69185675D01*
X204636265Y-70200850D01*
X204526585Y-71098255D01*
X204479375Y-71422836D01*
X204293374Y-72520869D01*
X204057847Y-73732434D01*
X203783051Y-75012637D01*
X203479240Y-76316580D01*
X203156672Y-77599367D01*
X202825602Y-78816102D01*
X202661323Y-79381503D01*
X202447050Y-80096726D01*
X202209104Y-80882441D01*
X201952040Y-81724212D01*
X201680415Y-82607604D01*
X201398787Y-83518179D01*
X201111710Y-84441502D01*
X200823741Y-85363136D01*
X200539437Y-86268646D01*
X200263354Y-87143596D01*
X200000048Y-87973548D01*
X199754076Y-88744068D01*
X199529994Y-89440718D01*
X199332358Y-90049063D01*
X199165725Y-90554667D01*
X199034651Y-90943093D01*
X198943692Y-91199906D01*
X198897405Y-91310669D01*
X198895463Y-91313104D01*
X198836095Y-91337998D01*
X198843603Y-91219175D01*
X198849247Y-91192503D01*
X198876564Y-91065768D01*
X198935144Y-90792084D01*
X199021002Y-90390128D01*
X199130155Y-89878577D01*
X199258618Y-89276105D01*
X199402407Y-88601391D01*
X199557537Y-87873109D01*
X199625948Y-87551836D01*
X199828194Y-86604355D01*
X200002622Y-85795002D01*
X200155971Y-85096133D01*
X200294981Y-84480108D01*
X200426392Y-83919284D01*
X200556942Y-83386020D01*
X200693371Y-82852672D01*
X200842419Y-82291600D01*
X201010825Y-81675160D01*
X201205329Y-80975711D01*
X201388520Y-80322622D01*
X201872877Y-78546523D01*
X202291101Y-76893753D01*
X202649112Y-75334406D01*
X202952834Y-73838572D01*
X203208188Y-72376344D01*
X203421094Y-70917813D01*
X203597476Y-69433072D01*
X203653519Y-68882836D01*
X203705532Y-68252565D01*
X203752007Y-67498513D01*
X203792530Y-66646818D01*
X203826686Y-65723619D01*
X203854061Y-64755054D01*
X203874240Y-63767262D01*
X203886808Y-62786382D01*
X203891350Y-61838552D01*
X203887453Y-60949910D01*
X203874700Y-60146595D01*
X203852679Y-59454746D01*
X203820973Y-58900501D01*
X203813349Y-58807503D01*
X203605533Y-56828740D01*
X203336633Y-54933544D01*
X203009445Y-53132116D01*
X202626765Y-51434658D01*
X202191389Y-49851372D01*
X201706113Y-48392459D01*
X201173733Y-47068122D01*
X200597044Y-45888561D01*
X200001061Y-44896977D01*
X199126231Y-43702439D01*
X198192923Y-42637052D01*
X197213800Y-41714073D01*
X196274621Y-40996097D01*
X195588479Y-40547371D01*
X194988561Y-40202900D01*
X194438639Y-39949984D01*
X193902486Y-39775921D01*
X193343871Y-39668011D01*
X192726567Y-39613553D01*
X192295288Y-39601022D01*
X191653076Y-39611979D01*
X191125854Y-39673852D01*
X190684009Y-39803724D01*
X190297933Y-40018677D01*
X189938013Y-40335796D01*
X189574641Y-40772163D01*
X189178204Y-41344862D01*
X189121490Y-41432079D01*
X188683796Y-42177544D01*
X188239142Y-43063736D01*
X187798243Y-44062974D01*
X187371815Y-45147576D01*
X186970574Y-46289862D01*
X186605235Y-47462150D01*
X186286513Y-48636760D01*
X186207994Y-48958470D01*
X185979954Y-49970282D01*
X185796769Y-50913264D01*
X185653404Y-51828732D01*
X185544828Y-52758003D01*
X185466006Y-53742394D01*
X185411906Y-54823221D01*
X185384641Y-55717170D01*
X185368655Y-56511093D01*
X185363102Y-57172598D01*
X185368873Y-57738332D01*
X185386859Y-58244942D01*
X185417951Y-58729074D01*
X185463039Y-59227374D01*
X185472095Y-59315503D01*
X185583776Y-60263613D01*
X185592636Y-60326960D01*
X184520396Y-60326960D01*
X184517505Y-60206221D01*
X184493437Y-59787991D01*
X184438163Y-59513438D01*
X184330464Y-59357200D01*
X184149122Y-59293913D01*
X183872917Y-59298216D01*
X183766914Y-59309061D01*
X183202424Y-59433628D01*
X182555461Y-59690576D01*
X181821930Y-60081932D01*
X180997734Y-60609725D01*
X180653621Y-60850989D01*
X180230288Y-61154275D01*
X180751426Y-60646720D01*
X181055936Y-60381287D01*
X181448780Y-60082393D01*
X181868423Y-59795404D01*
X182101886Y-59651083D01*
X182475639Y-59435405D01*
X182754174Y-59291848D01*
X182986055Y-59203094D01*
X183219848Y-59151821D01*
X183504118Y-59120709D01*
X183612748Y-59112252D01*
X184294288Y-59061503D01*
X184320396Y-58746856D01*
X184323018Y-58533952D01*
X184260862Y-58426841D01*
X184108729Y-58367179D01*
X183936639Y-58342783D01*
X183635234Y-58322350D01*
X183244520Y-58307800D01*
X182804504Y-58301057D01*
X182727955Y-58300826D01*
X181584955Y-58299503D01*
X180780621Y-58694475D01*
X180396275Y-58886900D01*
X180023847Y-59079694D01*
X179718170Y-59244196D01*
X179595288Y-59314042D01*
X179214288Y-59538636D01*
X179593514Y-59186690D01*
X179889224Y-58958760D01*
X180296521Y-58706462D01*
X180765259Y-58455600D01*
X181245293Y-58231974D01*
X181686478Y-58061388D01*
X181906684Y-57996453D01*
X182180130Y-57957819D01*
X182564886Y-57939437D01*
X183006223Y-57940014D01*
X183449412Y-57958258D01*
X183839725Y-57992874D01*
X184122434Y-58042571D01*
X184146121Y-58049362D01*
X184336621Y-58107586D01*
X184336621Y-56989989D01*
X184332132Y-56580346D01*
X184319834Y-56242616D01*
X184301486Y-56006921D01*
X184278844Y-55903384D01*
X184273121Y-55901472D01*
X184176618Y-55949526D01*
X183961798Y-56058399D01*
X183661021Y-56211642D01*
X183326933Y-56382421D01*
X182958692Y-56560621D01*
X182476053Y-56779059D01*
X181923187Y-57018567D01*
X181344267Y-57259977D01*
X180829266Y-57466243D01*
X180179902Y-57722776D01*
X179664923Y-57934432D01*
X179259883Y-58115045D01*
X178940337Y-58278448D01*
X178681839Y-58438477D01*
X178459945Y-58608963D01*
X178250210Y-58803743D01*
X178028187Y-59036648D01*
X177999949Y-59067389D01*
X177771767Y-59346059D01*
X177529837Y-59690688D01*
X177291890Y-60069402D01*
X177075661Y-60450331D01*
X176898883Y-60801600D01*
X176779290Y-61091338D01*
X176734615Y-61287672D01*
X176740743Y-61330574D01*
X176839442Y-61390902D01*
X177076202Y-61465615D01*
X177420960Y-61548906D01*
X177843652Y-61634965D01*
X178314215Y-61717986D01*
X178802586Y-61792160D01*
X179278700Y-61851679D01*
X179595288Y-61882056D01*
X180503976Y-61901095D01*
X181493256Y-61825514D01*
X182508398Y-61662487D01*
X183494671Y-61419187D01*
X183764241Y-61335692D01*
X184077109Y-61224850D01*
X184325346Y-61120036D01*
X184465907Y-61039936D01*
X184479758Y-61025061D01*
X184504803Y-60900071D01*
X184519057Y-60652020D01*
X184520396Y-60326960D01*
X185592636Y-60326960D01*
X185726301Y-61282628D01*
X185889754Y-62309540D01*
X186064220Y-63281340D01*
X186206896Y-63985263D01*
X186288825Y-64318701D01*
X186417126Y-64783600D01*
X186582904Y-65351361D01*
X186777259Y-65993385D01*
X186991296Y-66681073D01*
X187216116Y-67385828D01*
X187442822Y-68079051D01*
X187662516Y-68732142D01*
X187860171Y-69299309D01*
X188036153Y-69779070D01*
X188268686Y-70391244D01*
X188548290Y-71112319D01*
X188865483Y-71918780D01*
X189210783Y-72787113D01*
X189574708Y-73693806D01*
X189947777Y-74615344D01*
X190320509Y-75528214D01*
X190683422Y-76408902D01*
X191027033Y-77233894D01*
X191341863Y-77979676D01*
X191618429Y-78622736D01*
X191635474Y-78661836D01*
X191960138Y-79410076D01*
X192323515Y-80254630D01*
X192702476Y-81141276D01*
X193073893Y-82015796D01*
X193414639Y-82823970D01*
X193603981Y-83276645D01*
X194125731Y-84573823D01*
X194632619Y-85920513D01*
X195116744Y-87291270D01*
X195570208Y-88660650D01*
X195985111Y-90003210D01*
X196353553Y-91293506D01*
X196667634Y-92506095D01*
X196919454Y-93615531D01*
X197082087Y-94479092D01*
X197241485Y-95461579D01*
X197369673Y-96298412D01*
X197466196Y-96985968D01*
X197530602Y-97520625D01*
X197562436Y-97898760D01*
X197561244Y-98116752D01*
X197544530Y-98169128D01*
X197507347Y-98200542D01*
X197474789Y-98198200D01*
G36*
X206532732Y-59804647D02*
X206356566Y-59666847D01*
X206172173Y-59508817D01*
X205893575Y-59276538D01*
X205638520Y-59083110D01*
X205450760Y-58961138D01*
X205412437Y-58942684D01*
X205282029Y-58883506D01*
X205304055Y-58861043D01*
X205376288Y-58857778D01*
X205590528Y-58896459D01*
X205714955Y-58948410D01*
X205983382Y-59140395D01*
X206276351Y-59416821D01*
X206530489Y-59717406D01*
X206545928Y-59738836D01*
X206594554Y-59827845D01*
X206532732Y-59804647D01*
X206532732Y-59804647D01*
G37*
X206532732Y-59804647D02*
X206356566Y-59666847D01*
X206172173Y-59508817D01*
X205893575Y-59276538D01*
X205638520Y-59083110D01*
X205450760Y-58961138D01*
X205412437Y-58942684D01*
X205282029Y-58883506D01*
X205304055Y-58861043D01*
X205376288Y-58857778D01*
X205590528Y-58896459D01*
X205714955Y-58948410D01*
X205983382Y-59140395D01*
X206276351Y-59416821D01*
X206530489Y-59717406D01*
X206545928Y-59738836D01*
X206594554Y-59827845D01*
X206532732Y-59804647D01*
G36*
X182050621Y-61198607D02*
X182114074Y-61066871D01*
X182282214Y-60867684D01*
X182521712Y-60631706D01*
X182799239Y-60389595D01*
X183081468Y-60172010D01*
X183335070Y-60009612D01*
X183354398Y-59999251D01*
X183657325Y-59856138D01*
X183877700Y-59784583D01*
X183989383Y-59792083D01*
X183997955Y-59814677D01*
X183932496Y-59873898D01*
X183761937Y-59994863D01*
X183553455Y-60131848D01*
X183260645Y-60333381D01*
X182914792Y-60592623D01*
X182589214Y-60854556D01*
X182579788Y-60862503D01*
X182338997Y-61053679D01*
X182155542Y-61176060D01*
X182058669Y-61211071D01*
X182050621Y-61198607D01*
X182050621Y-61198607D01*
G37*
X182050621Y-61198607D02*
X182114074Y-61066871D01*
X182282214Y-60867684D01*
X182521712Y-60631706D01*
X182799239Y-60389595D01*
X183081468Y-60172010D01*
X183335070Y-60009612D01*
X183354398Y-59999251D01*
X183657325Y-59856138D01*
X183877700Y-59784583D01*
X183989383Y-59792083D01*
X183997955Y-59814677D01*
X183932496Y-59873898D01*
X183761937Y-59994863D01*
X183553455Y-60131848D01*
X183260645Y-60333381D01*
X182914792Y-60592623D01*
X182589214Y-60854556D01*
X182579788Y-60862503D01*
X182338997Y-61053679D01*
X182155542Y-61176060D01*
X182058669Y-61211071D01*
X182050621Y-61198607D01*
G36*
X195345070Y-110752140D02*
X195030897Y-110514532D01*
X194759249Y-110136295D01*
X194706172Y-110034092D01*
X194625512Y-109857215D01*
X194563283Y-109681472D01*
X194521470Y-109492147D01*
X194502057Y-109274526D01*
X194507027Y-109013894D01*
X194538365Y-108695533D01*
X194598053Y-108304730D01*
X194688076Y-107826769D01*
X194810417Y-107246933D01*
X194967061Y-106550509D01*
X195159991Y-105722779D01*
X195391190Y-104749030D01*
X195454218Y-104485170D01*
X195660961Y-103616840D01*
X195830981Y-102892977D01*
X195968239Y-102293679D01*
X196076699Y-101799039D01*
X196160326Y-101389154D01*
X196223081Y-101044120D01*
X196268929Y-100744031D01*
X196301833Y-100468985D01*
X196325757Y-100199075D01*
X196335679Y-100058473D01*
X196366200Y-99719936D01*
X196405912Y-99449788D01*
X196448035Y-99289685D01*
X196464798Y-99265288D01*
X196590907Y-99263036D01*
X196698518Y-99409010D01*
X196785163Y-99682864D01*
X196848374Y-100064251D01*
X196885682Y-100532824D01*
X196894619Y-101068236D01*
X196872718Y-101650141D01*
X196822574Y-102214637D01*
X196762688Y-102694219D01*
X196694532Y-103169546D01*
X196626439Y-103586117D01*
X196566742Y-103889432D01*
X196566032Y-103892503D01*
X196357128Y-104817478D01*
X196167448Y-105705964D01*
X196000179Y-106539952D01*
X195858507Y-107301433D01*
X195745619Y-107972399D01*
X195664702Y-108534839D01*
X195618942Y-108970745D01*
X195611525Y-109262108D01*
X195612774Y-109279733D01*
X195670598Y-109526351D01*
X195808711Y-109639808D01*
X196052678Y-109636013D01*
X196150509Y-109614344D01*
X196353198Y-109491108D01*
X196597705Y-109221359D01*
X196875579Y-108820283D01*
X197178369Y-108303064D01*
X197497625Y-107684890D01*
X197824894Y-106980946D01*
X198151725Y-106206419D01*
X198392413Y-105585836D01*
X198569770Y-105115749D01*
X198709057Y-104769500D01*
X198830623Y-104511989D01*
X198954821Y-104308118D01*
X199102000Y-104122789D01*
X199292513Y-103920902D01*
X199447882Y-103765503D01*
X199883153Y-103374937D01*
X200465949Y-102919955D01*
X201189273Y-102405398D01*
X202046128Y-101836106D01*
X203029516Y-101216919D01*
X203852288Y-100718879D01*
X204444705Y-100363619D01*
X204906598Y-100079055D01*
X205254105Y-99851246D01*
X205503365Y-99666248D01*
X205670516Y-99510118D01*
X205771697Y-99368915D01*
X205823046Y-99228697D01*
X205840702Y-99075519D01*
X205841955Y-98999958D01*
X205796704Y-98636601D01*
X205654029Y-98270422D01*
X205403548Y-97889026D01*
X205034880Y-97480014D01*
X204537641Y-97030991D01*
X203901450Y-96529560D01*
X203566748Y-96283286D01*
X202782892Y-95698874D01*
X202138684Y-95177197D01*
X201622409Y-94705081D01*
X201222347Y-94269352D01*
X200926783Y-93856836D01*
X200723999Y-93454359D01*
X200602277Y-93048747D01*
X200579920Y-92925149D01*
X200531566Y-92510541D01*
X200541710Y-92210027D01*
X200615615Y-91976955D01*
X200702686Y-91836301D01*
X200773748Y-91756879D01*
X200817318Y-91782061D01*
X200849731Y-91936836D01*
X200869310Y-92091221D01*
X200928546Y-92407953D01*
X201028475Y-92779947D01*
X201106684Y-93013756D01*
X201313523Y-93411008D01*
X201640351Y-93848422D01*
X202054352Y-94293195D01*
X202522707Y-94712524D01*
X203012601Y-95073606D01*
X203386621Y-95292724D01*
X204244923Y-95768482D01*
X205005120Y-96266134D01*
X205653350Y-96773846D01*
X206175753Y-97279786D01*
X206558469Y-97772122D01*
X206766110Y-98177751D01*
X206891888Y-98649634D01*
X206938093Y-99142932D01*
X206902409Y-99595480D01*
X206828452Y-99852389D01*
X206735761Y-100039428D01*
X206608843Y-100227084D01*
X206436156Y-100423778D01*
X206206153Y-100637932D01*
X205907290Y-100877966D01*
X205528023Y-101152302D01*
X205056806Y-101469361D01*
X204482096Y-101837564D01*
X203792348Y-102265333D01*
X202976017Y-102761088D01*
X202214743Y-103217868D01*
X201564105Y-103611085D01*
X201043768Y-103937338D01*
X200635498Y-104210967D01*
X200321059Y-104446311D01*
X200082217Y-104657712D01*
X199900735Y-104859508D01*
X199758378Y-105066041D01*
X199675592Y-105214622D01*
X199615760Y-105351689D01*
X199509223Y-105616969D01*
X199367948Y-105979830D01*
X199203904Y-106409643D01*
X199080185Y-106738622D01*
X198905162Y-107204450D01*
X198742822Y-107632015D01*
X198605722Y-107988586D01*
X198506418Y-108241427D01*
X198466846Y-108337503D01*
X198248293Y-108760428D01*
X197954291Y-109225108D01*
X197633676Y-109658289D01*
X197430204Y-109892416D01*
X197169665Y-110119115D01*
X196829592Y-110350529D01*
X196456527Y-110561531D01*
X196097016Y-110726997D01*
X195797602Y-110821801D01*
X195684343Y-110834853D01*
X195345070Y-110752140D01*
X195345070Y-110752140D01*
G37*
X195345070Y-110752140D02*
X195030897Y-110514532D01*
X194759249Y-110136295D01*
X194706172Y-110034092D01*
X194625512Y-109857215D01*
X194563283Y-109681472D01*
X194521470Y-109492147D01*
X194502057Y-109274526D01*
X194507027Y-109013894D01*
X194538365Y-108695533D01*
X194598053Y-108304730D01*
X194688076Y-107826769D01*
X194810417Y-107246933D01*
X194967061Y-106550509D01*
X195159991Y-105722779D01*
X195391190Y-104749030D01*
X195454218Y-104485170D01*
X195660961Y-103616840D01*
X195830981Y-102892977D01*
X195968239Y-102293679D01*
X196076699Y-101799039D01*
X196160326Y-101389154D01*
X196223081Y-101044120D01*
X196268929Y-100744031D01*
X196301833Y-100468985D01*
X196325757Y-100199075D01*
X196335679Y-100058473D01*
X196366200Y-99719936D01*
X196405912Y-99449788D01*
X196448035Y-99289685D01*
X196464798Y-99265288D01*
X196590907Y-99263036D01*
X196698518Y-99409010D01*
X196785163Y-99682864D01*
X196848374Y-100064251D01*
X196885682Y-100532824D01*
X196894619Y-101068236D01*
X196872718Y-101650141D01*
X196822574Y-102214637D01*
X196762688Y-102694219D01*
X196694532Y-103169546D01*
X196626439Y-103586117D01*
X196566742Y-103889432D01*
X196566032Y-103892503D01*
X196357128Y-104817478D01*
X196167448Y-105705964D01*
X196000179Y-106539952D01*
X195858507Y-107301433D01*
X195745619Y-107972399D01*
X195664702Y-108534839D01*
X195618942Y-108970745D01*
X195611525Y-109262108D01*
X195612774Y-109279733D01*
X195670598Y-109526351D01*
X195808711Y-109639808D01*
X196052678Y-109636013D01*
X196150509Y-109614344D01*
X196353198Y-109491108D01*
X196597705Y-109221359D01*
X196875579Y-108820283D01*
X197178369Y-108303064D01*
X197497625Y-107684890D01*
X197824894Y-106980946D01*
X198151725Y-106206419D01*
X198392413Y-105585836D01*
X198569770Y-105115749D01*
X198709057Y-104769500D01*
X198830623Y-104511989D01*
X198954821Y-104308118D01*
X199102000Y-104122789D01*
X199292513Y-103920902D01*
X199447882Y-103765503D01*
X199883153Y-103374937D01*
X200465949Y-102919955D01*
X201189273Y-102405398D01*
X202046128Y-101836106D01*
X203029516Y-101216919D01*
X203852288Y-100718879D01*
X204444705Y-100363619D01*
X204906598Y-100079055D01*
X205254105Y-99851246D01*
X205503365Y-99666248D01*
X205670516Y-99510118D01*
X205771697Y-99368915D01*
X205823046Y-99228697D01*
X205840702Y-99075519D01*
X205841955Y-98999958D01*
X205796704Y-98636601D01*
X205654029Y-98270422D01*
X205403548Y-97889026D01*
X205034880Y-97480014D01*
X204537641Y-97030991D01*
X203901450Y-96529560D01*
X203566748Y-96283286D01*
X202782892Y-95698874D01*
X202138684Y-95177197D01*
X201622409Y-94705081D01*
X201222347Y-94269352D01*
X200926783Y-93856836D01*
X200723999Y-93454359D01*
X200602277Y-93048747D01*
X200579920Y-92925149D01*
X200531566Y-92510541D01*
X200541710Y-92210027D01*
X200615615Y-91976955D01*
X200702686Y-91836301D01*
X200773748Y-91756879D01*
X200817318Y-91782061D01*
X200849731Y-91936836D01*
X200869310Y-92091221D01*
X200928546Y-92407953D01*
X201028475Y-92779947D01*
X201106684Y-93013756D01*
X201313523Y-93411008D01*
X201640351Y-93848422D01*
X202054352Y-94293195D01*
X202522707Y-94712524D01*
X203012601Y-95073606D01*
X203386621Y-95292724D01*
X204244923Y-95768482D01*
X205005120Y-96266134D01*
X205653350Y-96773846D01*
X206175753Y-97279786D01*
X206558469Y-97772122D01*
X206766110Y-98177751D01*
X206891888Y-98649634D01*
X206938093Y-99142932D01*
X206902409Y-99595480D01*
X206828452Y-99852389D01*
X206735761Y-100039428D01*
X206608843Y-100227084D01*
X206436156Y-100423778D01*
X206206153Y-100637932D01*
X205907290Y-100877966D01*
X205528023Y-101152302D01*
X205056806Y-101469361D01*
X204482096Y-101837564D01*
X203792348Y-102265333D01*
X202976017Y-102761088D01*
X202214743Y-103217868D01*
X201564105Y-103611085D01*
X201043768Y-103937338D01*
X200635498Y-104210967D01*
X200321059Y-104446311D01*
X200082217Y-104657712D01*
X199900735Y-104859508D01*
X199758378Y-105066041D01*
X199675592Y-105214622D01*
X199615760Y-105351689D01*
X199509223Y-105616969D01*
X199367948Y-105979830D01*
X199203904Y-106409643D01*
X199080185Y-106738622D01*
X198905162Y-107204450D01*
X198742822Y-107632015D01*
X198605722Y-107988586D01*
X198506418Y-108241427D01*
X198466846Y-108337503D01*
X198248293Y-108760428D01*
X197954291Y-109225108D01*
X197633676Y-109658289D01*
X197430204Y-109892416D01*
X197169665Y-110119115D01*
X196829592Y-110350529D01*
X196456527Y-110561531D01*
X196097016Y-110726997D01*
X195797602Y-110821801D01*
X195684343Y-110834853D01*
X195345070Y-110752140D01*
G36*
X167904211Y-51230000D02*
X167938030Y-51286592D01*
X167978999Y-51417932D01*
X168033004Y-51644518D01*
X168105935Y-51986844D01*
X168203678Y-52465409D01*
X168257668Y-52732364D01*
X168395917Y-53360305D01*
X168580699Y-54115230D01*
X168802607Y-54964292D01*
X169052237Y-55874647D01*
X169320184Y-56813451D01*
X169597041Y-57747859D01*
X169873404Y-58645026D01*
X170139866Y-59472107D01*
X170387023Y-60196259D01*
X170427617Y-60310030D01*
X170651482Y-60923259D01*
X170895879Y-61576492D01*
X171150350Y-62243203D01*
X171404438Y-62896865D01*
X171647685Y-63510949D01*
X171869636Y-64058928D01*
X172059832Y-64514276D01*
X172207817Y-64850463D01*
X172263270Y-64966697D01*
X172343527Y-65137015D01*
X172479775Y-65437222D01*
X172660666Y-65841835D01*
X172874855Y-66325375D01*
X173110994Y-66862360D01*
X173300117Y-67295030D01*
X173871882Y-68601372D01*
X174416982Y-69836423D01*
X174925946Y-70978920D01*
X175389301Y-72007598D01*
X175797572Y-72901193D01*
X175800543Y-72907637D01*
X175960896Y-73268741D01*
X176171208Y-73762625D01*
X176421278Y-74363782D01*
X176700905Y-75046706D01*
X176999889Y-75785890D01*
X177308030Y-76555828D01*
X177615126Y-77331013D01*
X177910979Y-78085938D01*
X178185386Y-78795097D01*
X178428148Y-79432982D01*
X178629065Y-79974088D01*
X178654589Y-80044300D01*
X179200945Y-81645388D01*
X179690929Y-83269234D01*
X180108090Y-84858528D01*
X180365965Y-86006364D01*
X180474132Y-86525295D01*
X180572029Y-86985443D01*
X180654195Y-87361906D01*
X180715169Y-87629787D01*
X180749491Y-87764184D01*
X180753803Y-87774785D01*
X180833276Y-87747979D01*
X181016501Y-87647203D01*
X181266702Y-87492970D01*
X181315022Y-87461759D01*
X182214629Y-86954207D01*
X183101067Y-86611207D01*
X183282667Y-86560687D01*
X183672908Y-86491788D01*
X184179905Y-86448708D01*
X184753041Y-86431578D01*
X185341698Y-86440530D01*
X185895260Y-86475695D01*
X186363108Y-86537203D01*
X186441146Y-86552511D01*
X187185686Y-86749073D01*
X187832153Y-87000480D01*
X188366941Y-87297252D01*
X188776440Y-87629909D01*
X189047042Y-87988970D01*
X189165139Y-88364955D01*
X189169298Y-88453051D01*
X189139350Y-88694350D01*
X189061068Y-89039631D01*
X188949964Y-89436044D01*
X188821552Y-89830735D01*
X188691344Y-90170854D01*
X188619987Y-90324476D01*
X188471535Y-90524643D01*
X188208401Y-90793945D01*
X187858494Y-91110184D01*
X187449720Y-91451161D01*
X187009989Y-91794677D01*
X186567207Y-92118533D01*
X186149283Y-92400531D01*
X185784125Y-92618472D01*
X185649332Y-92687416D01*
X185379374Y-92796731D01*
X184979413Y-92933799D01*
X184484498Y-93088524D01*
X183929675Y-93250812D01*
X183349994Y-93410568D01*
X182780501Y-93557700D01*
X182256243Y-93682110D01*
X182016045Y-93733876D01*
X181084712Y-93925771D01*
X181024331Y-94643900D01*
X180912071Y-95752066D01*
X180760174Y-96907517D01*
X180575822Y-98069549D01*
X180366197Y-99197452D01*
X180138481Y-100250520D01*
X179899857Y-101188046D01*
X179822060Y-101458030D01*
X179630070Y-102062889D01*
X179391398Y-102752646D01*
X179118662Y-103495725D01*
X178824479Y-104260550D01*
X178521469Y-105015546D01*
X178222249Y-105729134D01*
X177939438Y-106369741D01*
X177685654Y-106905789D01*
X177512896Y-107236530D01*
X177373794Y-107494107D01*
X177280770Y-107682375D01*
X177251796Y-107764681D01*
X177253442Y-107765697D01*
X177345920Y-107741405D01*
X177554064Y-107677726D01*
X177832229Y-107588635D01*
X178410808Y-107365596D01*
X178875397Y-107102442D01*
X179241943Y-106805688D01*
X179443913Y-106637859D01*
X179549895Y-106590945D01*
X179561320Y-106647355D01*
X179479619Y-106789500D01*
X179306220Y-106999789D01*
X179218686Y-107091773D01*
X178938311Y-107334880D01*
X178577685Y-107588771D01*
X178176943Y-107831311D01*
X177776222Y-108040363D01*
X177415656Y-108193791D01*
X177135382Y-108269458D01*
X177075735Y-108273697D01*
X176915682Y-108298106D01*
X176765020Y-108390834D01*
X176585202Y-108581131D01*
X176454184Y-108745378D01*
X175992825Y-109246107D01*
X175421600Y-109717108D01*
X174799179Y-110112233D01*
X174565379Y-110231033D01*
X174134600Y-110384982D01*
X173632216Y-110489987D01*
X173129337Y-110535800D01*
X172697076Y-110512171D01*
X172660379Y-110505576D01*
X171458102Y-110203568D01*
X170273946Y-109777036D01*
X169708402Y-109522540D01*
X168661426Y-109015542D01*
X168311402Y-109213823D01*
X167923198Y-109353195D01*
X167424015Y-109409280D01*
X166848829Y-109384643D01*
X166232618Y-109281849D01*
X165610356Y-109103464D01*
X165327521Y-108994980D01*
X165117553Y-108893309D01*
X165061269Y-108833009D01*
X165147453Y-108816953D01*
X165364891Y-108848015D01*
X165644846Y-108913690D01*
X165987992Y-108986337D01*
X166343663Y-109019061D01*
X166773770Y-109015825D01*
X167030045Y-109002339D01*
X167581483Y-108961489D01*
X167974927Y-108916835D01*
X168221707Y-108866486D01*
X168333151Y-108808554D01*
X168342379Y-108783468D01*
X168278970Y-108707464D01*
X168110015Y-108559831D01*
X167867422Y-108367838D01*
X167770879Y-108295099D01*
X166861662Y-107524854D01*
X165990344Y-106600028D01*
X165163192Y-105532394D01*
X164386474Y-104333722D01*
X163666457Y-103015785D01*
X163009410Y-101590354D01*
X162421600Y-100069202D01*
X161909296Y-98464101D01*
X161478764Y-96786822D01*
X161364928Y-96263854D01*
X161266549Y-95790960D01*
X161181448Y-95379040D01*
X161115181Y-95055230D01*
X161073308Y-94846669D01*
X161061045Y-94780171D01*
X160982530Y-94763703D01*
X160771106Y-94741595D01*
X160462954Y-94717256D01*
X160233637Y-94702202D01*
X159263653Y-94604487D01*
X158415622Y-94433171D01*
X157655492Y-94180498D01*
X157346587Y-94044622D01*
X156473549Y-93550230D01*
X155664728Y-92933360D01*
X154946958Y-92220215D01*
X154347075Y-91437002D01*
X153942844Y-90720879D01*
X153745859Y-90162268D01*
X153692603Y-89636286D01*
X153717006Y-89510382D01*
X154118379Y-89510382D01*
X154172559Y-89672245D01*
X154321329Y-89929750D01*
X154544032Y-90254471D01*
X154820013Y-90617985D01*
X155128615Y-90991868D01*
X155449183Y-91347696D01*
X155467813Y-91367291D01*
X156161891Y-92006442D01*
X156976664Y-92605648D01*
X157863564Y-93129815D01*
X158013045Y-93206445D01*
X158240225Y-93309245D01*
X158563007Y-93440695D01*
X158951023Y-93590010D01*
X159373904Y-93746406D01*
X159801284Y-93899097D01*
X160202794Y-94037300D01*
X160548067Y-94150230D01*
X160806734Y-94227102D01*
X160948428Y-94257131D01*
X160964673Y-94254661D01*
X160966911Y-94164924D01*
X160946574Y-93948029D01*
X160907765Y-93644034D01*
X160888345Y-93509421D01*
X160833100Y-93170936D01*
X160778822Y-92893636D01*
X160734718Y-92722871D01*
X160723353Y-92696607D01*
X160631600Y-92650217D01*
X160425577Y-92650169D01*
X160109470Y-92691501D01*
X159572668Y-92730888D01*
X158979513Y-92699361D01*
X158400097Y-92604947D01*
X157904516Y-92455676D01*
X157849988Y-92432697D01*
X157582423Y-92299507D01*
X157243753Y-92108778D01*
X156872577Y-91884903D01*
X156507495Y-91652269D01*
X156187106Y-91435268D01*
X155950009Y-91258288D01*
X155855074Y-91172167D01*
X155738525Y-91018531D01*
X155749851Y-90961711D01*
X155879743Y-90999249D01*
X156118893Y-91128689D01*
X156418660Y-91320927D01*
X157055580Y-91731539D01*
X157602478Y-92036688D01*
X158092274Y-92247351D01*
X158557894Y-92374503D01*
X159032258Y-92429122D01*
X159548291Y-92422184D01*
X159690812Y-92411860D01*
X160128512Y-92370746D01*
X160423724Y-92326292D01*
X160603189Y-92269302D01*
X160693650Y-92190577D01*
X160721851Y-92080921D01*
X160722379Y-92057080D01*
X160702235Y-91812509D01*
X160618362Y-91672310D01*
X160435597Y-91608822D01*
X160134197Y-91594364D01*
X159650994Y-91556904D01*
X159122174Y-91453355D01*
X158581286Y-91296963D01*
X158061882Y-91100972D01*
X157597513Y-90878628D01*
X157221731Y-90643176D01*
X156968086Y-90407863D01*
X156911079Y-90321936D01*
X156925003Y-90276440D01*
X157070041Y-90331322D01*
X157347860Y-90487306D01*
X157490032Y-90574133D01*
X158316686Y-91003122D01*
X159146521Y-91268203D01*
X159932039Y-91365922D01*
X160235652Y-91368526D01*
X160466976Y-91359672D01*
X160579585Y-91341263D01*
X160582236Y-91339277D01*
X160590332Y-91246932D01*
X160587640Y-91023148D01*
X160576282Y-90705328D01*
X160558383Y-90330876D01*
X160536065Y-89937192D01*
X160511452Y-89561679D01*
X160486667Y-89241741D01*
X160463832Y-89014778D01*
X160445071Y-88918194D01*
X160444784Y-88917880D01*
X160356518Y-88895535D01*
X160135731Y-88853523D01*
X159817231Y-88798170D01*
X159491913Y-88744750D01*
X158715999Y-88653295D01*
X157807300Y-88604321D01*
X157208712Y-88596184D01*
X156684464Y-88598364D01*
X156290140Y-88607692D01*
X155986351Y-88628657D01*
X155733709Y-88665747D01*
X155492826Y-88723451D01*
X155224312Y-88806259D01*
X155150161Y-88830773D01*
X154650589Y-89022799D01*
X154316728Y-89211804D01*
X154145042Y-89400118D01*
X154118379Y-89510382D01*
X153717006Y-89510382D01*
X153783996Y-89164762D01*
X153869670Y-88981225D01*
X154109950Y-88676187D01*
X154473458Y-88359669D01*
X154918421Y-88058251D01*
X155403066Y-87798513D01*
X155885621Y-87607037D01*
X156133379Y-87540795D01*
X156794211Y-87463017D01*
X157534348Y-87480041D01*
X158298304Y-87584177D01*
X159030594Y-87767731D01*
X159675730Y-88023013D01*
X159700161Y-88035225D01*
X159995625Y-88175644D01*
X160177915Y-88236328D01*
X160278568Y-88225476D01*
X160309499Y-88193681D01*
X160328567Y-88081771D01*
X160345820Y-87823879D01*
X160360545Y-87443352D01*
X160372029Y-86963537D01*
X160379558Y-86407782D01*
X160382415Y-85807316D01*
X160394922Y-84750847D01*
X160429673Y-83629630D01*
X160484250Y-82480168D01*
X160556233Y-81338965D01*
X160643201Y-80242525D01*
X160742735Y-79227350D01*
X160852415Y-78329945D01*
X160899625Y-78005364D01*
X161085626Y-76907331D01*
X161321153Y-75695766D01*
X161595949Y-74415563D01*
X161899760Y-73111620D01*
X162222328Y-71828833D01*
X162553398Y-70612098D01*
X162717677Y-70046697D01*
X162931950Y-69331474D01*
X163169896Y-68545759D01*
X163426960Y-67703988D01*
X163698585Y-66820596D01*
X163980213Y-65910021D01*
X164267290Y-64986698D01*
X164555259Y-64065064D01*
X164839563Y-63159554D01*
X165115646Y-62284604D01*
X165378952Y-61454652D01*
X165624924Y-60684132D01*
X165849006Y-59987482D01*
X166046642Y-59379137D01*
X166213275Y-58873533D01*
X166344349Y-58485107D01*
X166435308Y-58228294D01*
X166481595Y-58117531D01*
X166483537Y-58115096D01*
X166542905Y-58090202D01*
X166535397Y-58209025D01*
X166529753Y-58235697D01*
X166502436Y-58362432D01*
X166443856Y-58636116D01*
X166357998Y-59038072D01*
X166248845Y-59549623D01*
X166120382Y-60152095D01*
X165976593Y-60826809D01*
X165821463Y-61555091D01*
X165753052Y-61876364D01*
X165550806Y-62823845D01*
X165376378Y-63633198D01*
X165223029Y-64332067D01*
X165084019Y-64948092D01*
X164952608Y-65508916D01*
X164822058Y-66042180D01*
X164685629Y-66575528D01*
X164536581Y-67136600D01*
X164368175Y-67753040D01*
X164173671Y-68452489D01*
X163990480Y-69105578D01*
X163506123Y-70881677D01*
X163087899Y-72534447D01*
X162729888Y-74093794D01*
X162426166Y-75589628D01*
X162170812Y-77051856D01*
X161957906Y-78510387D01*
X161781524Y-79995128D01*
X161725481Y-80545364D01*
X161673468Y-81175635D01*
X161626993Y-81929687D01*
X161586470Y-82781382D01*
X161552314Y-83704581D01*
X161524939Y-84673146D01*
X161504760Y-85660938D01*
X161492192Y-86641818D01*
X161487650Y-87589648D01*
X161491547Y-88478290D01*
X161504300Y-89281605D01*
X161526321Y-89973454D01*
X161558027Y-90527699D01*
X161565651Y-90620697D01*
X161773467Y-92599460D01*
X162042367Y-94494656D01*
X162369555Y-96296084D01*
X162752235Y-97993542D01*
X163187611Y-99576828D01*
X163672887Y-101035741D01*
X164205267Y-102360078D01*
X164781956Y-103539639D01*
X165377939Y-104531223D01*
X166252769Y-105725761D01*
X167186077Y-106791148D01*
X168165200Y-107714127D01*
X169104379Y-108432103D01*
X169790521Y-108880829D01*
X170390439Y-109225300D01*
X170940361Y-109478216D01*
X171476514Y-109652279D01*
X172035129Y-109760189D01*
X172652433Y-109814647D01*
X173083712Y-109827178D01*
X173725924Y-109816221D01*
X174253146Y-109754348D01*
X174694991Y-109624476D01*
X175081067Y-109409523D01*
X175440987Y-109092404D01*
X175804359Y-108656037D01*
X176200796Y-108083338D01*
X176257510Y-107996121D01*
X176695204Y-107250656D01*
X177139858Y-106364464D01*
X177580757Y-105365226D01*
X178007185Y-104280624D01*
X178408426Y-103138338D01*
X178773765Y-101966050D01*
X179092487Y-100791440D01*
X179171006Y-100469730D01*
X179399046Y-99457918D01*
X179582231Y-98514936D01*
X179725596Y-97599468D01*
X179834172Y-96670197D01*
X179912994Y-95685806D01*
X179967094Y-94604979D01*
X179994359Y-93711030D01*
X180010345Y-92917107D01*
X180015898Y-92255602D01*
X180010127Y-91689868D01*
X179992141Y-91183258D01*
X179961049Y-90699126D01*
X179915961Y-90200826D01*
X179906905Y-90112697D01*
X179795224Y-89164587D01*
X179786364Y-89101240D01*
X180858604Y-89101240D01*
X180861495Y-89221979D01*
X180885563Y-89640209D01*
X180940837Y-89914762D01*
X181048536Y-90071000D01*
X181229878Y-90134287D01*
X181506083Y-90129984D01*
X181612086Y-90119139D01*
X182176576Y-89994572D01*
X182823539Y-89737624D01*
X183557070Y-89346268D01*
X184381266Y-88818475D01*
X184725379Y-88577211D01*
X185148712Y-88273925D01*
X184627574Y-88781480D01*
X184323064Y-89046913D01*
X183930220Y-89345807D01*
X183510577Y-89632796D01*
X183277114Y-89777117D01*
X182903361Y-89992795D01*
X182624826Y-90136352D01*
X182392945Y-90225106D01*
X182159152Y-90276379D01*
X181874882Y-90307491D01*
X181766252Y-90315948D01*
X181084712Y-90366697D01*
X181058604Y-90681344D01*
X181055982Y-90894248D01*
X181118138Y-91001359D01*
X181270271Y-91061021D01*
X181442361Y-91085417D01*
X181743766Y-91105850D01*
X182134480Y-91120400D01*
X182574496Y-91127143D01*
X182651045Y-91127374D01*
X183794045Y-91128697D01*
X184598379Y-90733725D01*
X184982725Y-90541300D01*
X185355153Y-90348506D01*
X185660830Y-90184004D01*
X185783712Y-90114158D01*
X186164712Y-89889564D01*
X185785486Y-90241510D01*
X185489776Y-90469440D01*
X185082479Y-90721738D01*
X184613741Y-90972600D01*
X184133707Y-91196226D01*
X183692522Y-91366812D01*
X183472316Y-91431747D01*
X183198870Y-91470381D01*
X182814114Y-91488763D01*
X182372777Y-91488186D01*
X181929588Y-91469942D01*
X181539275Y-91435326D01*
X181256566Y-91385629D01*
X181232879Y-91378838D01*
X181042379Y-91320614D01*
X181042379Y-92438211D01*
X181046868Y-92847854D01*
X181059166Y-93185584D01*
X181077514Y-93421279D01*
X181100156Y-93524816D01*
X181105879Y-93526728D01*
X181202382Y-93478674D01*
X181417202Y-93369801D01*
X181717979Y-93216558D01*
X182052067Y-93045779D01*
X182420308Y-92867579D01*
X182902947Y-92649141D01*
X183455813Y-92409633D01*
X184034733Y-92168223D01*
X184549734Y-91961957D01*
X185199098Y-91705424D01*
X185714077Y-91493768D01*
X186119117Y-91313155D01*
X186438663Y-91149752D01*
X186697161Y-90989723D01*
X186919055Y-90819237D01*
X187128790Y-90624457D01*
X187350813Y-90391552D01*
X187379051Y-90360811D01*
X187607233Y-90082141D01*
X187849163Y-89737512D01*
X188087110Y-89358798D01*
X188303339Y-88977869D01*
X188480117Y-88626600D01*
X188599710Y-88336862D01*
X188644385Y-88140528D01*
X188638257Y-88097626D01*
X188539558Y-88037298D01*
X188302798Y-87962585D01*
X187958040Y-87879294D01*
X187535348Y-87793235D01*
X187064785Y-87710214D01*
X186576414Y-87636040D01*
X186100300Y-87576521D01*
X185783712Y-87546144D01*
X184875024Y-87527105D01*
X183885744Y-87602686D01*
X182870602Y-87765713D01*
X181884329Y-88009013D01*
X181614759Y-88092508D01*
X181301891Y-88203350D01*
X181053654Y-88308164D01*
X180913093Y-88388264D01*
X180899242Y-88403139D01*
X180874197Y-88528129D01*
X180859943Y-88776180D01*
X180858604Y-89101240D01*
X179786364Y-89101240D01*
X179652699Y-88145572D01*
X179489246Y-87118660D01*
X179314780Y-86146860D01*
X179172104Y-85442937D01*
X179090175Y-85109499D01*
X178961874Y-84644600D01*
X178796096Y-84076839D01*
X178601741Y-83434815D01*
X178387704Y-82747127D01*
X178162884Y-82042372D01*
X177936178Y-81349149D01*
X177716484Y-80696058D01*
X177518829Y-80128891D01*
X177342847Y-79649130D01*
X177110314Y-79036956D01*
X176830710Y-78315881D01*
X176513517Y-77509420D01*
X176168217Y-76641087D01*
X175804292Y-75734394D01*
X175431223Y-74812856D01*
X175058491Y-73899986D01*
X174695578Y-73019298D01*
X174351967Y-72194306D01*
X174037137Y-71448524D01*
X173760571Y-70805464D01*
X173743526Y-70766364D01*
X173418862Y-70018124D01*
X173055485Y-69173570D01*
X172676524Y-68286924D01*
X172305107Y-67412404D01*
X171964361Y-66604230D01*
X171775019Y-66151555D01*
X171253269Y-64854377D01*
X170746381Y-63507687D01*
X170262256Y-62136930D01*
X169808792Y-60767550D01*
X169393889Y-59424990D01*
X169025447Y-58134694D01*
X168711366Y-56922105D01*
X168459546Y-55812669D01*
X168296913Y-54949108D01*
X168137515Y-53966621D01*
X168009327Y-53129788D01*
X167912804Y-52442232D01*
X167848398Y-51907575D01*
X167816564Y-51529440D01*
X167817756Y-51311448D01*
X167834470Y-51259072D01*
X167871653Y-51227658D01*
X167904211Y-51230000D01*
X167904211Y-51230000D01*
G37*
X167904211Y-51230000D02*
X167938030Y-51286592D01*
X167978999Y-51417932D01*
X168033004Y-51644518D01*
X168105935Y-51986844D01*
X168203678Y-52465409D01*
X168257668Y-52732364D01*
X168395917Y-53360305D01*
X168580699Y-54115230D01*
X168802607Y-54964292D01*
X169052237Y-55874647D01*
X169320184Y-56813451D01*
X169597041Y-57747859D01*
X169873404Y-58645026D01*
X170139866Y-59472107D01*
X170387023Y-60196259D01*
X170427617Y-60310030D01*
X170651482Y-60923259D01*
X170895879Y-61576492D01*
X171150350Y-62243203D01*
X171404438Y-62896865D01*
X171647685Y-63510949D01*
X171869636Y-64058928D01*
X172059832Y-64514276D01*
X172207817Y-64850463D01*
X172263270Y-64966697D01*
X172343527Y-65137015D01*
X172479775Y-65437222D01*
X172660666Y-65841835D01*
X172874855Y-66325375D01*
X173110994Y-66862360D01*
X173300117Y-67295030D01*
X173871882Y-68601372D01*
X174416982Y-69836423D01*
X174925946Y-70978920D01*
X175389301Y-72007598D01*
X175797572Y-72901193D01*
X175800543Y-72907637D01*
X175960896Y-73268741D01*
X176171208Y-73762625D01*
X176421278Y-74363782D01*
X176700905Y-75046706D01*
X176999889Y-75785890D01*
X177308030Y-76555828D01*
X177615126Y-77331013D01*
X177910979Y-78085938D01*
X178185386Y-78795097D01*
X178428148Y-79432982D01*
X178629065Y-79974088D01*
X178654589Y-80044300D01*
X179200945Y-81645388D01*
X179690929Y-83269234D01*
X180108090Y-84858528D01*
X180365965Y-86006364D01*
X180474132Y-86525295D01*
X180572029Y-86985443D01*
X180654195Y-87361906D01*
X180715169Y-87629787D01*
X180749491Y-87764184D01*
X180753803Y-87774785D01*
X180833276Y-87747979D01*
X181016501Y-87647203D01*
X181266702Y-87492970D01*
X181315022Y-87461759D01*
X182214629Y-86954207D01*
X183101067Y-86611207D01*
X183282667Y-86560687D01*
X183672908Y-86491788D01*
X184179905Y-86448708D01*
X184753041Y-86431578D01*
X185341698Y-86440530D01*
X185895260Y-86475695D01*
X186363108Y-86537203D01*
X186441146Y-86552511D01*
X187185686Y-86749073D01*
X187832153Y-87000480D01*
X188366941Y-87297252D01*
X188776440Y-87629909D01*
X189047042Y-87988970D01*
X189165139Y-88364955D01*
X189169298Y-88453051D01*
X189139350Y-88694350D01*
X189061068Y-89039631D01*
X188949964Y-89436044D01*
X188821552Y-89830735D01*
X188691344Y-90170854D01*
X188619987Y-90324476D01*
X188471535Y-90524643D01*
X188208401Y-90793945D01*
X187858494Y-91110184D01*
X187449720Y-91451161D01*
X187009989Y-91794677D01*
X186567207Y-92118533D01*
X186149283Y-92400531D01*
X185784125Y-92618472D01*
X185649332Y-92687416D01*
X185379374Y-92796731D01*
X184979413Y-92933799D01*
X184484498Y-93088524D01*
X183929675Y-93250812D01*
X183349994Y-93410568D01*
X182780501Y-93557700D01*
X182256243Y-93682110D01*
X182016045Y-93733876D01*
X181084712Y-93925771D01*
X181024331Y-94643900D01*
X180912071Y-95752066D01*
X180760174Y-96907517D01*
X180575822Y-98069549D01*
X180366197Y-99197452D01*
X180138481Y-100250520D01*
X179899857Y-101188046D01*
X179822060Y-101458030D01*
X179630070Y-102062889D01*
X179391398Y-102752646D01*
X179118662Y-103495725D01*
X178824479Y-104260550D01*
X178521469Y-105015546D01*
X178222249Y-105729134D01*
X177939438Y-106369741D01*
X177685654Y-106905789D01*
X177512896Y-107236530D01*
X177373794Y-107494107D01*
X177280770Y-107682375D01*
X177251796Y-107764681D01*
X177253442Y-107765697D01*
X177345920Y-107741405D01*
X177554064Y-107677726D01*
X177832229Y-107588635D01*
X178410808Y-107365596D01*
X178875397Y-107102442D01*
X179241943Y-106805688D01*
X179443913Y-106637859D01*
X179549895Y-106590945D01*
X179561320Y-106647355D01*
X179479619Y-106789500D01*
X179306220Y-106999789D01*
X179218686Y-107091773D01*
X178938311Y-107334880D01*
X178577685Y-107588771D01*
X178176943Y-107831311D01*
X177776222Y-108040363D01*
X177415656Y-108193791D01*
X177135382Y-108269458D01*
X177075735Y-108273697D01*
X176915682Y-108298106D01*
X176765020Y-108390834D01*
X176585202Y-108581131D01*
X176454184Y-108745378D01*
X175992825Y-109246107D01*
X175421600Y-109717108D01*
X174799179Y-110112233D01*
X174565379Y-110231033D01*
X174134600Y-110384982D01*
X173632216Y-110489987D01*
X173129337Y-110535800D01*
X172697076Y-110512171D01*
X172660379Y-110505576D01*
X171458102Y-110203568D01*
X170273946Y-109777036D01*
X169708402Y-109522540D01*
X168661426Y-109015542D01*
X168311402Y-109213823D01*
X167923198Y-109353195D01*
X167424015Y-109409280D01*
X166848829Y-109384643D01*
X166232618Y-109281849D01*
X165610356Y-109103464D01*
X165327521Y-108994980D01*
X165117553Y-108893309D01*
X165061269Y-108833009D01*
X165147453Y-108816953D01*
X165364891Y-108848015D01*
X165644846Y-108913690D01*
X165987992Y-108986337D01*
X166343663Y-109019061D01*
X166773770Y-109015825D01*
X167030045Y-109002339D01*
X167581483Y-108961489D01*
X167974927Y-108916835D01*
X168221707Y-108866486D01*
X168333151Y-108808554D01*
X168342379Y-108783468D01*
X168278970Y-108707464D01*
X168110015Y-108559831D01*
X167867422Y-108367838D01*
X167770879Y-108295099D01*
X166861662Y-107524854D01*
X165990344Y-106600028D01*
X165163192Y-105532394D01*
X164386474Y-104333722D01*
X163666457Y-103015785D01*
X163009410Y-101590354D01*
X162421600Y-100069202D01*
X161909296Y-98464101D01*
X161478764Y-96786822D01*
X161364928Y-96263854D01*
X161266549Y-95790960D01*
X161181448Y-95379040D01*
X161115181Y-95055230D01*
X161073308Y-94846669D01*
X161061045Y-94780171D01*
X160982530Y-94763703D01*
X160771106Y-94741595D01*
X160462954Y-94717256D01*
X160233637Y-94702202D01*
X159263653Y-94604487D01*
X158415622Y-94433171D01*
X157655492Y-94180498D01*
X157346587Y-94044622D01*
X156473549Y-93550230D01*
X155664728Y-92933360D01*
X154946958Y-92220215D01*
X154347075Y-91437002D01*
X153942844Y-90720879D01*
X153745859Y-90162268D01*
X153692603Y-89636286D01*
X153717006Y-89510382D01*
X154118379Y-89510382D01*
X154172559Y-89672245D01*
X154321329Y-89929750D01*
X154544032Y-90254471D01*
X154820013Y-90617985D01*
X155128615Y-90991868D01*
X155449183Y-91347696D01*
X155467813Y-91367291D01*
X156161891Y-92006442D01*
X156976664Y-92605648D01*
X157863564Y-93129815D01*
X158013045Y-93206445D01*
X158240225Y-93309245D01*
X158563007Y-93440695D01*
X158951023Y-93590010D01*
X159373904Y-93746406D01*
X159801284Y-93899097D01*
X160202794Y-94037300D01*
X160548067Y-94150230D01*
X160806734Y-94227102D01*
X160948428Y-94257131D01*
X160964673Y-94254661D01*
X160966911Y-94164924D01*
X160946574Y-93948029D01*
X160907765Y-93644034D01*
X160888345Y-93509421D01*
X160833100Y-93170936D01*
X160778822Y-92893636D01*
X160734718Y-92722871D01*
X160723353Y-92696607D01*
X160631600Y-92650217D01*
X160425577Y-92650169D01*
X160109470Y-92691501D01*
X159572668Y-92730888D01*
X158979513Y-92699361D01*
X158400097Y-92604947D01*
X157904516Y-92455676D01*
X157849988Y-92432697D01*
X157582423Y-92299507D01*
X157243753Y-92108778D01*
X156872577Y-91884903D01*
X156507495Y-91652269D01*
X156187106Y-91435268D01*
X155950009Y-91258288D01*
X155855074Y-91172167D01*
X155738525Y-91018531D01*
X155749851Y-90961711D01*
X155879743Y-90999249D01*
X156118893Y-91128689D01*
X156418660Y-91320927D01*
X157055580Y-91731539D01*
X157602478Y-92036688D01*
X158092274Y-92247351D01*
X158557894Y-92374503D01*
X159032258Y-92429122D01*
X159548291Y-92422184D01*
X159690812Y-92411860D01*
X160128512Y-92370746D01*
X160423724Y-92326292D01*
X160603189Y-92269302D01*
X160693650Y-92190577D01*
X160721851Y-92080921D01*
X160722379Y-92057080D01*
X160702235Y-91812509D01*
X160618362Y-91672310D01*
X160435597Y-91608822D01*
X160134197Y-91594364D01*
X159650994Y-91556904D01*
X159122174Y-91453355D01*
X158581286Y-91296963D01*
X158061882Y-91100972D01*
X157597513Y-90878628D01*
X157221731Y-90643176D01*
X156968086Y-90407863D01*
X156911079Y-90321936D01*
X156925003Y-90276440D01*
X157070041Y-90331322D01*
X157347860Y-90487306D01*
X157490032Y-90574133D01*
X158316686Y-91003122D01*
X159146521Y-91268203D01*
X159932039Y-91365922D01*
X160235652Y-91368526D01*
X160466976Y-91359672D01*
X160579585Y-91341263D01*
X160582236Y-91339277D01*
X160590332Y-91246932D01*
X160587640Y-91023148D01*
X160576282Y-90705328D01*
X160558383Y-90330876D01*
X160536065Y-89937192D01*
X160511452Y-89561679D01*
X160486667Y-89241741D01*
X160463832Y-89014778D01*
X160445071Y-88918194D01*
X160444784Y-88917880D01*
X160356518Y-88895535D01*
X160135731Y-88853523D01*
X159817231Y-88798170D01*
X159491913Y-88744750D01*
X158715999Y-88653295D01*
X157807300Y-88604321D01*
X157208712Y-88596184D01*
X156684464Y-88598364D01*
X156290140Y-88607692D01*
X155986351Y-88628657D01*
X155733709Y-88665747D01*
X155492826Y-88723451D01*
X155224312Y-88806259D01*
X155150161Y-88830773D01*
X154650589Y-89022799D01*
X154316728Y-89211804D01*
X154145042Y-89400118D01*
X154118379Y-89510382D01*
X153717006Y-89510382D01*
X153783996Y-89164762D01*
X153869670Y-88981225D01*
X154109950Y-88676187D01*
X154473458Y-88359669D01*
X154918421Y-88058251D01*
X155403066Y-87798513D01*
X155885621Y-87607037D01*
X156133379Y-87540795D01*
X156794211Y-87463017D01*
X157534348Y-87480041D01*
X158298304Y-87584177D01*
X159030594Y-87767731D01*
X159675730Y-88023013D01*
X159700161Y-88035225D01*
X159995625Y-88175644D01*
X160177915Y-88236328D01*
X160278568Y-88225476D01*
X160309499Y-88193681D01*
X160328567Y-88081771D01*
X160345820Y-87823879D01*
X160360545Y-87443352D01*
X160372029Y-86963537D01*
X160379558Y-86407782D01*
X160382415Y-85807316D01*
X160394922Y-84750847D01*
X160429673Y-83629630D01*
X160484250Y-82480168D01*
X160556233Y-81338965D01*
X160643201Y-80242525D01*
X160742735Y-79227350D01*
X160852415Y-78329945D01*
X160899625Y-78005364D01*
X161085626Y-76907331D01*
X161321153Y-75695766D01*
X161595949Y-74415563D01*
X161899760Y-73111620D01*
X162222328Y-71828833D01*
X162553398Y-70612098D01*
X162717677Y-70046697D01*
X162931950Y-69331474D01*
X163169896Y-68545759D01*
X163426960Y-67703988D01*
X163698585Y-66820596D01*
X163980213Y-65910021D01*
X164267290Y-64986698D01*
X164555259Y-64065064D01*
X164839563Y-63159554D01*
X165115646Y-62284604D01*
X165378952Y-61454652D01*
X165624924Y-60684132D01*
X165849006Y-59987482D01*
X166046642Y-59379137D01*
X166213275Y-58873533D01*
X166344349Y-58485107D01*
X166435308Y-58228294D01*
X166481595Y-58117531D01*
X166483537Y-58115096D01*
X166542905Y-58090202D01*
X166535397Y-58209025D01*
X166529753Y-58235697D01*
X166502436Y-58362432D01*
X166443856Y-58636116D01*
X166357998Y-59038072D01*
X166248845Y-59549623D01*
X166120382Y-60152095D01*
X165976593Y-60826809D01*
X165821463Y-61555091D01*
X165753052Y-61876364D01*
X165550806Y-62823845D01*
X165376378Y-63633198D01*
X165223029Y-64332067D01*
X165084019Y-64948092D01*
X164952608Y-65508916D01*
X164822058Y-66042180D01*
X164685629Y-66575528D01*
X164536581Y-67136600D01*
X164368175Y-67753040D01*
X164173671Y-68452489D01*
X163990480Y-69105578D01*
X163506123Y-70881677D01*
X163087899Y-72534447D01*
X162729888Y-74093794D01*
X162426166Y-75589628D01*
X162170812Y-77051856D01*
X161957906Y-78510387D01*
X161781524Y-79995128D01*
X161725481Y-80545364D01*
X161673468Y-81175635D01*
X161626993Y-81929687D01*
X161586470Y-82781382D01*
X161552314Y-83704581D01*
X161524939Y-84673146D01*
X161504760Y-85660938D01*
X161492192Y-86641818D01*
X161487650Y-87589648D01*
X161491547Y-88478290D01*
X161504300Y-89281605D01*
X161526321Y-89973454D01*
X161558027Y-90527699D01*
X161565651Y-90620697D01*
X161773467Y-92599460D01*
X162042367Y-94494656D01*
X162369555Y-96296084D01*
X162752235Y-97993542D01*
X163187611Y-99576828D01*
X163672887Y-101035741D01*
X164205267Y-102360078D01*
X164781956Y-103539639D01*
X165377939Y-104531223D01*
X166252769Y-105725761D01*
X167186077Y-106791148D01*
X168165200Y-107714127D01*
X169104379Y-108432103D01*
X169790521Y-108880829D01*
X170390439Y-109225300D01*
X170940361Y-109478216D01*
X171476514Y-109652279D01*
X172035129Y-109760189D01*
X172652433Y-109814647D01*
X173083712Y-109827178D01*
X173725924Y-109816221D01*
X174253146Y-109754348D01*
X174694991Y-109624476D01*
X175081067Y-109409523D01*
X175440987Y-109092404D01*
X175804359Y-108656037D01*
X176200796Y-108083338D01*
X176257510Y-107996121D01*
X176695204Y-107250656D01*
X177139858Y-106364464D01*
X177580757Y-105365226D01*
X178007185Y-104280624D01*
X178408426Y-103138338D01*
X178773765Y-101966050D01*
X179092487Y-100791440D01*
X179171006Y-100469730D01*
X179399046Y-99457918D01*
X179582231Y-98514936D01*
X179725596Y-97599468D01*
X179834172Y-96670197D01*
X179912994Y-95685806D01*
X179967094Y-94604979D01*
X179994359Y-93711030D01*
X180010345Y-92917107D01*
X180015898Y-92255602D01*
X180010127Y-91689868D01*
X179992141Y-91183258D01*
X179961049Y-90699126D01*
X179915961Y-90200826D01*
X179906905Y-90112697D01*
X179795224Y-89164587D01*
X179786364Y-89101240D01*
X180858604Y-89101240D01*
X180861495Y-89221979D01*
X180885563Y-89640209D01*
X180940837Y-89914762D01*
X181048536Y-90071000D01*
X181229878Y-90134287D01*
X181506083Y-90129984D01*
X181612086Y-90119139D01*
X182176576Y-89994572D01*
X182823539Y-89737624D01*
X183557070Y-89346268D01*
X184381266Y-88818475D01*
X184725379Y-88577211D01*
X185148712Y-88273925D01*
X184627574Y-88781480D01*
X184323064Y-89046913D01*
X183930220Y-89345807D01*
X183510577Y-89632796D01*
X183277114Y-89777117D01*
X182903361Y-89992795D01*
X182624826Y-90136352D01*
X182392945Y-90225106D01*
X182159152Y-90276379D01*
X181874882Y-90307491D01*
X181766252Y-90315948D01*
X181084712Y-90366697D01*
X181058604Y-90681344D01*
X181055982Y-90894248D01*
X181118138Y-91001359D01*
X181270271Y-91061021D01*
X181442361Y-91085417D01*
X181743766Y-91105850D01*
X182134480Y-91120400D01*
X182574496Y-91127143D01*
X182651045Y-91127374D01*
X183794045Y-91128697D01*
X184598379Y-90733725D01*
X184982725Y-90541300D01*
X185355153Y-90348506D01*
X185660830Y-90184004D01*
X185783712Y-90114158D01*
X186164712Y-89889564D01*
X185785486Y-90241510D01*
X185489776Y-90469440D01*
X185082479Y-90721738D01*
X184613741Y-90972600D01*
X184133707Y-91196226D01*
X183692522Y-91366812D01*
X183472316Y-91431747D01*
X183198870Y-91470381D01*
X182814114Y-91488763D01*
X182372777Y-91488186D01*
X181929588Y-91469942D01*
X181539275Y-91435326D01*
X181256566Y-91385629D01*
X181232879Y-91378838D01*
X181042379Y-91320614D01*
X181042379Y-92438211D01*
X181046868Y-92847854D01*
X181059166Y-93185584D01*
X181077514Y-93421279D01*
X181100156Y-93524816D01*
X181105879Y-93526728D01*
X181202382Y-93478674D01*
X181417202Y-93369801D01*
X181717979Y-93216558D01*
X182052067Y-93045779D01*
X182420308Y-92867579D01*
X182902947Y-92649141D01*
X183455813Y-92409633D01*
X184034733Y-92168223D01*
X184549734Y-91961957D01*
X185199098Y-91705424D01*
X185714077Y-91493768D01*
X186119117Y-91313155D01*
X186438663Y-91149752D01*
X186697161Y-90989723D01*
X186919055Y-90819237D01*
X187128790Y-90624457D01*
X187350813Y-90391552D01*
X187379051Y-90360811D01*
X187607233Y-90082141D01*
X187849163Y-89737512D01*
X188087110Y-89358798D01*
X188303339Y-88977869D01*
X188480117Y-88626600D01*
X188599710Y-88336862D01*
X188644385Y-88140528D01*
X188638257Y-88097626D01*
X188539558Y-88037298D01*
X188302798Y-87962585D01*
X187958040Y-87879294D01*
X187535348Y-87793235D01*
X187064785Y-87710214D01*
X186576414Y-87636040D01*
X186100300Y-87576521D01*
X185783712Y-87546144D01*
X184875024Y-87527105D01*
X183885744Y-87602686D01*
X182870602Y-87765713D01*
X181884329Y-88009013D01*
X181614759Y-88092508D01*
X181301891Y-88203350D01*
X181053654Y-88308164D01*
X180913093Y-88388264D01*
X180899242Y-88403139D01*
X180874197Y-88528129D01*
X180859943Y-88776180D01*
X180858604Y-89101240D01*
X179786364Y-89101240D01*
X179652699Y-88145572D01*
X179489246Y-87118660D01*
X179314780Y-86146860D01*
X179172104Y-85442937D01*
X179090175Y-85109499D01*
X178961874Y-84644600D01*
X178796096Y-84076839D01*
X178601741Y-83434815D01*
X178387704Y-82747127D01*
X178162884Y-82042372D01*
X177936178Y-81349149D01*
X177716484Y-80696058D01*
X177518829Y-80128891D01*
X177342847Y-79649130D01*
X177110314Y-79036956D01*
X176830710Y-78315881D01*
X176513517Y-77509420D01*
X176168217Y-76641087D01*
X175804292Y-75734394D01*
X175431223Y-74812856D01*
X175058491Y-73899986D01*
X174695578Y-73019298D01*
X174351967Y-72194306D01*
X174037137Y-71448524D01*
X173760571Y-70805464D01*
X173743526Y-70766364D01*
X173418862Y-70018124D01*
X173055485Y-69173570D01*
X172676524Y-68286924D01*
X172305107Y-67412404D01*
X171964361Y-66604230D01*
X171775019Y-66151555D01*
X171253269Y-64854377D01*
X170746381Y-63507687D01*
X170262256Y-62136930D01*
X169808792Y-60767550D01*
X169393889Y-59424990D01*
X169025447Y-58134694D01*
X168711366Y-56922105D01*
X168459546Y-55812669D01*
X168296913Y-54949108D01*
X168137515Y-53966621D01*
X168009327Y-53129788D01*
X167912804Y-52442232D01*
X167848398Y-51907575D01*
X167816564Y-51529440D01*
X167817756Y-51311448D01*
X167834470Y-51259072D01*
X167871653Y-51227658D01*
X167904211Y-51230000D01*
G36*
X158846268Y-89623553D02*
X159022434Y-89761353D01*
X159206827Y-89919383D01*
X159485425Y-90151662D01*
X159740480Y-90345090D01*
X159928240Y-90467062D01*
X159966563Y-90485516D01*
X160096971Y-90544694D01*
X160074945Y-90567157D01*
X160002712Y-90570422D01*
X159788472Y-90531741D01*
X159664045Y-90479790D01*
X159395618Y-90287805D01*
X159102649Y-90011379D01*
X158848511Y-89710794D01*
X158833072Y-89689364D01*
X158784446Y-89600355D01*
X158846268Y-89623553D01*
X158846268Y-89623553D01*
G37*
X158846268Y-89623553D02*
X159022434Y-89761353D01*
X159206827Y-89919383D01*
X159485425Y-90151662D01*
X159740480Y-90345090D01*
X159928240Y-90467062D01*
X159966563Y-90485516D01*
X160096971Y-90544694D01*
X160074945Y-90567157D01*
X160002712Y-90570422D01*
X159788472Y-90531741D01*
X159664045Y-90479790D01*
X159395618Y-90287805D01*
X159102649Y-90011379D01*
X158848511Y-89710794D01*
X158833072Y-89689364D01*
X158784446Y-89600355D01*
X158846268Y-89623553D01*
G36*
X183328379Y-88229593D02*
X183264926Y-88361329D01*
X183096786Y-88560516D01*
X182857288Y-88796494D01*
X182579761Y-89038605D01*
X182297532Y-89256190D01*
X182043930Y-89418588D01*
X182024602Y-89428949D01*
X181721675Y-89572062D01*
X181501300Y-89643617D01*
X181389617Y-89636117D01*
X181381045Y-89613523D01*
X181446504Y-89554302D01*
X181617063Y-89433337D01*
X181825545Y-89296352D01*
X182118355Y-89094819D01*
X182464208Y-88835577D01*
X182789786Y-88573644D01*
X182799212Y-88565697D01*
X183040003Y-88374521D01*
X183223458Y-88252140D01*
X183320331Y-88217129D01*
X183328379Y-88229593D01*
X183328379Y-88229593D01*
G37*
X183328379Y-88229593D02*
X183264926Y-88361329D01*
X183096786Y-88560516D01*
X182857288Y-88796494D01*
X182579761Y-89038605D01*
X182297532Y-89256190D01*
X182043930Y-89418588D01*
X182024602Y-89428949D01*
X181721675Y-89572062D01*
X181501300Y-89643617D01*
X181389617Y-89636117D01*
X181381045Y-89613523D01*
X181446504Y-89554302D01*
X181617063Y-89433337D01*
X181825545Y-89296352D01*
X182118355Y-89094819D01*
X182464208Y-88835577D01*
X182789786Y-88573644D01*
X182799212Y-88565697D01*
X183040003Y-88374521D01*
X183223458Y-88252140D01*
X183320331Y-88217129D01*
X183328379Y-88229593D01*
G36*
X170033930Y-38676060D02*
X170348103Y-38913668D01*
X170619751Y-39291905D01*
X170672828Y-39394108D01*
X170753488Y-39570985D01*
X170815717Y-39746728D01*
X170857530Y-39936053D01*
X170876943Y-40153674D01*
X170871973Y-40414306D01*
X170840635Y-40732667D01*
X170780947Y-41123470D01*
X170690924Y-41601431D01*
X170568583Y-42181267D01*
X170411939Y-42877691D01*
X170219009Y-43705421D01*
X169987810Y-44679170D01*
X169924782Y-44943030D01*
X169718039Y-45811360D01*
X169548019Y-46535223D01*
X169410761Y-47134521D01*
X169302301Y-47629161D01*
X169218674Y-48039046D01*
X169155919Y-48384080D01*
X169110071Y-48684169D01*
X169077167Y-48959215D01*
X169053243Y-49229125D01*
X169043321Y-49369727D01*
X169012800Y-49708264D01*
X168973088Y-49978412D01*
X168930965Y-50138515D01*
X168914202Y-50162912D01*
X168788093Y-50165164D01*
X168680482Y-50019190D01*
X168593837Y-49745336D01*
X168530626Y-49363949D01*
X168493318Y-48895376D01*
X168484381Y-48359964D01*
X168506282Y-47778059D01*
X168556426Y-47213563D01*
X168616312Y-46733981D01*
X168684468Y-46258654D01*
X168752561Y-45842083D01*
X168812258Y-45538768D01*
X168812968Y-45535697D01*
X169021872Y-44610722D01*
X169211552Y-43722236D01*
X169378821Y-42888248D01*
X169520493Y-42126767D01*
X169633381Y-41455801D01*
X169714298Y-40893361D01*
X169760058Y-40457455D01*
X169767475Y-40166092D01*
X169766226Y-40148467D01*
X169708402Y-39901849D01*
X169570289Y-39788392D01*
X169326322Y-39792187D01*
X169228491Y-39813856D01*
X169025802Y-39937092D01*
X168781295Y-40206841D01*
X168503421Y-40607917D01*
X168200631Y-41125136D01*
X167881375Y-41743310D01*
X167554106Y-42447254D01*
X167227275Y-43221781D01*
X166986587Y-43842364D01*
X166809230Y-44312451D01*
X166669943Y-44658700D01*
X166548377Y-44916211D01*
X166424179Y-45120082D01*
X166277000Y-45305411D01*
X166086487Y-45507298D01*
X165931118Y-45662697D01*
X165495847Y-46053263D01*
X164913051Y-46508245D01*
X164189727Y-47022802D01*
X163332872Y-47592094D01*
X162349484Y-48211281D01*
X161526712Y-48709321D01*
X160934295Y-49064581D01*
X160472402Y-49349145D01*
X160124895Y-49576954D01*
X159875635Y-49761952D01*
X159708484Y-49918082D01*
X159607303Y-50059285D01*
X159555954Y-50199503D01*
X159538298Y-50352681D01*
X159537045Y-50428242D01*
X159582296Y-50791599D01*
X159724971Y-51157778D01*
X159975452Y-51539174D01*
X160344120Y-51948186D01*
X160841359Y-52397209D01*
X161477550Y-52898640D01*
X161812252Y-53144914D01*
X162596108Y-53729326D01*
X163240316Y-54251003D01*
X163756591Y-54723119D01*
X164156653Y-55158848D01*
X164452217Y-55571364D01*
X164655001Y-55973841D01*
X164776723Y-56379453D01*
X164799080Y-56503051D01*
X164847434Y-56917659D01*
X164837290Y-57218173D01*
X164763385Y-57451245D01*
X164676314Y-57591899D01*
X164605252Y-57671321D01*
X164561682Y-57646139D01*
X164529269Y-57491364D01*
X164509690Y-57336979D01*
X164450454Y-57020247D01*
X164350525Y-56648253D01*
X164272316Y-56414444D01*
X164065477Y-56017192D01*
X163738649Y-55579778D01*
X163324648Y-55135005D01*
X162856293Y-54715676D01*
X162366399Y-54354594D01*
X161992379Y-54135476D01*
X161134077Y-53659718D01*
X160373880Y-53162066D01*
X159725650Y-52654354D01*
X159203247Y-52148414D01*
X158820531Y-51656078D01*
X158612890Y-51250449D01*
X158487112Y-50778566D01*
X158440907Y-50285268D01*
X158476591Y-49832720D01*
X158550548Y-49575811D01*
X158643239Y-49388772D01*
X158770157Y-49201116D01*
X158942844Y-49004422D01*
X159172847Y-48790268D01*
X159471710Y-48550234D01*
X159850977Y-48275898D01*
X160322194Y-47958839D01*
X160896904Y-47590636D01*
X161586652Y-47162867D01*
X162402983Y-46667112D01*
X163164257Y-46210332D01*
X163814895Y-45817115D01*
X164335232Y-45490862D01*
X164743502Y-45217233D01*
X165057941Y-44981889D01*
X165296783Y-44770488D01*
X165478265Y-44568692D01*
X165620622Y-44362159D01*
X165703408Y-44213578D01*
X165763240Y-44076511D01*
X165869777Y-43811231D01*
X166011052Y-43448370D01*
X166175096Y-43018557D01*
X166298815Y-42689578D01*
X166473838Y-42223750D01*
X166636178Y-41796185D01*
X166773278Y-41439614D01*
X166872582Y-41186773D01*
X166912154Y-41090697D01*
X167130707Y-40667772D01*
X167424709Y-40203092D01*
X167745324Y-39769911D01*
X167948796Y-39535784D01*
X168209335Y-39309085D01*
X168549408Y-39077671D01*
X168922473Y-38866669D01*
X169281984Y-38701203D01*
X169581398Y-38606399D01*
X169694657Y-38593347D01*
X170033930Y-38676060D01*
X170033930Y-38676060D01*
G37*
X170033930Y-38676060D02*
X170348103Y-38913668D01*
X170619751Y-39291905D01*
X170672828Y-39394108D01*
X170753488Y-39570985D01*
X170815717Y-39746728D01*
X170857530Y-39936053D01*
X170876943Y-40153674D01*
X170871973Y-40414306D01*
X170840635Y-40732667D01*
X170780947Y-41123470D01*
X170690924Y-41601431D01*
X170568583Y-42181267D01*
X170411939Y-42877691D01*
X170219009Y-43705421D01*
X169987810Y-44679170D01*
X169924782Y-44943030D01*
X169718039Y-45811360D01*
X169548019Y-46535223D01*
X169410761Y-47134521D01*
X169302301Y-47629161D01*
X169218674Y-48039046D01*
X169155919Y-48384080D01*
X169110071Y-48684169D01*
X169077167Y-48959215D01*
X169053243Y-49229125D01*
X169043321Y-49369727D01*
X169012800Y-49708264D01*
X168973088Y-49978412D01*
X168930965Y-50138515D01*
X168914202Y-50162912D01*
X168788093Y-50165164D01*
X168680482Y-50019190D01*
X168593837Y-49745336D01*
X168530626Y-49363949D01*
X168493318Y-48895376D01*
X168484381Y-48359964D01*
X168506282Y-47778059D01*
X168556426Y-47213563D01*
X168616312Y-46733981D01*
X168684468Y-46258654D01*
X168752561Y-45842083D01*
X168812258Y-45538768D01*
X168812968Y-45535697D01*
X169021872Y-44610722D01*
X169211552Y-43722236D01*
X169378821Y-42888248D01*
X169520493Y-42126767D01*
X169633381Y-41455801D01*
X169714298Y-40893361D01*
X169760058Y-40457455D01*
X169767475Y-40166092D01*
X169766226Y-40148467D01*
X169708402Y-39901849D01*
X169570289Y-39788392D01*
X169326322Y-39792187D01*
X169228491Y-39813856D01*
X169025802Y-39937092D01*
X168781295Y-40206841D01*
X168503421Y-40607917D01*
X168200631Y-41125136D01*
X167881375Y-41743310D01*
X167554106Y-42447254D01*
X167227275Y-43221781D01*
X166986587Y-43842364D01*
X166809230Y-44312451D01*
X166669943Y-44658700D01*
X166548377Y-44916211D01*
X166424179Y-45120082D01*
X166277000Y-45305411D01*
X166086487Y-45507298D01*
X165931118Y-45662697D01*
X165495847Y-46053263D01*
X164913051Y-46508245D01*
X164189727Y-47022802D01*
X163332872Y-47592094D01*
X162349484Y-48211281D01*
X161526712Y-48709321D01*
X160934295Y-49064581D01*
X160472402Y-49349145D01*
X160124895Y-49576954D01*
X159875635Y-49761952D01*
X159708484Y-49918082D01*
X159607303Y-50059285D01*
X159555954Y-50199503D01*
X159538298Y-50352681D01*
X159537045Y-50428242D01*
X159582296Y-50791599D01*
X159724971Y-51157778D01*
X159975452Y-51539174D01*
X160344120Y-51948186D01*
X160841359Y-52397209D01*
X161477550Y-52898640D01*
X161812252Y-53144914D01*
X162596108Y-53729326D01*
X163240316Y-54251003D01*
X163756591Y-54723119D01*
X164156653Y-55158848D01*
X164452217Y-55571364D01*
X164655001Y-55973841D01*
X164776723Y-56379453D01*
X164799080Y-56503051D01*
X164847434Y-56917659D01*
X164837290Y-57218173D01*
X164763385Y-57451245D01*
X164676314Y-57591899D01*
X164605252Y-57671321D01*
X164561682Y-57646139D01*
X164529269Y-57491364D01*
X164509690Y-57336979D01*
X164450454Y-57020247D01*
X164350525Y-56648253D01*
X164272316Y-56414444D01*
X164065477Y-56017192D01*
X163738649Y-55579778D01*
X163324648Y-55135005D01*
X162856293Y-54715676D01*
X162366399Y-54354594D01*
X161992379Y-54135476D01*
X161134077Y-53659718D01*
X160373880Y-53162066D01*
X159725650Y-52654354D01*
X159203247Y-52148414D01*
X158820531Y-51656078D01*
X158612890Y-51250449D01*
X158487112Y-50778566D01*
X158440907Y-50285268D01*
X158476591Y-49832720D01*
X158550548Y-49575811D01*
X158643239Y-49388772D01*
X158770157Y-49201116D01*
X158942844Y-49004422D01*
X159172847Y-48790268D01*
X159471710Y-48550234D01*
X159850977Y-48275898D01*
X160322194Y-47958839D01*
X160896904Y-47590636D01*
X161586652Y-47162867D01*
X162402983Y-46667112D01*
X163164257Y-46210332D01*
X163814895Y-45817115D01*
X164335232Y-45490862D01*
X164743502Y-45217233D01*
X165057941Y-44981889D01*
X165296783Y-44770488D01*
X165478265Y-44568692D01*
X165620622Y-44362159D01*
X165703408Y-44213578D01*
X165763240Y-44076511D01*
X165869777Y-43811231D01*
X166011052Y-43448370D01*
X166175096Y-43018557D01*
X166298815Y-42689578D01*
X166473838Y-42223750D01*
X166636178Y-41796185D01*
X166773278Y-41439614D01*
X166872582Y-41186773D01*
X166912154Y-41090697D01*
X167130707Y-40667772D01*
X167424709Y-40203092D01*
X167745324Y-39769911D01*
X167948796Y-39535784D01*
X168209335Y-39309085D01*
X168549408Y-39077671D01*
X168922473Y-38866669D01*
X169281984Y-38701203D01*
X169581398Y-38606399D01*
X169694657Y-38593347D01*
X170033930Y-38676060D01*
G36*
X144007789Y-101322400D02*
X143973970Y-101265808D01*
X143933001Y-101134468D01*
X143878996Y-100907882D01*
X143806065Y-100565556D01*
X143708322Y-100086991D01*
X143654332Y-99820036D01*
X143516083Y-99192095D01*
X143331301Y-98437170D01*
X143109393Y-97588108D01*
X142859763Y-96677753D01*
X142591816Y-95738949D01*
X142314959Y-94804541D01*
X142038596Y-93907374D01*
X141772134Y-93080293D01*
X141524977Y-92356141D01*
X141484383Y-92242370D01*
X141260518Y-91629141D01*
X141016121Y-90975908D01*
X140761650Y-90309197D01*
X140507562Y-89655535D01*
X140264315Y-89041451D01*
X140042364Y-88493472D01*
X139852168Y-88038124D01*
X139704183Y-87701937D01*
X139648730Y-87585703D01*
X139568473Y-87415385D01*
X139432225Y-87115178D01*
X139251334Y-86710565D01*
X139037145Y-86227025D01*
X138801006Y-85690040D01*
X138611883Y-85257370D01*
X138040118Y-83951028D01*
X137495018Y-82715977D01*
X136986054Y-81573480D01*
X136522699Y-80544802D01*
X136114428Y-79651207D01*
X136111457Y-79644763D01*
X135951104Y-79283659D01*
X135740792Y-78789775D01*
X135490722Y-78188618D01*
X135211095Y-77505694D01*
X134912111Y-76766510D01*
X134603970Y-75996572D01*
X134296874Y-75221387D01*
X134001021Y-74466462D01*
X133726614Y-73757303D01*
X133483852Y-73119418D01*
X133282935Y-72578312D01*
X133257411Y-72508100D01*
X132711055Y-70907012D01*
X132221071Y-69283166D01*
X131803910Y-67693872D01*
X131546035Y-66546036D01*
X131437868Y-66027105D01*
X131339971Y-65566957D01*
X131257805Y-65190494D01*
X131196831Y-64922613D01*
X131162509Y-64788216D01*
X131158197Y-64777615D01*
X131078724Y-64804421D01*
X130895499Y-64905197D01*
X130645298Y-65059430D01*
X130596978Y-65090641D01*
X129697371Y-65598193D01*
X128810933Y-65941193D01*
X128629333Y-65991713D01*
X128239092Y-66060612D01*
X127732095Y-66103692D01*
X127158959Y-66120822D01*
X126570302Y-66111870D01*
X126016740Y-66076705D01*
X125548892Y-66015197D01*
X125470854Y-65999889D01*
X124726314Y-65803327D01*
X124079847Y-65551920D01*
X123545059Y-65255148D01*
X123135560Y-64922491D01*
X122864958Y-64563430D01*
X122746861Y-64187445D01*
X122742702Y-64099349D01*
X122772650Y-63858050D01*
X122850932Y-63512769D01*
X122962036Y-63116356D01*
X123090448Y-62721665D01*
X123220656Y-62381546D01*
X123292013Y-62227924D01*
X123440465Y-62027757D01*
X123703599Y-61758455D01*
X124053506Y-61442216D01*
X124462280Y-61101239D01*
X124902011Y-60757723D01*
X125344793Y-60433867D01*
X125762717Y-60151869D01*
X126127875Y-59933928D01*
X126262668Y-59864984D01*
X126532626Y-59755669D01*
X126932587Y-59618601D01*
X127427502Y-59463876D01*
X127982325Y-59301588D01*
X128562006Y-59141832D01*
X129131499Y-58994700D01*
X129655757Y-58870290D01*
X129895955Y-58818524D01*
X130827288Y-58626629D01*
X130887669Y-57908500D01*
X130999929Y-56800334D01*
X131151826Y-55644883D01*
X131336178Y-54482851D01*
X131545803Y-53354948D01*
X131773519Y-52301880D01*
X132012143Y-51364354D01*
X132089940Y-51094370D01*
X132281930Y-50489511D01*
X132520602Y-49799754D01*
X132793338Y-49056675D01*
X133087521Y-48291850D01*
X133390531Y-47536854D01*
X133689751Y-46823266D01*
X133972562Y-46182659D01*
X134226346Y-45646611D01*
X134399104Y-45315870D01*
X134538206Y-45058293D01*
X134631230Y-44870025D01*
X134660204Y-44787719D01*
X134658558Y-44786703D01*
X134566080Y-44810995D01*
X134357936Y-44874674D01*
X134079771Y-44963765D01*
X133501192Y-45186804D01*
X133036603Y-45449958D01*
X132670057Y-45746712D01*
X132468087Y-45914541D01*
X132362105Y-45961455D01*
X132350680Y-45905045D01*
X132432381Y-45762900D01*
X132605780Y-45552611D01*
X132693314Y-45460627D01*
X132973689Y-45217520D01*
X133334315Y-44963629D01*
X133735057Y-44721089D01*
X134135778Y-44512037D01*
X134496344Y-44358609D01*
X134776618Y-44282942D01*
X134836265Y-44278703D01*
X134996318Y-44254294D01*
X135146980Y-44161566D01*
X135326798Y-43971269D01*
X135457816Y-43807022D01*
X135919175Y-43306293D01*
X136490400Y-42835292D01*
X137112821Y-42440167D01*
X137346621Y-42321367D01*
X137777400Y-42167418D01*
X138279784Y-42062413D01*
X138782663Y-42016600D01*
X139214924Y-42040229D01*
X139251621Y-42046824D01*
X140453898Y-42348832D01*
X141638054Y-42775364D01*
X142203598Y-43029860D01*
X143250574Y-43536858D01*
X143600598Y-43338577D01*
X143988802Y-43199205D01*
X144487985Y-43143120D01*
X145063171Y-43167757D01*
X145679382Y-43270551D01*
X146301644Y-43448936D01*
X146584479Y-43557420D01*
X146794447Y-43659091D01*
X146850731Y-43719391D01*
X146764547Y-43735447D01*
X146547109Y-43704385D01*
X146267154Y-43638710D01*
X145924008Y-43566063D01*
X145568337Y-43533339D01*
X145138230Y-43536575D01*
X144881955Y-43550061D01*
X144330517Y-43590911D01*
X143937073Y-43635565D01*
X143690293Y-43685914D01*
X143578849Y-43743846D01*
X143569621Y-43768932D01*
X143633030Y-43844936D01*
X143801985Y-43992569D01*
X144044578Y-44184562D01*
X144141121Y-44257301D01*
X145050338Y-45027546D01*
X145921656Y-45952372D01*
X146748808Y-47020006D01*
X147525526Y-48218678D01*
X148245543Y-49536615D01*
X148902590Y-50962046D01*
X149490400Y-52483198D01*
X150002704Y-54088299D01*
X150433236Y-55765578D01*
X150547072Y-56288546D01*
X150645451Y-56761440D01*
X150730552Y-57173360D01*
X150796819Y-57497170D01*
X150838692Y-57705731D01*
X150850955Y-57772229D01*
X150929470Y-57788697D01*
X151140894Y-57810805D01*
X151449046Y-57835144D01*
X151678363Y-57850198D01*
X152648347Y-57947913D01*
X153496378Y-58119229D01*
X154256508Y-58371902D01*
X154565413Y-58507778D01*
X155438451Y-59002170D01*
X156247272Y-59619040D01*
X156965042Y-60332185D01*
X157564925Y-61115398D01*
X157969156Y-61831521D01*
X158166141Y-62390132D01*
X158219397Y-62916114D01*
X158194994Y-63042018D01*
X157793621Y-63042018D01*
X157739441Y-62880155D01*
X157590671Y-62622650D01*
X157367968Y-62297929D01*
X157091987Y-61934415D01*
X156783385Y-61560532D01*
X156462817Y-61204704D01*
X156444187Y-61185109D01*
X155750109Y-60545958D01*
X154935336Y-59946752D01*
X154048436Y-59422585D01*
X153898955Y-59345955D01*
X153671775Y-59243155D01*
X153348993Y-59111705D01*
X152960977Y-58962390D01*
X152538096Y-58805994D01*
X152110716Y-58653303D01*
X151709206Y-58515100D01*
X151363933Y-58402170D01*
X151105266Y-58325298D01*
X150963572Y-58295269D01*
X150947327Y-58297739D01*
X150945089Y-58387476D01*
X150965426Y-58604371D01*
X151004235Y-58908366D01*
X151023655Y-59042979D01*
X151078900Y-59381464D01*
X151133178Y-59658764D01*
X151177282Y-59829529D01*
X151188647Y-59855793D01*
X151280400Y-59902183D01*
X151486423Y-59902231D01*
X151802530Y-59860899D01*
X152339332Y-59821512D01*
X152932487Y-59853039D01*
X153511903Y-59947453D01*
X154007484Y-60096724D01*
X154062012Y-60119703D01*
X154329577Y-60252893D01*
X154668247Y-60443622D01*
X155039423Y-60667497D01*
X155404505Y-60900131D01*
X155724894Y-61117132D01*
X155961991Y-61294112D01*
X156056926Y-61380233D01*
X156173475Y-61533869D01*
X156162149Y-61590689D01*
X156032257Y-61553151D01*
X155793107Y-61423711D01*
X155493340Y-61231473D01*
X154856420Y-60820861D01*
X154309522Y-60515712D01*
X153819726Y-60305049D01*
X153354106Y-60177897D01*
X152879742Y-60123278D01*
X152363709Y-60130216D01*
X152221188Y-60140540D01*
X151783488Y-60181654D01*
X151488276Y-60226108D01*
X151308811Y-60283098D01*
X151218350Y-60361823D01*
X151190149Y-60471479D01*
X151189621Y-60495320D01*
X151209765Y-60739891D01*
X151293638Y-60880090D01*
X151476403Y-60943578D01*
X151777803Y-60958036D01*
X152261006Y-60995496D01*
X152789826Y-61099045D01*
X153330714Y-61255437D01*
X153850118Y-61451428D01*
X154314487Y-61673772D01*
X154690269Y-61909224D01*
X154943914Y-62144537D01*
X155000921Y-62230464D01*
X154986997Y-62275960D01*
X154841959Y-62221078D01*
X154564140Y-62065094D01*
X154421968Y-61978267D01*
X153595314Y-61549278D01*
X152765479Y-61284197D01*
X151979961Y-61186478D01*
X151676348Y-61183874D01*
X151445024Y-61192728D01*
X151332415Y-61211137D01*
X151329764Y-61213123D01*
X151321668Y-61305468D01*
X151324360Y-61529252D01*
X151335718Y-61847072D01*
X151353617Y-62221524D01*
X151375935Y-62615208D01*
X151400548Y-62990721D01*
X151425333Y-63310659D01*
X151448168Y-63537622D01*
X151466929Y-63634206D01*
X151467216Y-63634520D01*
X151555482Y-63656865D01*
X151776269Y-63698877D01*
X152094769Y-63754230D01*
X152420087Y-63807650D01*
X153196001Y-63899105D01*
X154104700Y-63948079D01*
X154703288Y-63956216D01*
X155227536Y-63954036D01*
X155621860Y-63944708D01*
X155925649Y-63923743D01*
X156178291Y-63886653D01*
X156419174Y-63828949D01*
X156687688Y-63746141D01*
X156761839Y-63721627D01*
X157261411Y-63529601D01*
X157595272Y-63340596D01*
X157766958Y-63152282D01*
X157793621Y-63042018D01*
X158194994Y-63042018D01*
X158128004Y-63387638D01*
X158042330Y-63571175D01*
X157802050Y-63876213D01*
X157438542Y-64192731D01*
X156993579Y-64494149D01*
X156508934Y-64753887D01*
X156026379Y-64945363D01*
X155778621Y-65011605D01*
X155117789Y-65089383D01*
X154377652Y-65072359D01*
X153613696Y-64968223D01*
X152881406Y-64784669D01*
X152236270Y-64529387D01*
X152211839Y-64517175D01*
X151916375Y-64376756D01*
X151734085Y-64316072D01*
X151633432Y-64326924D01*
X151602501Y-64358719D01*
X151583433Y-64470629D01*
X151566180Y-64728521D01*
X151551455Y-65109048D01*
X151539971Y-65588863D01*
X151532442Y-66144618D01*
X151529585Y-66745084D01*
X151517078Y-67801553D01*
X151482327Y-68922770D01*
X151427750Y-70072232D01*
X151355767Y-71213435D01*
X151268799Y-72309875D01*
X151169265Y-73325050D01*
X151059585Y-74222455D01*
X151012375Y-74547036D01*
X150826374Y-75645069D01*
X150590847Y-76856634D01*
X150316051Y-78136837D01*
X150012240Y-79440780D01*
X149689672Y-80723567D01*
X149358602Y-81940302D01*
X149194323Y-82505703D01*
X148980050Y-83220926D01*
X148742104Y-84006641D01*
X148485040Y-84848412D01*
X148213415Y-85731804D01*
X147931787Y-86642379D01*
X147644710Y-87565702D01*
X147356741Y-88487336D01*
X147072437Y-89392846D01*
X146796354Y-90267796D01*
X146533048Y-91097748D01*
X146287076Y-91868268D01*
X146062994Y-92564918D01*
X145865358Y-93173263D01*
X145698725Y-93678867D01*
X145567651Y-94067293D01*
X145476692Y-94324106D01*
X145430405Y-94434869D01*
X145428463Y-94437304D01*
X145369095Y-94462198D01*
X145376603Y-94343375D01*
X145382247Y-94316703D01*
X145409564Y-94189968D01*
X145468144Y-93916284D01*
X145554002Y-93514328D01*
X145663155Y-93002777D01*
X145791618Y-92400305D01*
X145935407Y-91725591D01*
X146090537Y-90997309D01*
X146158948Y-90676036D01*
X146361194Y-89728555D01*
X146535622Y-88919202D01*
X146688971Y-88220333D01*
X146827981Y-87604308D01*
X146959392Y-87043484D01*
X147089942Y-86510220D01*
X147226371Y-85976872D01*
X147375419Y-85415800D01*
X147543825Y-84799360D01*
X147738329Y-84099911D01*
X147921520Y-83446822D01*
X148405877Y-81670723D01*
X148824101Y-80017953D01*
X149182112Y-78458606D01*
X149485834Y-76962772D01*
X149741188Y-75500544D01*
X149954094Y-74042013D01*
X150130476Y-72557272D01*
X150186519Y-72007036D01*
X150238532Y-71376765D01*
X150285007Y-70622713D01*
X150325530Y-69771018D01*
X150359686Y-68847819D01*
X150387061Y-67879254D01*
X150407240Y-66891462D01*
X150419808Y-65910582D01*
X150424350Y-64962752D01*
X150420453Y-64074110D01*
X150407700Y-63270795D01*
X150385679Y-62578946D01*
X150353973Y-62024701D01*
X150346349Y-61931703D01*
X150138533Y-59952940D01*
X149869633Y-58057744D01*
X149542445Y-56256316D01*
X149159765Y-54558858D01*
X148724389Y-52975572D01*
X148239113Y-51516659D01*
X147706733Y-50192322D01*
X147130044Y-49012761D01*
X146534061Y-48021177D01*
X145659231Y-46826639D01*
X144725923Y-45761252D01*
X143746800Y-44838273D01*
X142807621Y-44120297D01*
X142121479Y-43671571D01*
X141521561Y-43327100D01*
X140971639Y-43074184D01*
X140435486Y-42900121D01*
X139876871Y-42792211D01*
X139259567Y-42737753D01*
X138828288Y-42725222D01*
X138186076Y-42736179D01*
X137658854Y-42798052D01*
X137217009Y-42927924D01*
X136830933Y-43142877D01*
X136471013Y-43459996D01*
X136107641Y-43896363D01*
X135711204Y-44469062D01*
X135654490Y-44556279D01*
X135216796Y-45301744D01*
X134772142Y-46187936D01*
X134331243Y-47187174D01*
X133904815Y-48271776D01*
X133503574Y-49414062D01*
X133138235Y-50586350D01*
X132819513Y-51760960D01*
X132740994Y-52082670D01*
X132512954Y-53094482D01*
X132329769Y-54037464D01*
X132186404Y-54952932D01*
X132077828Y-55882203D01*
X131999006Y-56866594D01*
X131944906Y-57947421D01*
X131917641Y-58841370D01*
X131901655Y-59635293D01*
X131896102Y-60296798D01*
X131901873Y-60862532D01*
X131919859Y-61369142D01*
X131950951Y-61853274D01*
X131996039Y-62351574D01*
X132005095Y-62439703D01*
X132116776Y-63387813D01*
X132125636Y-63451160D01*
X131053396Y-63451160D01*
X131050505Y-63330421D01*
X131026437Y-62912191D01*
X130971163Y-62637638D01*
X130863464Y-62481400D01*
X130682122Y-62418113D01*
X130405917Y-62422416D01*
X130299914Y-62433261D01*
X129735424Y-62557828D01*
X129088461Y-62814776D01*
X128354930Y-63206132D01*
X127530734Y-63733925D01*
X127186621Y-63975189D01*
X126763288Y-64278475D01*
X127284426Y-63770920D01*
X127588936Y-63505487D01*
X127981780Y-63206593D01*
X128401423Y-62919604D01*
X128634886Y-62775283D01*
X129008639Y-62559605D01*
X129287174Y-62416048D01*
X129519055Y-62327294D01*
X129752848Y-62276021D01*
X130037118Y-62244909D01*
X130145748Y-62236452D01*
X130827288Y-62185703D01*
X130853396Y-61871056D01*
X130856018Y-61658152D01*
X130793862Y-61551041D01*
X130641729Y-61491379D01*
X130469639Y-61466983D01*
X130168234Y-61446550D01*
X129777520Y-61432000D01*
X129337504Y-61425257D01*
X129260955Y-61425026D01*
X128117955Y-61423703D01*
X127313621Y-61818675D01*
X126929275Y-62011100D01*
X126556847Y-62203894D01*
X126251170Y-62368396D01*
X126128288Y-62438242D01*
X125747288Y-62662836D01*
X126126514Y-62310890D01*
X126422224Y-62082960D01*
X126829521Y-61830662D01*
X127298259Y-61579800D01*
X127778293Y-61356174D01*
X128219478Y-61185588D01*
X128439684Y-61120653D01*
X128713130Y-61082019D01*
X129097886Y-61063637D01*
X129539223Y-61064214D01*
X129982412Y-61082458D01*
X130372725Y-61117074D01*
X130655434Y-61166771D01*
X130679121Y-61173562D01*
X130869621Y-61231786D01*
X130869621Y-60114189D01*
X130865132Y-59704546D01*
X130852834Y-59366816D01*
X130834486Y-59131121D01*
X130811844Y-59027584D01*
X130806121Y-59025672D01*
X130709618Y-59073726D01*
X130494798Y-59182599D01*
X130194021Y-59335842D01*
X129859933Y-59506621D01*
X129491692Y-59684821D01*
X129009053Y-59903259D01*
X128456187Y-60142767D01*
X127877267Y-60384177D01*
X127362266Y-60590443D01*
X126712902Y-60846976D01*
X126197923Y-61058632D01*
X125792883Y-61239245D01*
X125473337Y-61402648D01*
X125214839Y-61562677D01*
X124992945Y-61733163D01*
X124783210Y-61927943D01*
X124561187Y-62160848D01*
X124532949Y-62191589D01*
X124304767Y-62470259D01*
X124062837Y-62814888D01*
X123824890Y-63193602D01*
X123608661Y-63574531D01*
X123431883Y-63925800D01*
X123312290Y-64215538D01*
X123267615Y-64411872D01*
X123273743Y-64454774D01*
X123372442Y-64515102D01*
X123609202Y-64589815D01*
X123953960Y-64673106D01*
X124376652Y-64759165D01*
X124847215Y-64842186D01*
X125335586Y-64916360D01*
X125811700Y-64975879D01*
X126128288Y-65006256D01*
X127036976Y-65025295D01*
X128026256Y-64949714D01*
X129041398Y-64786687D01*
X130027671Y-64543387D01*
X130297241Y-64459892D01*
X130610109Y-64349050D01*
X130858346Y-64244236D01*
X130998907Y-64164136D01*
X131012758Y-64149261D01*
X131037803Y-64024271D01*
X131052057Y-63776220D01*
X131053396Y-63451160D01*
X132125636Y-63451160D01*
X132259301Y-64406828D01*
X132422754Y-65433740D01*
X132597220Y-66405540D01*
X132739896Y-67109463D01*
X132821825Y-67442901D01*
X132950126Y-67907800D01*
X133115904Y-68475561D01*
X133310259Y-69117585D01*
X133524296Y-69805273D01*
X133749116Y-70510028D01*
X133975822Y-71203251D01*
X134195516Y-71856342D01*
X134393171Y-72423509D01*
X134569153Y-72903270D01*
X134801686Y-73515444D01*
X135081290Y-74236519D01*
X135398483Y-75042980D01*
X135743783Y-75911313D01*
X136107708Y-76818006D01*
X136480777Y-77739544D01*
X136853509Y-78652414D01*
X137216422Y-79533102D01*
X137560033Y-80358094D01*
X137874863Y-81103876D01*
X138151429Y-81746936D01*
X138168474Y-81786036D01*
X138493138Y-82534276D01*
X138856515Y-83378830D01*
X139235476Y-84265476D01*
X139606893Y-85139996D01*
X139947639Y-85948170D01*
X140136981Y-86400845D01*
X140658731Y-87698023D01*
X141165619Y-89044713D01*
X141649744Y-90415470D01*
X142103208Y-91784850D01*
X142518111Y-93127410D01*
X142886553Y-94417706D01*
X143200634Y-95630295D01*
X143452454Y-96739731D01*
X143615087Y-97603292D01*
X143774485Y-98585779D01*
X143902673Y-99422612D01*
X143999196Y-100110168D01*
X144063602Y-100644825D01*
X144095436Y-101022960D01*
X144094244Y-101240952D01*
X144077530Y-101293328D01*
X144040347Y-101324742D01*
X144007789Y-101322400D01*
X144007789Y-101322400D01*
G37*
X144007789Y-101322400D02*
X143973970Y-101265808D01*
X143933001Y-101134468D01*
X143878996Y-100907882D01*
X143806065Y-100565556D01*
X143708322Y-100086991D01*
X143654332Y-99820036D01*
X143516083Y-99192095D01*
X143331301Y-98437170D01*
X143109393Y-97588108D01*
X142859763Y-96677753D01*
X142591816Y-95738949D01*
X142314959Y-94804541D01*
X142038596Y-93907374D01*
X141772134Y-93080293D01*
X141524977Y-92356141D01*
X141484383Y-92242370D01*
X141260518Y-91629141D01*
X141016121Y-90975908D01*
X140761650Y-90309197D01*
X140507562Y-89655535D01*
X140264315Y-89041451D01*
X140042364Y-88493472D01*
X139852168Y-88038124D01*
X139704183Y-87701937D01*
X139648730Y-87585703D01*
X139568473Y-87415385D01*
X139432225Y-87115178D01*
X139251334Y-86710565D01*
X139037145Y-86227025D01*
X138801006Y-85690040D01*
X138611883Y-85257370D01*
X138040118Y-83951028D01*
X137495018Y-82715977D01*
X136986054Y-81573480D01*
X136522699Y-80544802D01*
X136114428Y-79651207D01*
X136111457Y-79644763D01*
X135951104Y-79283659D01*
X135740792Y-78789775D01*
X135490722Y-78188618D01*
X135211095Y-77505694D01*
X134912111Y-76766510D01*
X134603970Y-75996572D01*
X134296874Y-75221387D01*
X134001021Y-74466462D01*
X133726614Y-73757303D01*
X133483852Y-73119418D01*
X133282935Y-72578312D01*
X133257411Y-72508100D01*
X132711055Y-70907012D01*
X132221071Y-69283166D01*
X131803910Y-67693872D01*
X131546035Y-66546036D01*
X131437868Y-66027105D01*
X131339971Y-65566957D01*
X131257805Y-65190494D01*
X131196831Y-64922613D01*
X131162509Y-64788216D01*
X131158197Y-64777615D01*
X131078724Y-64804421D01*
X130895499Y-64905197D01*
X130645298Y-65059430D01*
X130596978Y-65090641D01*
X129697371Y-65598193D01*
X128810933Y-65941193D01*
X128629333Y-65991713D01*
X128239092Y-66060612D01*
X127732095Y-66103692D01*
X127158959Y-66120822D01*
X126570302Y-66111870D01*
X126016740Y-66076705D01*
X125548892Y-66015197D01*
X125470854Y-65999889D01*
X124726314Y-65803327D01*
X124079847Y-65551920D01*
X123545059Y-65255148D01*
X123135560Y-64922491D01*
X122864958Y-64563430D01*
X122746861Y-64187445D01*
X122742702Y-64099349D01*
X122772650Y-63858050D01*
X122850932Y-63512769D01*
X122962036Y-63116356D01*
X123090448Y-62721665D01*
X123220656Y-62381546D01*
X123292013Y-62227924D01*
X123440465Y-62027757D01*
X123703599Y-61758455D01*
X124053506Y-61442216D01*
X124462280Y-61101239D01*
X124902011Y-60757723D01*
X125344793Y-60433867D01*
X125762717Y-60151869D01*
X126127875Y-59933928D01*
X126262668Y-59864984D01*
X126532626Y-59755669D01*
X126932587Y-59618601D01*
X127427502Y-59463876D01*
X127982325Y-59301588D01*
X128562006Y-59141832D01*
X129131499Y-58994700D01*
X129655757Y-58870290D01*
X129895955Y-58818524D01*
X130827288Y-58626629D01*
X130887669Y-57908500D01*
X130999929Y-56800334D01*
X131151826Y-55644883D01*
X131336178Y-54482851D01*
X131545803Y-53354948D01*
X131773519Y-52301880D01*
X132012143Y-51364354D01*
X132089940Y-51094370D01*
X132281930Y-50489511D01*
X132520602Y-49799754D01*
X132793338Y-49056675D01*
X133087521Y-48291850D01*
X133390531Y-47536854D01*
X133689751Y-46823266D01*
X133972562Y-46182659D01*
X134226346Y-45646611D01*
X134399104Y-45315870D01*
X134538206Y-45058293D01*
X134631230Y-44870025D01*
X134660204Y-44787719D01*
X134658558Y-44786703D01*
X134566080Y-44810995D01*
X134357936Y-44874674D01*
X134079771Y-44963765D01*
X133501192Y-45186804D01*
X133036603Y-45449958D01*
X132670057Y-45746712D01*
X132468087Y-45914541D01*
X132362105Y-45961455D01*
X132350680Y-45905045D01*
X132432381Y-45762900D01*
X132605780Y-45552611D01*
X132693314Y-45460627D01*
X132973689Y-45217520D01*
X133334315Y-44963629D01*
X133735057Y-44721089D01*
X134135778Y-44512037D01*
X134496344Y-44358609D01*
X134776618Y-44282942D01*
X134836265Y-44278703D01*
X134996318Y-44254294D01*
X135146980Y-44161566D01*
X135326798Y-43971269D01*
X135457816Y-43807022D01*
X135919175Y-43306293D01*
X136490400Y-42835292D01*
X137112821Y-42440167D01*
X137346621Y-42321367D01*
X137777400Y-42167418D01*
X138279784Y-42062413D01*
X138782663Y-42016600D01*
X139214924Y-42040229D01*
X139251621Y-42046824D01*
X140453898Y-42348832D01*
X141638054Y-42775364D01*
X142203598Y-43029860D01*
X143250574Y-43536858D01*
X143600598Y-43338577D01*
X143988802Y-43199205D01*
X144487985Y-43143120D01*
X145063171Y-43167757D01*
X145679382Y-43270551D01*
X146301644Y-43448936D01*
X146584479Y-43557420D01*
X146794447Y-43659091D01*
X146850731Y-43719391D01*
X146764547Y-43735447D01*
X146547109Y-43704385D01*
X146267154Y-43638710D01*
X145924008Y-43566063D01*
X145568337Y-43533339D01*
X145138230Y-43536575D01*
X144881955Y-43550061D01*
X144330517Y-43590911D01*
X143937073Y-43635565D01*
X143690293Y-43685914D01*
X143578849Y-43743846D01*
X143569621Y-43768932D01*
X143633030Y-43844936D01*
X143801985Y-43992569D01*
X144044578Y-44184562D01*
X144141121Y-44257301D01*
X145050338Y-45027546D01*
X145921656Y-45952372D01*
X146748808Y-47020006D01*
X147525526Y-48218678D01*
X148245543Y-49536615D01*
X148902590Y-50962046D01*
X149490400Y-52483198D01*
X150002704Y-54088299D01*
X150433236Y-55765578D01*
X150547072Y-56288546D01*
X150645451Y-56761440D01*
X150730552Y-57173360D01*
X150796819Y-57497170D01*
X150838692Y-57705731D01*
X150850955Y-57772229D01*
X150929470Y-57788697D01*
X151140894Y-57810805D01*
X151449046Y-57835144D01*
X151678363Y-57850198D01*
X152648347Y-57947913D01*
X153496378Y-58119229D01*
X154256508Y-58371902D01*
X154565413Y-58507778D01*
X155438451Y-59002170D01*
X156247272Y-59619040D01*
X156965042Y-60332185D01*
X157564925Y-61115398D01*
X157969156Y-61831521D01*
X158166141Y-62390132D01*
X158219397Y-62916114D01*
X158194994Y-63042018D01*
X157793621Y-63042018D01*
X157739441Y-62880155D01*
X157590671Y-62622650D01*
X157367968Y-62297929D01*
X157091987Y-61934415D01*
X156783385Y-61560532D01*
X156462817Y-61204704D01*
X156444187Y-61185109D01*
X155750109Y-60545958D01*
X154935336Y-59946752D01*
X154048436Y-59422585D01*
X153898955Y-59345955D01*
X153671775Y-59243155D01*
X153348993Y-59111705D01*
X152960977Y-58962390D01*
X152538096Y-58805994D01*
X152110716Y-58653303D01*
X151709206Y-58515100D01*
X151363933Y-58402170D01*
X151105266Y-58325298D01*
X150963572Y-58295269D01*
X150947327Y-58297739D01*
X150945089Y-58387476D01*
X150965426Y-58604371D01*
X151004235Y-58908366D01*
X151023655Y-59042979D01*
X151078900Y-59381464D01*
X151133178Y-59658764D01*
X151177282Y-59829529D01*
X151188647Y-59855793D01*
X151280400Y-59902183D01*
X151486423Y-59902231D01*
X151802530Y-59860899D01*
X152339332Y-59821512D01*
X152932487Y-59853039D01*
X153511903Y-59947453D01*
X154007484Y-60096724D01*
X154062012Y-60119703D01*
X154329577Y-60252893D01*
X154668247Y-60443622D01*
X155039423Y-60667497D01*
X155404505Y-60900131D01*
X155724894Y-61117132D01*
X155961991Y-61294112D01*
X156056926Y-61380233D01*
X156173475Y-61533869D01*
X156162149Y-61590689D01*
X156032257Y-61553151D01*
X155793107Y-61423711D01*
X155493340Y-61231473D01*
X154856420Y-60820861D01*
X154309522Y-60515712D01*
X153819726Y-60305049D01*
X153354106Y-60177897D01*
X152879742Y-60123278D01*
X152363709Y-60130216D01*
X152221188Y-60140540D01*
X151783488Y-60181654D01*
X151488276Y-60226108D01*
X151308811Y-60283098D01*
X151218350Y-60361823D01*
X151190149Y-60471479D01*
X151189621Y-60495320D01*
X151209765Y-60739891D01*
X151293638Y-60880090D01*
X151476403Y-60943578D01*
X151777803Y-60958036D01*
X152261006Y-60995496D01*
X152789826Y-61099045D01*
X153330714Y-61255437D01*
X153850118Y-61451428D01*
X154314487Y-61673772D01*
X154690269Y-61909224D01*
X154943914Y-62144537D01*
X155000921Y-62230464D01*
X154986997Y-62275960D01*
X154841959Y-62221078D01*
X154564140Y-62065094D01*
X154421968Y-61978267D01*
X153595314Y-61549278D01*
X152765479Y-61284197D01*
X151979961Y-61186478D01*
X151676348Y-61183874D01*
X151445024Y-61192728D01*
X151332415Y-61211137D01*
X151329764Y-61213123D01*
X151321668Y-61305468D01*
X151324360Y-61529252D01*
X151335718Y-61847072D01*
X151353617Y-62221524D01*
X151375935Y-62615208D01*
X151400548Y-62990721D01*
X151425333Y-63310659D01*
X151448168Y-63537622D01*
X151466929Y-63634206D01*
X151467216Y-63634520D01*
X151555482Y-63656865D01*
X151776269Y-63698877D01*
X152094769Y-63754230D01*
X152420087Y-63807650D01*
X153196001Y-63899105D01*
X154104700Y-63948079D01*
X154703288Y-63956216D01*
X155227536Y-63954036D01*
X155621860Y-63944708D01*
X155925649Y-63923743D01*
X156178291Y-63886653D01*
X156419174Y-63828949D01*
X156687688Y-63746141D01*
X156761839Y-63721627D01*
X157261411Y-63529601D01*
X157595272Y-63340596D01*
X157766958Y-63152282D01*
X157793621Y-63042018D01*
X158194994Y-63042018D01*
X158128004Y-63387638D01*
X158042330Y-63571175D01*
X157802050Y-63876213D01*
X157438542Y-64192731D01*
X156993579Y-64494149D01*
X156508934Y-64753887D01*
X156026379Y-64945363D01*
X155778621Y-65011605D01*
X155117789Y-65089383D01*
X154377652Y-65072359D01*
X153613696Y-64968223D01*
X152881406Y-64784669D01*
X152236270Y-64529387D01*
X152211839Y-64517175D01*
X151916375Y-64376756D01*
X151734085Y-64316072D01*
X151633432Y-64326924D01*
X151602501Y-64358719D01*
X151583433Y-64470629D01*
X151566180Y-64728521D01*
X151551455Y-65109048D01*
X151539971Y-65588863D01*
X151532442Y-66144618D01*
X151529585Y-66745084D01*
X151517078Y-67801553D01*
X151482327Y-68922770D01*
X151427750Y-70072232D01*
X151355767Y-71213435D01*
X151268799Y-72309875D01*
X151169265Y-73325050D01*
X151059585Y-74222455D01*
X151012375Y-74547036D01*
X150826374Y-75645069D01*
X150590847Y-76856634D01*
X150316051Y-78136837D01*
X150012240Y-79440780D01*
X149689672Y-80723567D01*
X149358602Y-81940302D01*
X149194323Y-82505703D01*
X148980050Y-83220926D01*
X148742104Y-84006641D01*
X148485040Y-84848412D01*
X148213415Y-85731804D01*
X147931787Y-86642379D01*
X147644710Y-87565702D01*
X147356741Y-88487336D01*
X147072437Y-89392846D01*
X146796354Y-90267796D01*
X146533048Y-91097748D01*
X146287076Y-91868268D01*
X146062994Y-92564918D01*
X145865358Y-93173263D01*
X145698725Y-93678867D01*
X145567651Y-94067293D01*
X145476692Y-94324106D01*
X145430405Y-94434869D01*
X145428463Y-94437304D01*
X145369095Y-94462198D01*
X145376603Y-94343375D01*
X145382247Y-94316703D01*
X145409564Y-94189968D01*
X145468144Y-93916284D01*
X145554002Y-93514328D01*
X145663155Y-93002777D01*
X145791618Y-92400305D01*
X145935407Y-91725591D01*
X146090537Y-90997309D01*
X146158948Y-90676036D01*
X146361194Y-89728555D01*
X146535622Y-88919202D01*
X146688971Y-88220333D01*
X146827981Y-87604308D01*
X146959392Y-87043484D01*
X147089942Y-86510220D01*
X147226371Y-85976872D01*
X147375419Y-85415800D01*
X147543825Y-84799360D01*
X147738329Y-84099911D01*
X147921520Y-83446822D01*
X148405877Y-81670723D01*
X148824101Y-80017953D01*
X149182112Y-78458606D01*
X149485834Y-76962772D01*
X149741188Y-75500544D01*
X149954094Y-74042013D01*
X150130476Y-72557272D01*
X150186519Y-72007036D01*
X150238532Y-71376765D01*
X150285007Y-70622713D01*
X150325530Y-69771018D01*
X150359686Y-68847819D01*
X150387061Y-67879254D01*
X150407240Y-66891462D01*
X150419808Y-65910582D01*
X150424350Y-64962752D01*
X150420453Y-64074110D01*
X150407700Y-63270795D01*
X150385679Y-62578946D01*
X150353973Y-62024701D01*
X150346349Y-61931703D01*
X150138533Y-59952940D01*
X149869633Y-58057744D01*
X149542445Y-56256316D01*
X149159765Y-54558858D01*
X148724389Y-52975572D01*
X148239113Y-51516659D01*
X147706733Y-50192322D01*
X147130044Y-49012761D01*
X146534061Y-48021177D01*
X145659231Y-46826639D01*
X144725923Y-45761252D01*
X143746800Y-44838273D01*
X142807621Y-44120297D01*
X142121479Y-43671571D01*
X141521561Y-43327100D01*
X140971639Y-43074184D01*
X140435486Y-42900121D01*
X139876871Y-42792211D01*
X139259567Y-42737753D01*
X138828288Y-42725222D01*
X138186076Y-42736179D01*
X137658854Y-42798052D01*
X137217009Y-42927924D01*
X136830933Y-43142877D01*
X136471013Y-43459996D01*
X136107641Y-43896363D01*
X135711204Y-44469062D01*
X135654490Y-44556279D01*
X135216796Y-45301744D01*
X134772142Y-46187936D01*
X134331243Y-47187174D01*
X133904815Y-48271776D01*
X133503574Y-49414062D01*
X133138235Y-50586350D01*
X132819513Y-51760960D01*
X132740994Y-52082670D01*
X132512954Y-53094482D01*
X132329769Y-54037464D01*
X132186404Y-54952932D01*
X132077828Y-55882203D01*
X131999006Y-56866594D01*
X131944906Y-57947421D01*
X131917641Y-58841370D01*
X131901655Y-59635293D01*
X131896102Y-60296798D01*
X131901873Y-60862532D01*
X131919859Y-61369142D01*
X131950951Y-61853274D01*
X131996039Y-62351574D01*
X132005095Y-62439703D01*
X132116776Y-63387813D01*
X132125636Y-63451160D01*
X131053396Y-63451160D01*
X131050505Y-63330421D01*
X131026437Y-62912191D01*
X130971163Y-62637638D01*
X130863464Y-62481400D01*
X130682122Y-62418113D01*
X130405917Y-62422416D01*
X130299914Y-62433261D01*
X129735424Y-62557828D01*
X129088461Y-62814776D01*
X128354930Y-63206132D01*
X127530734Y-63733925D01*
X127186621Y-63975189D01*
X126763288Y-64278475D01*
X127284426Y-63770920D01*
X127588936Y-63505487D01*
X127981780Y-63206593D01*
X128401423Y-62919604D01*
X128634886Y-62775283D01*
X129008639Y-62559605D01*
X129287174Y-62416048D01*
X129519055Y-62327294D01*
X129752848Y-62276021D01*
X130037118Y-62244909D01*
X130145748Y-62236452D01*
X130827288Y-62185703D01*
X130853396Y-61871056D01*
X130856018Y-61658152D01*
X130793862Y-61551041D01*
X130641729Y-61491379D01*
X130469639Y-61466983D01*
X130168234Y-61446550D01*
X129777520Y-61432000D01*
X129337504Y-61425257D01*
X129260955Y-61425026D01*
X128117955Y-61423703D01*
X127313621Y-61818675D01*
X126929275Y-62011100D01*
X126556847Y-62203894D01*
X126251170Y-62368396D01*
X126128288Y-62438242D01*
X125747288Y-62662836D01*
X126126514Y-62310890D01*
X126422224Y-62082960D01*
X126829521Y-61830662D01*
X127298259Y-61579800D01*
X127778293Y-61356174D01*
X128219478Y-61185588D01*
X128439684Y-61120653D01*
X128713130Y-61082019D01*
X129097886Y-61063637D01*
X129539223Y-61064214D01*
X129982412Y-61082458D01*
X130372725Y-61117074D01*
X130655434Y-61166771D01*
X130679121Y-61173562D01*
X130869621Y-61231786D01*
X130869621Y-60114189D01*
X130865132Y-59704546D01*
X130852834Y-59366816D01*
X130834486Y-59131121D01*
X130811844Y-59027584D01*
X130806121Y-59025672D01*
X130709618Y-59073726D01*
X130494798Y-59182599D01*
X130194021Y-59335842D01*
X129859933Y-59506621D01*
X129491692Y-59684821D01*
X129009053Y-59903259D01*
X128456187Y-60142767D01*
X127877267Y-60384177D01*
X127362266Y-60590443D01*
X126712902Y-60846976D01*
X126197923Y-61058632D01*
X125792883Y-61239245D01*
X125473337Y-61402648D01*
X125214839Y-61562677D01*
X124992945Y-61733163D01*
X124783210Y-61927943D01*
X124561187Y-62160848D01*
X124532949Y-62191589D01*
X124304767Y-62470259D01*
X124062837Y-62814888D01*
X123824890Y-63193602D01*
X123608661Y-63574531D01*
X123431883Y-63925800D01*
X123312290Y-64215538D01*
X123267615Y-64411872D01*
X123273743Y-64454774D01*
X123372442Y-64515102D01*
X123609202Y-64589815D01*
X123953960Y-64673106D01*
X124376652Y-64759165D01*
X124847215Y-64842186D01*
X125335586Y-64916360D01*
X125811700Y-64975879D01*
X126128288Y-65006256D01*
X127036976Y-65025295D01*
X128026256Y-64949714D01*
X129041398Y-64786687D01*
X130027671Y-64543387D01*
X130297241Y-64459892D01*
X130610109Y-64349050D01*
X130858346Y-64244236D01*
X130998907Y-64164136D01*
X131012758Y-64149261D01*
X131037803Y-64024271D01*
X131052057Y-63776220D01*
X131053396Y-63451160D01*
X132125636Y-63451160D01*
X132259301Y-64406828D01*
X132422754Y-65433740D01*
X132597220Y-66405540D01*
X132739896Y-67109463D01*
X132821825Y-67442901D01*
X132950126Y-67907800D01*
X133115904Y-68475561D01*
X133310259Y-69117585D01*
X133524296Y-69805273D01*
X133749116Y-70510028D01*
X133975822Y-71203251D01*
X134195516Y-71856342D01*
X134393171Y-72423509D01*
X134569153Y-72903270D01*
X134801686Y-73515444D01*
X135081290Y-74236519D01*
X135398483Y-75042980D01*
X135743783Y-75911313D01*
X136107708Y-76818006D01*
X136480777Y-77739544D01*
X136853509Y-78652414D01*
X137216422Y-79533102D01*
X137560033Y-80358094D01*
X137874863Y-81103876D01*
X138151429Y-81746936D01*
X138168474Y-81786036D01*
X138493138Y-82534276D01*
X138856515Y-83378830D01*
X139235476Y-84265476D01*
X139606893Y-85139996D01*
X139947639Y-85948170D01*
X140136981Y-86400845D01*
X140658731Y-87698023D01*
X141165619Y-89044713D01*
X141649744Y-90415470D01*
X142103208Y-91784850D01*
X142518111Y-93127410D01*
X142886553Y-94417706D01*
X143200634Y-95630295D01*
X143452454Y-96739731D01*
X143615087Y-97603292D01*
X143774485Y-98585779D01*
X143902673Y-99422612D01*
X143999196Y-100110168D01*
X144063602Y-100644825D01*
X144095436Y-101022960D01*
X144094244Y-101240952D01*
X144077530Y-101293328D01*
X144040347Y-101324742D01*
X144007789Y-101322400D01*
G36*
X153065732Y-62928847D02*
X152889566Y-62791047D01*
X152705173Y-62633017D01*
X152426575Y-62400738D01*
X152171520Y-62207310D01*
X151983760Y-62085338D01*
X151945437Y-62066884D01*
X151815029Y-62007706D01*
X151837055Y-61985243D01*
X151909288Y-61981978D01*
X152123528Y-62020659D01*
X152247955Y-62072610D01*
X152516382Y-62264595D01*
X152809351Y-62541021D01*
X153063489Y-62841606D01*
X153078928Y-62863036D01*
X153127554Y-62952045D01*
X153065732Y-62928847D01*
X153065732Y-62928847D01*
G37*
X153065732Y-62928847D02*
X152889566Y-62791047D01*
X152705173Y-62633017D01*
X152426575Y-62400738D01*
X152171520Y-62207310D01*
X151983760Y-62085338D01*
X151945437Y-62066884D01*
X151815029Y-62007706D01*
X151837055Y-61985243D01*
X151909288Y-61981978D01*
X152123528Y-62020659D01*
X152247955Y-62072610D01*
X152516382Y-62264595D01*
X152809351Y-62541021D01*
X153063489Y-62841606D01*
X153078928Y-62863036D01*
X153127554Y-62952045D01*
X153065732Y-62928847D01*
G36*
X128583621Y-64322807D02*
X128647074Y-64191071D01*
X128815214Y-63991884D01*
X129054712Y-63755906D01*
X129332239Y-63513795D01*
X129614468Y-63296210D01*
X129868070Y-63133812D01*
X129887398Y-63123451D01*
X130190325Y-62980338D01*
X130410700Y-62908783D01*
X130522383Y-62916283D01*
X130530955Y-62938877D01*
X130465496Y-62998098D01*
X130294937Y-63119063D01*
X130086455Y-63256048D01*
X129793645Y-63457581D01*
X129447792Y-63716823D01*
X129122214Y-63978756D01*
X129112788Y-63986703D01*
X128871997Y-64177879D01*
X128688542Y-64300260D01*
X128591669Y-64335271D01*
X128583621Y-64322807D01*
X128583621Y-64322807D01*
G37*
X128583621Y-64322807D02*
X128647074Y-64191071D01*
X128815214Y-63991884D01*
X129054712Y-63755906D01*
X129332239Y-63513795D01*
X129614468Y-63296210D01*
X129868070Y-63133812D01*
X129887398Y-63123451D01*
X130190325Y-62980338D01*
X130410700Y-62908783D01*
X130522383Y-62916283D01*
X130530955Y-62938877D01*
X130465496Y-62998098D01*
X130294937Y-63119063D01*
X130086455Y-63256048D01*
X129793645Y-63457581D01*
X129447792Y-63716823D01*
X129122214Y-63978756D01*
X129112788Y-63986703D01*
X128871997Y-64177879D01*
X128688542Y-64300260D01*
X128591669Y-64335271D01*
X128583621Y-64322807D01*
G36*
X141878070Y-113876340D02*
X141563897Y-113638732D01*
X141292249Y-113260495D01*
X141239172Y-113158292D01*
X141158512Y-112981415D01*
X141096283Y-112805672D01*
X141054470Y-112616347D01*
X141035057Y-112398726D01*
X141040027Y-112138094D01*
X141071365Y-111819733D01*
X141131053Y-111428930D01*
X141221076Y-110950969D01*
X141343417Y-110371133D01*
X141500061Y-109674709D01*
X141692991Y-108846979D01*
X141924190Y-107873230D01*
X141987218Y-107609370D01*
X142193961Y-106741040D01*
X142363981Y-106017177D01*
X142501239Y-105417879D01*
X142609699Y-104923239D01*
X142693326Y-104513354D01*
X142756081Y-104168320D01*
X142801929Y-103868231D01*
X142834833Y-103593185D01*
X142858757Y-103323275D01*
X142868679Y-103182673D01*
X142899200Y-102844136D01*
X142938912Y-102573988D01*
X142981035Y-102413885D01*
X142997798Y-102389488D01*
X143123907Y-102387236D01*
X143231518Y-102533210D01*
X143318163Y-102807064D01*
X143381374Y-103188451D01*
X143418682Y-103657024D01*
X143427619Y-104192436D01*
X143405718Y-104774341D01*
X143355574Y-105338837D01*
X143295688Y-105818419D01*
X143227532Y-106293746D01*
X143159439Y-106710317D01*
X143099742Y-107013632D01*
X143099032Y-107016703D01*
X142890128Y-107941678D01*
X142700448Y-108830164D01*
X142533179Y-109664152D01*
X142391507Y-110425633D01*
X142278619Y-111096599D01*
X142197702Y-111659039D01*
X142151942Y-112094945D01*
X142144525Y-112386308D01*
X142145774Y-112403933D01*
X142203598Y-112650551D01*
X142341711Y-112764008D01*
X142585678Y-112760213D01*
X142683509Y-112738544D01*
X142886198Y-112615308D01*
X143130705Y-112345559D01*
X143408579Y-111944483D01*
X143711369Y-111427264D01*
X144030625Y-110809090D01*
X144357894Y-110105146D01*
X144684725Y-109330619D01*
X144925413Y-108710036D01*
X145102770Y-108239949D01*
X145242057Y-107893700D01*
X145363623Y-107636189D01*
X145487821Y-107432318D01*
X145635000Y-107246989D01*
X145825513Y-107045102D01*
X145980882Y-106889703D01*
X146416153Y-106499137D01*
X146998949Y-106044155D01*
X147722273Y-105529598D01*
X148579128Y-104960306D01*
X149562516Y-104341119D01*
X150385288Y-103843079D01*
X150977705Y-103487819D01*
X151439598Y-103203255D01*
X151787105Y-102975446D01*
X152036365Y-102790448D01*
X152203516Y-102634318D01*
X152304697Y-102493115D01*
X152356046Y-102352897D01*
X152373702Y-102199719D01*
X152374955Y-102124158D01*
X152329704Y-101760801D01*
X152187029Y-101394622D01*
X151936548Y-101013226D01*
X151567880Y-100604214D01*
X151070641Y-100155191D01*
X150434450Y-99653760D01*
X150099748Y-99407486D01*
X149315892Y-98823074D01*
X148671684Y-98301397D01*
X148155409Y-97829281D01*
X147755347Y-97393552D01*
X147459783Y-96981036D01*
X147256999Y-96578559D01*
X147135277Y-96172947D01*
X147112920Y-96049349D01*
X147064566Y-95634741D01*
X147074710Y-95334227D01*
X147148615Y-95101155D01*
X147235686Y-94960501D01*
X147306748Y-94881079D01*
X147350318Y-94906261D01*
X147382731Y-95061036D01*
X147402310Y-95215421D01*
X147461546Y-95532153D01*
X147561475Y-95904147D01*
X147639684Y-96137956D01*
X147846523Y-96535208D01*
X148173351Y-96972622D01*
X148587352Y-97417395D01*
X149055707Y-97836724D01*
X149545601Y-98197806D01*
X149919621Y-98416924D01*
X150777923Y-98892682D01*
X151538120Y-99390334D01*
X152186350Y-99898046D01*
X152708753Y-100403986D01*
X153091469Y-100896322D01*
X153299110Y-101301951D01*
X153424888Y-101773834D01*
X153471093Y-102267132D01*
X153435409Y-102719680D01*
X153361452Y-102976589D01*
X153268761Y-103163628D01*
X153141843Y-103351284D01*
X152969156Y-103547978D01*
X152739153Y-103762132D01*
X152440290Y-104002166D01*
X152061023Y-104276502D01*
X151589806Y-104593561D01*
X151015096Y-104961764D01*
X150325348Y-105389533D01*
X149509017Y-105885288D01*
X148747743Y-106342068D01*
X148097105Y-106735285D01*
X147576768Y-107061538D01*
X147168498Y-107335167D01*
X146854059Y-107570511D01*
X146615217Y-107781912D01*
X146433735Y-107983708D01*
X146291378Y-108190241D01*
X146208592Y-108338822D01*
X146148760Y-108475889D01*
X146042223Y-108741169D01*
X145900948Y-109104030D01*
X145736904Y-109533843D01*
X145613185Y-109862822D01*
X145438162Y-110328650D01*
X145275822Y-110756215D01*
X145138722Y-111112786D01*
X145039418Y-111365627D01*
X144999846Y-111461703D01*
X144781293Y-111884628D01*
X144487291Y-112349308D01*
X144166676Y-112782489D01*
X143963204Y-113016616D01*
X143702665Y-113243315D01*
X143362592Y-113474729D01*
X142989527Y-113685731D01*
X142630016Y-113851197D01*
X142330602Y-113946001D01*
X142217343Y-113959053D01*
X141878070Y-113876340D01*
X141878070Y-113876340D01*
G37*
X141878070Y-113876340D02*
X141563897Y-113638732D01*
X141292249Y-113260495D01*
X141239172Y-113158292D01*
X141158512Y-112981415D01*
X141096283Y-112805672D01*
X141054470Y-112616347D01*
X141035057Y-112398726D01*
X141040027Y-112138094D01*
X141071365Y-111819733D01*
X141131053Y-111428930D01*
X141221076Y-110950969D01*
X141343417Y-110371133D01*
X141500061Y-109674709D01*
X141692991Y-108846979D01*
X141924190Y-107873230D01*
X141987218Y-107609370D01*
X142193961Y-106741040D01*
X142363981Y-106017177D01*
X142501239Y-105417879D01*
X142609699Y-104923239D01*
X142693326Y-104513354D01*
X142756081Y-104168320D01*
X142801929Y-103868231D01*
X142834833Y-103593185D01*
X142858757Y-103323275D01*
X142868679Y-103182673D01*
X142899200Y-102844136D01*
X142938912Y-102573988D01*
X142981035Y-102413885D01*
X142997798Y-102389488D01*
X143123907Y-102387236D01*
X143231518Y-102533210D01*
X143318163Y-102807064D01*
X143381374Y-103188451D01*
X143418682Y-103657024D01*
X143427619Y-104192436D01*
X143405718Y-104774341D01*
X143355574Y-105338837D01*
X143295688Y-105818419D01*
X143227532Y-106293746D01*
X143159439Y-106710317D01*
X143099742Y-107013632D01*
X143099032Y-107016703D01*
X142890128Y-107941678D01*
X142700448Y-108830164D01*
X142533179Y-109664152D01*
X142391507Y-110425633D01*
X142278619Y-111096599D01*
X142197702Y-111659039D01*
X142151942Y-112094945D01*
X142144525Y-112386308D01*
X142145774Y-112403933D01*
X142203598Y-112650551D01*
X142341711Y-112764008D01*
X142585678Y-112760213D01*
X142683509Y-112738544D01*
X142886198Y-112615308D01*
X143130705Y-112345559D01*
X143408579Y-111944483D01*
X143711369Y-111427264D01*
X144030625Y-110809090D01*
X144357894Y-110105146D01*
X144684725Y-109330619D01*
X144925413Y-108710036D01*
X145102770Y-108239949D01*
X145242057Y-107893700D01*
X145363623Y-107636189D01*
X145487821Y-107432318D01*
X145635000Y-107246989D01*
X145825513Y-107045102D01*
X145980882Y-106889703D01*
X146416153Y-106499137D01*
X146998949Y-106044155D01*
X147722273Y-105529598D01*
X148579128Y-104960306D01*
X149562516Y-104341119D01*
X150385288Y-103843079D01*
X150977705Y-103487819D01*
X151439598Y-103203255D01*
X151787105Y-102975446D01*
X152036365Y-102790448D01*
X152203516Y-102634318D01*
X152304697Y-102493115D01*
X152356046Y-102352897D01*
X152373702Y-102199719D01*
X152374955Y-102124158D01*
X152329704Y-101760801D01*
X152187029Y-101394622D01*
X151936548Y-101013226D01*
X151567880Y-100604214D01*
X151070641Y-100155191D01*
X150434450Y-99653760D01*
X150099748Y-99407486D01*
X149315892Y-98823074D01*
X148671684Y-98301397D01*
X148155409Y-97829281D01*
X147755347Y-97393552D01*
X147459783Y-96981036D01*
X147256999Y-96578559D01*
X147135277Y-96172947D01*
X147112920Y-96049349D01*
X147064566Y-95634741D01*
X147074710Y-95334227D01*
X147148615Y-95101155D01*
X147235686Y-94960501D01*
X147306748Y-94881079D01*
X147350318Y-94906261D01*
X147382731Y-95061036D01*
X147402310Y-95215421D01*
X147461546Y-95532153D01*
X147561475Y-95904147D01*
X147639684Y-96137956D01*
X147846523Y-96535208D01*
X148173351Y-96972622D01*
X148587352Y-97417395D01*
X149055707Y-97836724D01*
X149545601Y-98197806D01*
X149919621Y-98416924D01*
X150777923Y-98892682D01*
X151538120Y-99390334D01*
X152186350Y-99898046D01*
X152708753Y-100403986D01*
X153091469Y-100896322D01*
X153299110Y-101301951D01*
X153424888Y-101773834D01*
X153471093Y-102267132D01*
X153435409Y-102719680D01*
X153361452Y-102976589D01*
X153268761Y-103163628D01*
X153141843Y-103351284D01*
X152969156Y-103547978D01*
X152739153Y-103762132D01*
X152440290Y-104002166D01*
X152061023Y-104276502D01*
X151589806Y-104593561D01*
X151015096Y-104961764D01*
X150325348Y-105389533D01*
X149509017Y-105885288D01*
X148747743Y-106342068D01*
X148097105Y-106735285D01*
X147576768Y-107061538D01*
X147168498Y-107335167D01*
X146854059Y-107570511D01*
X146615217Y-107781912D01*
X146433735Y-107983708D01*
X146291378Y-108190241D01*
X146208592Y-108338822D01*
X146148760Y-108475889D01*
X146042223Y-108741169D01*
X145900948Y-109104030D01*
X145736904Y-109533843D01*
X145613185Y-109862822D01*
X145438162Y-110328650D01*
X145275822Y-110756215D01*
X145138722Y-111112786D01*
X145039418Y-111365627D01*
X144999846Y-111461703D01*
X144781293Y-111884628D01*
X144487291Y-112349308D01*
X144166676Y-112782489D01*
X143963204Y-113016616D01*
X143702665Y-113243315D01*
X143362592Y-113474729D01*
X142989527Y-113685731D01*
X142630016Y-113851197D01*
X142330602Y-113946001D01*
X142217343Y-113959053D01*
X141878070Y-113876340D01*
D11*
G36*
X169583665Y-39748573D02*
X169608180Y-39751000D01*
X169672000Y-39751000D01*
X169608826Y-40003695D01*
X169605243Y-40027931D01*
X169606456Y-40052405D01*
X169612421Y-40076172D01*
X169624633Y-40101110D01*
X169773600Y-40335200D01*
X169545000Y-42291000D01*
X169544382Y-42293884D01*
X169544381Y-42293890D01*
X169392600Y-43002200D01*
X168986866Y-44878719D01*
X168985688Y-44884925D01*
X168980413Y-44917130D01*
X168505589Y-47816057D01*
X168504017Y-47840497D01*
X168554400Y-49326800D01*
X168552616Y-49334649D01*
X168552616Y-49334651D01*
X168524411Y-49458753D01*
X168300400Y-50444400D01*
X167955048Y-51053845D01*
X167886879Y-51174143D01*
X167876946Y-51196544D01*
X167871574Y-51220452D01*
X167870866Y-51243409D01*
X167944420Y-52444795D01*
X167945793Y-52457132D01*
X167961326Y-52553071D01*
X168376170Y-55115342D01*
X168377142Y-55120625D01*
X168706434Y-56716427D01*
X168707218Y-56719964D01*
X168929078Y-57656706D01*
X168934422Y-57679272D01*
X168936658Y-57687461D01*
X169494146Y-59486624D01*
X169494200Y-59486800D01*
X170458473Y-62582623D01*
X170460474Y-62588525D01*
X171195142Y-64589862D01*
X171196961Y-64594525D01*
X172453678Y-67635780D01*
X172465598Y-67664628D01*
X172466403Y-67666531D01*
X172642000Y-68072000D01*
X173839735Y-70837677D01*
X173863000Y-70891400D01*
X173863152Y-70891765D01*
X173863163Y-70891791D01*
X174761849Y-73050400D01*
X176453800Y-77114400D01*
X176454311Y-77115816D01*
X176454312Y-77115819D01*
X176693068Y-77777633D01*
X177901600Y-81127600D01*
X179298600Y-85699600D01*
X179299284Y-85704190D01*
X179299285Y-85704196D01*
X179674525Y-88223666D01*
X179680493Y-88247432D01*
X179690983Y-88269578D01*
X179705591Y-88289251D01*
X179723758Y-88305697D01*
X179744783Y-88318282D01*
X179767860Y-88326524D01*
X179792101Y-88330105D01*
X179822674Y-88327825D01*
X180015545Y-88289251D01*
X180245743Y-88243211D01*
X180280051Y-88230932D01*
X180641630Y-88038090D01*
X180641639Y-88038086D01*
X180644800Y-88036400D01*
X180997197Y-87897577D01*
X181480516Y-87707178D01*
X181485467Y-87705103D01*
X182388433Y-87303785D01*
X182388435Y-87303784D01*
X182397400Y-87299800D01*
X182513201Y-87287610D01*
X183361551Y-87198310D01*
X183363597Y-87198078D01*
X184399643Y-87071731D01*
X184399648Y-87071731D01*
X184404000Y-87071200D01*
X184408384Y-87071284D01*
X184408390Y-87071284D01*
X185719603Y-87096500D01*
X185719604Y-87096500D01*
X185724800Y-87096600D01*
X185729909Y-87097558D01*
X185729910Y-87097558D01*
X185890608Y-87127689D01*
X186537600Y-87249000D01*
X186541653Y-87250351D01*
X186541657Y-87250352D01*
X187136503Y-87448634D01*
X187158353Y-87453793D01*
X187622712Y-87520130D01*
X187858400Y-87553800D01*
X188442600Y-87706200D01*
X188452338Y-87713504D01*
X188452341Y-87713505D01*
X188737550Y-87927412D01*
X188737551Y-87927414D01*
X188747400Y-87934800D01*
X188798200Y-88290400D01*
X188796944Y-88299192D01*
X188722885Y-88817609D01*
X188722000Y-88823800D01*
X188720426Y-88828747D01*
X188720425Y-88828751D01*
X188568446Y-89306400D01*
X188544200Y-89382600D01*
X188542194Y-89386708D01*
X188542193Y-89386710D01*
X188103166Y-90285669D01*
X188010800Y-90474800D01*
X188008232Y-90478554D01*
X188008228Y-90478560D01*
X187822058Y-90750654D01*
X187680600Y-90957400D01*
X186385200Y-91871800D01*
X186383010Y-91873094D01*
X185830041Y-92199849D01*
X185830035Y-92199852D01*
X185826400Y-92202000D01*
X185822505Y-92203640D01*
X185822499Y-92203643D01*
X184380692Y-92810719D01*
X184376567Y-92812544D01*
X183667400Y-93141800D01*
X183660774Y-93143265D01*
X183660773Y-93143265D01*
X181255460Y-93674966D01*
X181253268Y-93675472D01*
X180086469Y-93955504D01*
X180063317Y-93963530D01*
X180042175Y-93975919D01*
X180023857Y-93992195D01*
X180009066Y-94011732D01*
X179998370Y-94033779D01*
X179992181Y-94057489D01*
X179990643Y-94076387D01*
X179988050Y-94563776D01*
X179984400Y-95250000D01*
X179984160Y-95252638D01*
X179984160Y-95252642D01*
X179758109Y-97739200D01*
X179755800Y-97764600D01*
X179095400Y-101041200D01*
X177901600Y-104571800D01*
X177900523Y-104574261D01*
X177900521Y-104574267D01*
X177393926Y-105732198D01*
X177190400Y-106197400D01*
X177189371Y-106199361D01*
X177189370Y-106199362D01*
X176151863Y-108175567D01*
X176123600Y-108229400D01*
X175514000Y-109042200D01*
X175173485Y-109307045D01*
X174839547Y-109566775D01*
X174839546Y-109566776D01*
X174828200Y-109575600D01*
X174814121Y-109578499D01*
X174814120Y-109578499D01*
X174621869Y-109618080D01*
X173964600Y-109753400D01*
X172694600Y-109778800D01*
X171221400Y-109550200D01*
X168857863Y-108229400D01*
X168639196Y-108107204D01*
X168639194Y-108107203D01*
X168630600Y-108102400D01*
X165481000Y-104698800D01*
X165429654Y-104599883D01*
X164331788Y-102484876D01*
X163753800Y-101371400D01*
X163536855Y-100510094D01*
X162124928Y-94904535D01*
X162116643Y-94881474D01*
X162104017Y-94860472D01*
X162087537Y-94842337D01*
X162067836Y-94827766D01*
X162045671Y-94817318D01*
X162010650Y-94810258D01*
X161696400Y-94792800D01*
X161243478Y-94767638D01*
X161243473Y-94767637D01*
X161239200Y-94767400D01*
X160197800Y-94564200D01*
X158090475Y-94031021D01*
X158088833Y-94030617D01*
X157737955Y-93947075D01*
X157036259Y-93780005D01*
X157036257Y-93780004D01*
X157022800Y-93776800D01*
X156133800Y-93065600D01*
X156133203Y-93065095D01*
X156133174Y-93065071D01*
X155478353Y-92510991D01*
X155473400Y-92506800D01*
X155469421Y-92501684D01*
X155469417Y-92501680D01*
X154765757Y-91596973D01*
X154762200Y-91592400D01*
X154666526Y-91406679D01*
X154430336Y-90948193D01*
X154330400Y-90754200D01*
X154228311Y-90478560D01*
X154080665Y-90079917D01*
X154080665Y-90079914D01*
X154076400Y-90068400D01*
X154101800Y-89382600D01*
X154381200Y-88874600D01*
X154508890Y-88757551D01*
X154676282Y-88604108D01*
X154676283Y-88604108D01*
X154686000Y-88595200D01*
X155147811Y-88441263D01*
X155442782Y-88342939D01*
X155442786Y-88342938D01*
X155448000Y-88341200D01*
X155453435Y-88340401D01*
X155453438Y-88340400D01*
X156023303Y-88256597D01*
X156311600Y-88214200D01*
X156655162Y-88201475D01*
X156995320Y-88188877D01*
X156995321Y-88188877D01*
X156997400Y-88188800D01*
X156999474Y-88188861D01*
X156999475Y-88188861D01*
X158720356Y-88239475D01*
X158720359Y-88239475D01*
X158724600Y-88239600D01*
X158728785Y-88240298D01*
X158728790Y-88240298D01*
X159639000Y-88392000D01*
X159943800Y-88442800D01*
X160483167Y-88712484D01*
X160506049Y-88721240D01*
X160524167Y-88724788D01*
X160848510Y-88763709D01*
X161136811Y-88798305D01*
X161138388Y-88798484D01*
X161357631Y-88821974D01*
X161382134Y-88822183D01*
X161406207Y-88817609D01*
X161428926Y-88808425D01*
X161449416Y-88794987D01*
X161466891Y-88777808D01*
X161480679Y-88757551D01*
X161490250Y-88734993D01*
X161495236Y-88711001D01*
X161495400Y-88686002D01*
X161468158Y-88395816D01*
X161468158Y-88395812D01*
X161467800Y-88392000D01*
X161569400Y-84912200D01*
X161696400Y-80949800D01*
X161709276Y-80845277D01*
X162127961Y-77446538D01*
X162127962Y-77446530D01*
X162128200Y-77444600D01*
X162915600Y-73228200D01*
X162926214Y-73183623D01*
X163000448Y-72871839D01*
X163042600Y-72694800D01*
X163056951Y-72641077D01*
X164033133Y-68986650D01*
X164033143Y-68986612D01*
X164033200Y-68986400D01*
X164287002Y-68072712D01*
X164287413Y-68071193D01*
X164394128Y-67666566D01*
X164896800Y-65760600D01*
X164896824Y-65760509D01*
X164997699Y-65382230D01*
X164998981Y-65376970D01*
X165430200Y-63423800D01*
X166062092Y-60643475D01*
X166065200Y-60615772D01*
X166065200Y-59613986D01*
X166062798Y-59589600D01*
X166055147Y-59564872D01*
X164874737Y-56802210D01*
X164871400Y-56794400D01*
X164821415Y-56419513D01*
X164819189Y-56407404D01*
X164722036Y-55994502D01*
X164713326Y-55969621D01*
X164658842Y-55854600D01*
X164495798Y-55510395D01*
X164482835Y-55488913D01*
X164113958Y-54997078D01*
X164104131Y-54985512D01*
X163505486Y-54361923D01*
X163493400Y-54350880D01*
X162865035Y-53848188D01*
X162864536Y-53847791D01*
X162509536Y-53566749D01*
X162257185Y-53366971D01*
X162253124Y-53363890D01*
X161696400Y-52959000D01*
X161696353Y-52958966D01*
X161316969Y-52680751D01*
X161316961Y-52680745D01*
X161315400Y-52679600D01*
X161071560Y-52476400D01*
X160707981Y-52173418D01*
X160707975Y-52173412D01*
X160705800Y-52171600D01*
X160197800Y-51663600D01*
X159816800Y-51231800D01*
X159812022Y-51220452D01*
X159730461Y-51026746D01*
X159613600Y-50749200D01*
X159592211Y-50546000D01*
X159564124Y-50279182D01*
X159564124Y-50279180D01*
X159562800Y-50266600D01*
X159664400Y-49936400D01*
X159918400Y-49682400D01*
X160451800Y-49301400D01*
X161949454Y-48412961D01*
X161951317Y-48411834D01*
X163141610Y-47677398D01*
X163146735Y-47674059D01*
X165245632Y-46232648D01*
X165258490Y-46222519D01*
X166257402Y-45323498D01*
X166276786Y-45301402D01*
X166540973Y-44917130D01*
X166552602Y-44896155D01*
X166801060Y-44324702D01*
X166802486Y-44321285D01*
X167106444Y-43561391D01*
X167106600Y-43561000D01*
X167106742Y-43560657D01*
X167106767Y-43560596D01*
X167537943Y-42520703D01*
X167538400Y-42519600D01*
X167843200Y-41859200D01*
X168402000Y-40741600D01*
X168884600Y-40055800D01*
X169214800Y-39776400D01*
X169468800Y-39725600D01*
X169583665Y-39748573D01*
X169583665Y-39748573D01*
G37*
G36*
X192461176Y-39370384D02*
X192461177Y-39370384D01*
X193872432Y-39471188D01*
X193878200Y-39471600D01*
X193883790Y-39473064D01*
X194939369Y-39749525D01*
X194939371Y-39749526D01*
X194945000Y-39751000D01*
X194950260Y-39753491D01*
X194950264Y-39753493D01*
X195478457Y-40003690D01*
X195910200Y-40208200D01*
X195913708Y-40210480D01*
X195913713Y-40210483D01*
X196105585Y-40335200D01*
X197434200Y-41198800D01*
X198653400Y-42341800D01*
X199313800Y-43180000D01*
X200660000Y-45008800D01*
X201650600Y-46939200D01*
X202122204Y-48412961D01*
X202260053Y-48843741D01*
X202260359Y-48844684D01*
X203454266Y-52476149D01*
X203479400Y-52552600D01*
X203479547Y-52553071D01*
X204044814Y-54361923D01*
X204114400Y-54584600D01*
X204114673Y-54593065D01*
X204114744Y-54593484D01*
X204117855Y-54617201D01*
X204125722Y-54640409D01*
X204137964Y-54661635D01*
X204154112Y-54680066D01*
X204173546Y-54694992D01*
X204195519Y-54705840D01*
X204216129Y-54710936D01*
X204216000Y-54711600D01*
X205257400Y-54914800D01*
X207364725Y-55447979D01*
X207366367Y-55448383D01*
X207578960Y-55499000D01*
X208418941Y-55698995D01*
X208418943Y-55698996D01*
X208432400Y-55702200D01*
X209321400Y-56413400D01*
X209321997Y-56413905D01*
X209322026Y-56413929D01*
X209683715Y-56719974D01*
X209981800Y-56972200D01*
X209985779Y-56977316D01*
X209985783Y-56977320D01*
X210514194Y-57656706D01*
X210693000Y-57886600D01*
X211124800Y-58724800D01*
X211126113Y-58728346D01*
X211374535Y-59399083D01*
X211374535Y-59399086D01*
X211378800Y-59410600D01*
X211353400Y-60096400D01*
X211074000Y-60604400D01*
X211066477Y-60611296D01*
X210820542Y-60836737D01*
X210769200Y-60883800D01*
X210384555Y-61012015D01*
X210012418Y-61136061D01*
X210012414Y-61136062D01*
X210007200Y-61137800D01*
X210001765Y-61138599D01*
X210001762Y-61138600D01*
X209431897Y-61222403D01*
X209143600Y-61264800D01*
X208800039Y-61277524D01*
X208459880Y-61290123D01*
X208459879Y-61290123D01*
X208457800Y-61290200D01*
X208455726Y-61290139D01*
X208455725Y-61290139D01*
X206734844Y-61239525D01*
X206734841Y-61239525D01*
X206730600Y-61239400D01*
X206726415Y-61238702D01*
X206726410Y-61238702D01*
X205520622Y-61037737D01*
X205511400Y-61036200D01*
X204972033Y-60766516D01*
X204949151Y-60757760D01*
X204931033Y-60754212D01*
X204584491Y-60712627D01*
X204559994Y-60712107D01*
X204535865Y-60716375D01*
X204513032Y-60725269D01*
X204492372Y-60738447D01*
X204474681Y-60755402D01*
X204460637Y-60775483D01*
X204450781Y-60797918D01*
X204445490Y-60821844D01*
X204444600Y-60836737D01*
X204444600Y-62001400D01*
X204395211Y-63423800D01*
X204317731Y-65655233D01*
X204317697Y-65662775D01*
X204368400Y-67640200D01*
X203987400Y-70916800D01*
X203882576Y-71650567D01*
X203733287Y-72695595D01*
X203682600Y-73050400D01*
X203681989Y-73053026D01*
X202535992Y-77978377D01*
X202488800Y-78181200D01*
X201713045Y-81129070D01*
X201473125Y-82040765D01*
X201472499Y-82043247D01*
X201295000Y-82778600D01*
X201294673Y-82779756D01*
X201294672Y-82779760D01*
X200584766Y-85289785D01*
X200583025Y-85296688D01*
X200482200Y-85750400D01*
X200481960Y-85751344D01*
X200481959Y-85751347D01*
X200127998Y-87141908D01*
X200125705Y-87152994D01*
X200026570Y-87772588D01*
X200025000Y-87792337D01*
X200025000Y-88361403D01*
X200025432Y-88371784D01*
X200050400Y-88671400D01*
X200075800Y-89128600D01*
X200075800Y-89306400D01*
X200075755Y-89307589D01*
X200075755Y-89307596D01*
X200072373Y-89397215D01*
X200031568Y-90478560D01*
X200025589Y-90636980D01*
X200028275Y-90667882D01*
X200091693Y-90963833D01*
X200171763Y-91337496D01*
X200179221Y-91360838D01*
X200193356Y-91385455D01*
X200525636Y-91836406D01*
X200542184Y-91854748D01*
X200803276Y-92092105D01*
X200803277Y-92092106D01*
X200812400Y-92100400D01*
X201003647Y-92506800D01*
X201013337Y-92527392D01*
X201018261Y-92536797D01*
X201264614Y-92962314D01*
X201295000Y-93014800D01*
X201843442Y-94031030D01*
X202145561Y-94590840D01*
X202159257Y-94611159D01*
X202180564Y-94631473D01*
X202971400Y-95224600D01*
X202972151Y-95225201D01*
X203220733Y-95424066D01*
X203230414Y-95431078D01*
X203822133Y-95817972D01*
X203885800Y-95859600D01*
X204266800Y-96215200D01*
X204709252Y-96901000D01*
X204767576Y-96991403D01*
X204784225Y-97012025D01*
X205511400Y-97739200D01*
X205892400Y-99415600D01*
X205880826Y-99423028D01*
X204193877Y-100505697D01*
X204187472Y-100510094D01*
X203047600Y-101346000D01*
X203045986Y-101347038D01*
X203045981Y-101347041D01*
X201276015Y-102484876D01*
X201263734Y-102493873D01*
X199621371Y-103858298D01*
X199615976Y-103863049D01*
X199183171Y-104267000D01*
X198878457Y-104551400D01*
X198862268Y-104569795D01*
X198846339Y-104599883D01*
X198374000Y-105892600D01*
X197739000Y-107315000D01*
X197180200Y-108534200D01*
X196596000Y-109347000D01*
X196291200Y-109626400D01*
X195656200Y-109626400D01*
X195584650Y-109566775D01*
X195513257Y-109507281D01*
X195513257Y-109507280D01*
X195503800Y-109499400D01*
X195573352Y-109047315D01*
X195706535Y-108181623D01*
X195707316Y-108175567D01*
X195833965Y-106959736D01*
X195834000Y-106959400D01*
X196138800Y-104267000D01*
X196390156Y-103362117D01*
X196393916Y-103342782D01*
X196519729Y-102235623D01*
X196519731Y-102235605D01*
X196519800Y-102235000D01*
X196640342Y-101346000D01*
X196722558Y-100739658D01*
X196722559Y-100739654D01*
X196723000Y-100736400D01*
X197027800Y-99491800D01*
X197046476Y-99415600D01*
X197655556Y-96930553D01*
X197659028Y-96906296D01*
X197655649Y-96871423D01*
X197104325Y-94590945D01*
X197104323Y-94590938D01*
X197104000Y-94589600D01*
X197099105Y-94564530D01*
X196617943Y-92100400D01*
X196268146Y-90309012D01*
X196261170Y-90285674D01*
X192570470Y-81258423D01*
X192507382Y-81104113D01*
X192505748Y-81100299D01*
X191629291Y-79144501D01*
X189763400Y-74980800D01*
X189751882Y-74952388D01*
X187478904Y-69345710D01*
X187478904Y-69345709D01*
X187477400Y-69342000D01*
X185919979Y-63423800D01*
X185572592Y-62103730D01*
X185572590Y-62103721D01*
X185572400Y-62103000D01*
X185567190Y-62081166D01*
X185399038Y-61376531D01*
X185391041Y-61353368D01*
X185378679Y-61332211D01*
X185362427Y-61313872D01*
X185342910Y-61299055D01*
X185320877Y-61288331D01*
X185297175Y-61282112D01*
X185272715Y-61280636D01*
X185252937Y-61282973D01*
X185234857Y-61286589D01*
X185200549Y-61298868D01*
X184838970Y-61491710D01*
X184838961Y-61491714D01*
X184835800Y-61493400D01*
X184608831Y-61582812D01*
X184000084Y-61822622D01*
X183995133Y-61824697D01*
X183092167Y-62226015D01*
X183092165Y-62226016D01*
X183083200Y-62230000D01*
X182967399Y-62242190D01*
X182119049Y-62331490D01*
X182117003Y-62331722D01*
X181080957Y-62458069D01*
X181080952Y-62458069D01*
X181076600Y-62458600D01*
X181072216Y-62458516D01*
X181072210Y-62458516D01*
X179760997Y-62433300D01*
X179760996Y-62433300D01*
X179755800Y-62433200D01*
X179750691Y-62432242D01*
X179750690Y-62432242D01*
X179589992Y-62402111D01*
X178943000Y-62280800D01*
X178938947Y-62279449D01*
X178938943Y-62279448D01*
X178344097Y-62081166D01*
X178322247Y-62076007D01*
X177792566Y-62000338D01*
X177622200Y-61976000D01*
X177038000Y-61823600D01*
X177028262Y-61816296D01*
X177028259Y-61816295D01*
X176743050Y-61602388D01*
X176743049Y-61602386D01*
X176733200Y-61595000D01*
X176682400Y-61239400D01*
X176711209Y-61037737D01*
X176757865Y-60711142D01*
X176757866Y-60711137D01*
X176758600Y-60706000D01*
X176760175Y-60701049D01*
X176935013Y-60151558D01*
X176935015Y-60151554D01*
X176936400Y-60147200D01*
X177271326Y-59461400D01*
X177467802Y-59059091D01*
X177467802Y-59059090D01*
X177469800Y-59055000D01*
X177472368Y-59051246D01*
X177472372Y-59051240D01*
X177793700Y-58581607D01*
X177793702Y-58581605D01*
X177800000Y-58572400D01*
X179095400Y-57658000D01*
X179535305Y-57398056D01*
X179650559Y-57329951D01*
X179650565Y-57329948D01*
X179654200Y-57327800D01*
X179658095Y-57326160D01*
X179658101Y-57326157D01*
X181099908Y-56719081D01*
X181104040Y-56717253D01*
X181105819Y-56716427D01*
X181813200Y-56388000D01*
X181819827Y-56386535D01*
X184225140Y-55854834D01*
X184227332Y-55854328D01*
X184697088Y-55741587D01*
X184720240Y-55733561D01*
X184741382Y-55721172D01*
X184759700Y-55704896D01*
X184774491Y-55685359D01*
X184785187Y-55663312D01*
X184792237Y-55633049D01*
X184811562Y-55448390D01*
X185013600Y-53517800D01*
X185140600Y-52476400D01*
X185394600Y-50546000D01*
X185409845Y-50452355D01*
X185535186Y-49682400D01*
X185572400Y-49453800D01*
X186410600Y-46939200D01*
X187095074Y-44885777D01*
X187095076Y-44885773D01*
X187096400Y-44881800D01*
X188925200Y-41148000D01*
X189376756Y-40741600D01*
X190694050Y-39556035D01*
X190703200Y-39547800D01*
X190710638Y-39547045D01*
X190710640Y-39547045D01*
X191552479Y-39461641D01*
X192455800Y-39370000D01*
X192461176Y-39370384D01*
X192461176Y-39370384D01*
G37*
G36*
X143731705Y-83385277D02*
X141928305Y-83385277D01*
X141928305Y-81581877D01*
X143731705Y-81581877D01*
X143731705Y-83385277D01*
X143731705Y-83385277D01*
G37*
G36*
X143093021Y-79076528D02*
X143257119Y-79144500D01*
X143404808Y-79243183D01*
X143530399Y-79368774D01*
X143629082Y-79516463D01*
X143697054Y-79680561D01*
X143731705Y-79854766D01*
X143731705Y-80032388D01*
X143697054Y-80206593D01*
X143629082Y-80370691D01*
X143530399Y-80518380D01*
X143404808Y-80643971D01*
X143257119Y-80742654D01*
X143093021Y-80810626D01*
X142918816Y-80845277D01*
X142741194Y-80845277D01*
X142566989Y-80810626D01*
X142402891Y-80742654D01*
X142255202Y-80643971D01*
X142129611Y-80518380D01*
X142030928Y-80370691D01*
X141962956Y-80206593D01*
X141928305Y-80032388D01*
X141928305Y-79854766D01*
X141962956Y-79680561D01*
X142030928Y-79516463D01*
X142129611Y-79368774D01*
X142255202Y-79243183D01*
X142402891Y-79144500D01*
X142566989Y-79076528D01*
X142741194Y-79041877D01*
X142918816Y-79041877D01*
X143093021Y-79076528D01*
X143093021Y-79076528D01*
G37*
G36*
X143093021Y-76536528D02*
X143257119Y-76604500D01*
X143404808Y-76703183D01*
X143530399Y-76828774D01*
X143629082Y-76976463D01*
X143697054Y-77140561D01*
X143731705Y-77314766D01*
X143731705Y-77492388D01*
X143697054Y-77666593D01*
X143629082Y-77830691D01*
X143530399Y-77978380D01*
X143404808Y-78103971D01*
X143257119Y-78202654D01*
X143093021Y-78270626D01*
X142918816Y-78305277D01*
X142741194Y-78305277D01*
X142566989Y-78270626D01*
X142402891Y-78202654D01*
X142255202Y-78103971D01*
X142129611Y-77978380D01*
X142030928Y-77830691D01*
X141962956Y-77666593D01*
X141928305Y-77492388D01*
X141928305Y-77314766D01*
X141962956Y-77140561D01*
X142030928Y-76976463D01*
X142129611Y-76828774D01*
X142255202Y-76703183D01*
X142402891Y-76604500D01*
X142566989Y-76536528D01*
X142741194Y-76501877D01*
X142918816Y-76501877D01*
X143093021Y-76536528D01*
X143093021Y-76536528D01*
G37*
G36*
X143093021Y-73996528D02*
X143257119Y-74064500D01*
X143404808Y-74163183D01*
X143530399Y-74288774D01*
X143629082Y-74436463D01*
X143697054Y-74600561D01*
X143731705Y-74774766D01*
X143731705Y-74952388D01*
X143697054Y-75126593D01*
X143629082Y-75290691D01*
X143530399Y-75438380D01*
X143404808Y-75563971D01*
X143257119Y-75662654D01*
X143093021Y-75730626D01*
X142918816Y-75765277D01*
X142741194Y-75765277D01*
X142566989Y-75730626D01*
X142402891Y-75662654D01*
X142255202Y-75563971D01*
X142129611Y-75438380D01*
X142030928Y-75290691D01*
X141962956Y-75126593D01*
X141928305Y-74952388D01*
X141928305Y-74774766D01*
X141962956Y-74600561D01*
X142030928Y-74436463D01*
X142129611Y-74288774D01*
X142255202Y-74163183D01*
X142402891Y-74064500D01*
X142566989Y-73996528D01*
X142741194Y-73961877D01*
X142918816Y-73961877D01*
X143093021Y-73996528D01*
X143093021Y-73996528D01*
G37*
G36*
X143680005Y-71293977D02*
X141980005Y-71293977D01*
X141980005Y-69593977D01*
X143680005Y-69593977D01*
X143680005Y-71293977D01*
X143680005Y-71293977D01*
G37*
G36*
X142682540Y-62418513D02*
X141975433Y-63125620D01*
X140702640Y-61852827D01*
X141409747Y-61145720D01*
X142682540Y-62418513D01*
X142682540Y-62418513D01*
G37*
G36*
X144945281Y-60155772D02*
X144238174Y-60862879D01*
X142965381Y-59590086D01*
X143672488Y-58882979D01*
X144945281Y-60155772D01*
X144945281Y-60155772D01*
G37*
G36*
X139217717Y-58953690D02*
X138510610Y-59660797D01*
X137237817Y-58388004D01*
X137944924Y-57680897D01*
X139217717Y-58953690D01*
X139217717Y-58953690D01*
G37*
G36*
X141480458Y-56690949D02*
X140773351Y-57398056D01*
X139500558Y-56125263D01*
X140207665Y-55418156D01*
X141480458Y-56690949D01*
X141480458Y-56690949D01*
G37*
M02*
