%TF.GenerationSoftware,KiCad,Pcbnew,(5.0.2-5)-5*%
%TF.CreationDate,2022-10-07T21:03:46+07:00*%
%TF.ProjectId,gosanke,676f7361-6e6b-4652-9e6b-696361645f70,rev?*%
%TF.SameCoordinates,Original*%
%TF.FileFunction,Legend,Bot*%
%TF.FilePolarity,Positive*%
%FSLAX46Y46*%
G04 Gerber Fmt 4.6, Leading zero omitted, Abs format (unit mm)*
G04 Created by KiCad (PCBNEW (5.0.2-5)-5) date 2022 October 07, Friday 21:03:46*
%MOMM*%
%LPD*%
G01*
G04 APERTURE LIST*
%ADD10C,0.120000*%
%ADD11C,0.254000*%
G04 APERTURE END LIST*
D10*
%TO.C,D2*%
X169024400Y-95076563D02*
X168126374Y-94178538D01*
X168211227Y-92297634D02*
X169024400Y-91484461D01*
X196354600Y-54351637D02*
X197252626Y-55249662D01*
X197167773Y-57130566D02*
X196354600Y-57943739D01*
X143700773Y-60254766D02*
X142887600Y-61067939D01*
X142887600Y-57475837D02*
X143785626Y-58373862D01*
%TD*%
D11*
G36*
X143368554Y-41575493D02*
X143418100Y-41576315D01*
X143464189Y-41558114D01*
X143467634Y-41554400D01*
X143803084Y-41554400D01*
X144883771Y-41755458D01*
X144885809Y-41755820D01*
X146524400Y-42033120D01*
X147314851Y-42335351D01*
X147574000Y-43348387D01*
X147574000Y-45008800D01*
X147581507Y-45051817D01*
X147810107Y-45686817D01*
X147826966Y-45718601D01*
X148911583Y-47206796D01*
X150476978Y-50640567D01*
X151922129Y-55787332D01*
X151944574Y-55831510D01*
X151982218Y-55863736D01*
X152023521Y-55878272D01*
X152472025Y-55953023D01*
X154154949Y-56480506D01*
X155764903Y-57310639D01*
X158100818Y-58842798D01*
X159264492Y-60526412D01*
X159785290Y-63601601D01*
X159306732Y-64391222D01*
X158566131Y-65279943D01*
X157125977Y-66074511D01*
X155605197Y-66523265D01*
X154224185Y-66573484D01*
X154213837Y-66574285D01*
X153403041Y-66670481D01*
X153355918Y-66685807D01*
X153318247Y-66717999D01*
X153295762Y-66762158D01*
X153291889Y-66811559D01*
X153316512Y-66872940D01*
X153388993Y-66969296D01*
X153162494Y-72984089D01*
X150599294Y-85229080D01*
X150596603Y-85254245D01*
X150520403Y-96569945D01*
X150539704Y-96638110D01*
X151047704Y-97450910D01*
X151078129Y-97484388D01*
X151837496Y-98066570D01*
X153730569Y-99681992D01*
X154586074Y-100760672D01*
X154851701Y-101509258D01*
X154900570Y-103280747D01*
X154000168Y-104302825D01*
X152535650Y-105529516D01*
X150748982Y-106309610D01*
X150734143Y-106317289D01*
X148173834Y-107863614D01*
X147442587Y-108216630D01*
X147403402Y-108246041D01*
X147182337Y-108491669D01*
X146962630Y-108662552D01*
X146924672Y-108710938D01*
X146708772Y-109193538D01*
X146703481Y-109207519D01*
X146583999Y-109589861D01*
X146409636Y-109799097D01*
X146381476Y-109862439D01*
X146357002Y-110033759D01*
X146307792Y-110230598D01*
X146305383Y-110280092D01*
X146316676Y-110311609D01*
X146217907Y-110492686D01*
X146203270Y-110538661D01*
X146197953Y-110583858D01*
X146191052Y-110589830D01*
X146167458Y-110639654D01*
X146045744Y-111175197D01*
X145767008Y-111587241D01*
X145758608Y-111601604D01*
X145584845Y-111949130D01*
X145361382Y-112271910D01*
X145351430Y-112288987D01*
X145001406Y-113014036D01*
X144611275Y-113526083D01*
X144149311Y-113915105D01*
X143559038Y-114234837D01*
X142889320Y-114482880D01*
X142239731Y-114632786D01*
X141699657Y-114730981D01*
X141378012Y-114708006D01*
X140913400Y-114536834D01*
X140420445Y-114344461D01*
X140021938Y-113922512D01*
X139651493Y-113145772D01*
X139851070Y-110626107D01*
X140711581Y-107449809D01*
X140714835Y-107433759D01*
X140941832Y-105769114D01*
X141344483Y-104561161D01*
X141348193Y-104547552D01*
X142135593Y-100864552D01*
X142138369Y-100835209D01*
X142087569Y-98523809D01*
X142084984Y-98500954D01*
X141576984Y-96037154D01*
X141571864Y-96019152D01*
X139768464Y-91091552D01*
X139764637Y-91082253D01*
X135395837Y-81557253D01*
X135359073Y-81510503D01*
X133519506Y-80058872D01*
X128440442Y-66868467D01*
X128441444Y-66850079D01*
X128425000Y-66803334D01*
X128391920Y-66766440D01*
X128347239Y-66745013D01*
X128297759Y-66742316D01*
X127884335Y-66801377D01*
X127161138Y-66751501D01*
X127152400Y-66751200D01*
X126272016Y-66751200D01*
X125176430Y-66601802D01*
X124630401Y-66403246D01*
X124629858Y-66403050D01*
X123306689Y-65928706D01*
X122438893Y-65160087D01*
X122279184Y-65000378D01*
X122020406Y-64459296D01*
X121996420Y-63883637D01*
X122071961Y-62977147D01*
X122072053Y-62975982D01*
X122121527Y-62308079D01*
X122369174Y-61639433D01*
X122512350Y-61257630D01*
X123076755Y-60668686D01*
X124461077Y-59334702D01*
X125609328Y-58660729D01*
X126261196Y-58384939D01*
X126619062Y-58240088D01*
X149793411Y-58240088D01*
X149913059Y-59514600D01*
X149927226Y-59562085D01*
X149958487Y-59600533D01*
X150002082Y-59624092D01*
X150049836Y-59629309D01*
X150556133Y-59587979D01*
X150576602Y-59584608D01*
X150654066Y-59565242D01*
X150783240Y-59583696D01*
X150939990Y-59673267D01*
X150986984Y-59688986D01*
X151036416Y-59685525D01*
X151080761Y-59663411D01*
X151113267Y-59626010D01*
X151128986Y-59579016D01*
X151125525Y-59529584D01*
X151116592Y-59506204D01*
X151076732Y-59426484D01*
X151127570Y-59362936D01*
X151150382Y-59318946D01*
X151154623Y-59269575D01*
X151139648Y-59222339D01*
X151090077Y-59172582D01*
X150861477Y-59045582D01*
X150814297Y-59030430D01*
X150764910Y-59034486D01*
X150720835Y-59057133D01*
X150702236Y-59075297D01*
X150633871Y-59157335D01*
X150592071Y-59108568D01*
X150637131Y-59003428D01*
X150647391Y-58954948D01*
X150638317Y-58906233D01*
X150611291Y-58864699D01*
X150557749Y-58832016D01*
X150328974Y-58761624D01*
X150537783Y-58628745D01*
X150573596Y-58594497D01*
X150593576Y-58549150D01*
X150594682Y-58499610D01*
X150576745Y-58453417D01*
X150542497Y-58417604D01*
X150500402Y-58398392D01*
X150319988Y-58353288D01*
X149992685Y-58124176D01*
X149947326Y-58104225D01*
X149897784Y-58103150D01*
X149851603Y-58121117D01*
X149815813Y-58155388D01*
X149795862Y-58200747D01*
X149793411Y-58240088D01*
X126619062Y-58240088D01*
X127324108Y-57954712D01*
X127891157Y-57757478D01*
X129242582Y-57622336D01*
X129289980Y-57607880D01*
X129328238Y-57576387D01*
X129351531Y-57532651D01*
X129355540Y-57477127D01*
X129211903Y-56519545D01*
X130194250Y-52111577D01*
X131635916Y-49076490D01*
X131646795Y-49040839D01*
X131799195Y-48024839D01*
X131800442Y-48012342D01*
X131851242Y-46996342D01*
X131848024Y-46960912D01*
X131650313Y-46120639D01*
X131722877Y-45612693D01*
X131868152Y-44765254D01*
X132367890Y-44265516D01*
X133345052Y-43488798D01*
X134098413Y-43061893D01*
X134125603Y-43041203D01*
X134633603Y-42533203D01*
X134644293Y-42521054D01*
X135072932Y-41966345D01*
X135827410Y-41138852D01*
X138019051Y-40765277D01*
X138934627Y-40616806D01*
X143368554Y-41575493D01*
X143368554Y-41575493D01*
G37*
X143368554Y-41575493D02*
X143418100Y-41576315D01*
X143464189Y-41558114D01*
X143467634Y-41554400D01*
X143803084Y-41554400D01*
X144883771Y-41755458D01*
X144885809Y-41755820D01*
X146524400Y-42033120D01*
X147314851Y-42335351D01*
X147574000Y-43348387D01*
X147574000Y-45008800D01*
X147581507Y-45051817D01*
X147810107Y-45686817D01*
X147826966Y-45718601D01*
X148911583Y-47206796D01*
X150476978Y-50640567D01*
X151922129Y-55787332D01*
X151944574Y-55831510D01*
X151982218Y-55863736D01*
X152023521Y-55878272D01*
X152472025Y-55953023D01*
X154154949Y-56480506D01*
X155764903Y-57310639D01*
X158100818Y-58842798D01*
X159264492Y-60526412D01*
X159785290Y-63601601D01*
X159306732Y-64391222D01*
X158566131Y-65279943D01*
X157125977Y-66074511D01*
X155605197Y-66523265D01*
X154224185Y-66573484D01*
X154213837Y-66574285D01*
X153403041Y-66670481D01*
X153355918Y-66685807D01*
X153318247Y-66717999D01*
X153295762Y-66762158D01*
X153291889Y-66811559D01*
X153316512Y-66872940D01*
X153388993Y-66969296D01*
X153162494Y-72984089D01*
X150599294Y-85229080D01*
X150596603Y-85254245D01*
X150520403Y-96569945D01*
X150539704Y-96638110D01*
X151047704Y-97450910D01*
X151078129Y-97484388D01*
X151837496Y-98066570D01*
X153730569Y-99681992D01*
X154586074Y-100760672D01*
X154851701Y-101509258D01*
X154900570Y-103280747D01*
X154000168Y-104302825D01*
X152535650Y-105529516D01*
X150748982Y-106309610D01*
X150734143Y-106317289D01*
X148173834Y-107863614D01*
X147442587Y-108216630D01*
X147403402Y-108246041D01*
X147182337Y-108491669D01*
X146962630Y-108662552D01*
X146924672Y-108710938D01*
X146708772Y-109193538D01*
X146703481Y-109207519D01*
X146583999Y-109589861D01*
X146409636Y-109799097D01*
X146381476Y-109862439D01*
X146357002Y-110033759D01*
X146307792Y-110230598D01*
X146305383Y-110280092D01*
X146316676Y-110311609D01*
X146217907Y-110492686D01*
X146203270Y-110538661D01*
X146197953Y-110583858D01*
X146191052Y-110589830D01*
X146167458Y-110639654D01*
X146045744Y-111175197D01*
X145767008Y-111587241D01*
X145758608Y-111601604D01*
X145584845Y-111949130D01*
X145361382Y-112271910D01*
X145351430Y-112288987D01*
X145001406Y-113014036D01*
X144611275Y-113526083D01*
X144149311Y-113915105D01*
X143559038Y-114234837D01*
X142889320Y-114482880D01*
X142239731Y-114632786D01*
X141699657Y-114730981D01*
X141378012Y-114708006D01*
X140913400Y-114536834D01*
X140420445Y-114344461D01*
X140021938Y-113922512D01*
X139651493Y-113145772D01*
X139851070Y-110626107D01*
X140711581Y-107449809D01*
X140714835Y-107433759D01*
X140941832Y-105769114D01*
X141344483Y-104561161D01*
X141348193Y-104547552D01*
X142135593Y-100864552D01*
X142138369Y-100835209D01*
X142087569Y-98523809D01*
X142084984Y-98500954D01*
X141576984Y-96037154D01*
X141571864Y-96019152D01*
X139768464Y-91091552D01*
X139764637Y-91082253D01*
X135395837Y-81557253D01*
X135359073Y-81510503D01*
X133519506Y-80058872D01*
X128440442Y-66868467D01*
X128441444Y-66850079D01*
X128425000Y-66803334D01*
X128391920Y-66766440D01*
X128347239Y-66745013D01*
X128297759Y-66742316D01*
X127884335Y-66801377D01*
X127161138Y-66751501D01*
X127152400Y-66751200D01*
X126272016Y-66751200D01*
X125176430Y-66601802D01*
X124630401Y-66403246D01*
X124629858Y-66403050D01*
X123306689Y-65928706D01*
X122438893Y-65160087D01*
X122279184Y-65000378D01*
X122020406Y-64459296D01*
X121996420Y-63883637D01*
X122071961Y-62977147D01*
X122072053Y-62975982D01*
X122121527Y-62308079D01*
X122369174Y-61639433D01*
X122512350Y-61257630D01*
X123076755Y-60668686D01*
X124461077Y-59334702D01*
X125609328Y-58660729D01*
X126261196Y-58384939D01*
X126619062Y-58240088D01*
X149793411Y-58240088D01*
X149913059Y-59514600D01*
X149927226Y-59562085D01*
X149958487Y-59600533D01*
X150002082Y-59624092D01*
X150049836Y-59629309D01*
X150556133Y-59587979D01*
X150576602Y-59584608D01*
X150654066Y-59565242D01*
X150783240Y-59583696D01*
X150939990Y-59673267D01*
X150986984Y-59688986D01*
X151036416Y-59685525D01*
X151080761Y-59663411D01*
X151113267Y-59626010D01*
X151128986Y-59579016D01*
X151125525Y-59529584D01*
X151116592Y-59506204D01*
X151076732Y-59426484D01*
X151127570Y-59362936D01*
X151150382Y-59318946D01*
X151154623Y-59269575D01*
X151139648Y-59222339D01*
X151090077Y-59172582D01*
X150861477Y-59045582D01*
X150814297Y-59030430D01*
X150764910Y-59034486D01*
X150720835Y-59057133D01*
X150702236Y-59075297D01*
X150633871Y-59157335D01*
X150592071Y-59108568D01*
X150637131Y-59003428D01*
X150647391Y-58954948D01*
X150638317Y-58906233D01*
X150611291Y-58864699D01*
X150557749Y-58832016D01*
X150328974Y-58761624D01*
X150537783Y-58628745D01*
X150573596Y-58594497D01*
X150593576Y-58549150D01*
X150594682Y-58499610D01*
X150576745Y-58453417D01*
X150542497Y-58417604D01*
X150500402Y-58398392D01*
X150319988Y-58353288D01*
X149992685Y-58124176D01*
X149947326Y-58104225D01*
X149897784Y-58103150D01*
X149851603Y-58121117D01*
X149815813Y-58155388D01*
X149795862Y-58200747D01*
X149793411Y-58240088D01*
X126619062Y-58240088D01*
X127324108Y-57954712D01*
X127891157Y-57757478D01*
X129242582Y-57622336D01*
X129289980Y-57607880D01*
X129328238Y-57576387D01*
X129351531Y-57532651D01*
X129355540Y-57477127D01*
X129211903Y-56519545D01*
X130194250Y-52111577D01*
X131635916Y-49076490D01*
X131646795Y-49040839D01*
X131799195Y-48024839D01*
X131800442Y-48012342D01*
X131851242Y-46996342D01*
X131848024Y-46960912D01*
X131650313Y-46120639D01*
X131722877Y-45612693D01*
X131868152Y-44765254D01*
X132367890Y-44265516D01*
X133345052Y-43488798D01*
X134098413Y-43061893D01*
X134125603Y-43041203D01*
X134633603Y-42533203D01*
X134644293Y-42521054D01*
X135072932Y-41966345D01*
X135827410Y-41138852D01*
X138019051Y-40765277D01*
X138934627Y-40616806D01*
X143368554Y-41575493D01*
M02*
